<svg id="Camada_1" data-name="Camada 1" xmlns="http://www.w3.org/2000/svg" xmlns:xlink="http://www.w3.org/1999/xlink" viewBox="0 0 181.58 252.45"><defs><style>.cls-1,.cls-11{fill:#e6e6e6;}.cls-10,.cls-2,.cls-3{fill:none;}.cls-2,.cls-3,.cls-4{stroke:#000;}.cls-10,.cls-11,.cls-12,.cls-2,.cls-3,.cls-4{stroke-miterlimit:10;}.cls-2{stroke-width:3px;}.cls-4{fill:#505050;opacity:0.5;}.cls-12,.cls-5{fill:#4d4d4d;}.cls-6{font-size:9px;font-family:Matrix-Bold, Matrix;font-weight:700;}.cls-7{font-size:11px;font-family:Diogenes, Diogenes;}.cls-8{letter-spacing:-0.01em;}.cls-9{letter-spacing:-0.05em;}.cls-10,.cls-11,.cls-12{stroke:#4d4d4d;}.cls-11{stroke-width:0.92px;}.cls-12{stroke-width:0.48px;}</style></defs><title>hemera</title><image width="2480" height="3507" transform="translate(2.93 4.92) scale(0.07 0.07)" xlink:href="../Hemera.png"/><path class="cls-1" d="M33.77,0A24.48,24.48,0,1,1,0,30.42V13.53A24.51,24.51,0,0,1,12.19,0Z" transform="translate(1.5 1.5)"/><path class="cls-1" d="M11.78,0h.41A24.51,24.51,0,0,0,0,13.53v-2A10.69,10.69,0,0,1,4,3.24l1.08-.87A10.71,10.71,0,0,1,11.78,0Z" transform="translate(1.5 1.5)"/><path class="cls-2" d="M0,13.53v-2A10.69,10.69,0,0,1,4,3.24l1.08-.87A10.71,10.71,0,0,1,11.78,0h156.1a10.68,10.68,0,0,1,10.7,10.7v227a10.66,10.66,0,0,1-2.92,7.34l-1,1.06a10.7,10.7,0,0,1-7.78,3.35H11.8a10.76,10.76,0,0,1-6.75-2.39l-1.1-.9A10.69,10.69,0,0,1,0,237.86V13.53Z" transform="translate(1.5 1.5)"/><polyline class="cls-3" points="48.36 18.09 53.19 18.08 144.71 17.95 145 17.95"/><polyline class="cls-3" points="154.72 0.95 154.4 1.5 144.71 17.95 144.56 18.2"/><path class="cls-3" d="M33.77,0A24.48,24.48,0,1,1,0,30.42" transform="translate(1.5 1.5)"/><path class="cls-4" d="M171.67,140.78V230.1a11.6,11.6,0,0,1-3.12,8h0a9.47,9.47,0,0,1-6.84,3H18.4a9.3,9.3,0,0,1-5.6-1.91l-1.44-1.08A11.38,11.38,0,0,1,7,229V140.78Z" transform="translate(1.5 1.5)"/><path class="cls-1" d="M122.3,225.46h9.78a9.78,9.78,0,1,1-19.43-1.63Z" transform="translate(1.5 1.5)"/><path class="cls-1" d="M91.42,225.46h9.78a9.78,9.78,0,1,1-16.58-7Z" transform="translate(1.5 1.5)"/><path class="cls-1" d="M61,225.53h9.78a9.78,9.78,0,1,1-6-9Z" transform="translate(1.5 1.5)"/><path class="cls-1" d="M29.26,225.06H39a9.78,9.78,0,1,1-18.76-3.88Z" transform="translate(1.5 1.5)"/><circle class="cls-3" cx="30.58" cy="227.03" r="10.08"/><circle class="cls-3" cx="62.26" cy="227.03" r="10.08"/><circle class="cls-3" cx="92.92" cy="227.03" r="10.08"/><circle class="cls-3" cx="123.58" cy="227.03" r="10.08"/><g id="Camada_2" data-name="Camada 2"><g id="Camada_1-2" data-name="Camada 1-2"><path class="cls-5" d="M58.61,228.19a18.35,18.35,0,0,0-.89-2.78c-.38-.93-.94-1.88-.63-2.91a4.63,4.63,0,0,1,4.37-3c2,.08,3.16,1.69,3.67,3.5a2.66,2.66,0,0,1,.07,1.46c-.13.4-.4.77-.55,1.16-.26.68-.64,1.29-.93,2-.14.31-.15.84-.36,1.1s-1.26.17-1.69.16l-1.81,0a4.42,4.42,0,0,1-.81,0c-.19,0-.48-.12-.58-.33s0-.38.06-.48c0-.4-.58-.39-.63,0s-.16.89.24,1.21,1.18.23,1.7.24l1.91,0a4.13,4.13,0,0,0,1.74-.09,1.26,1.26,0,0,0,.59-.88,6.51,6.51,0,0,1,.52-1.33,11.6,11.6,0,0,0,.53-1.1,10.17,10.17,0,0,0,.69-1.59,5.06,5.06,0,0,0-.66-3.1A4.35,4.35,0,0,0,63,219.16a5,5,0,0,0-5.65,1.68,3.46,3.46,0,0,0-.75,3.42c.22.65.54,1.27.78,1.92a18.44,18.44,0,0,1,.65,2.17c.09.39.69.23.6-.17Z" transform="translate(1.5 1.5)"/><path class="cls-5" d="M58.56,229c-.42-.06-.84.32-.56.75.17.25.5.25.77.26.57,0,1.15.06,1.71.08s1.08,0,1.61,0a5.87,5.87,0,0,0,1.44-.1c.21-.06.51-.18.52-.44s-.36-.47-.56-.59a.16.16,0,0,0-.16.27q.32.09.12.46a2.38,2.38,0,0,1-.46.06l-.6,0-1.31,0-1.31,0-.6,0-.4,0q-.37.07-.29-.4c.2,0,.28-.27.08-.3Z" transform="translate(1.5 1.5)"/><path class="cls-5" d="M58.5,230.87a1.63,1.63,0,0,0,.74,1.09,3.7,3.7,0,0,0,1.61.14c.61,0,2.42-.07,2.06-1.12-.06-.19-.37-.1-.3.08.26.77-1.8.73-2.14.73a4.34,4.34,0,0,1-.83,0c-.53-.1-.69-.5-.83-1-.06-.19-.36-.1-.3.08Z" transform="translate(1.5 1.5)"/><path class="cls-5" d="M58.35,229.87c-.42-.06-.84.32-.56.75.17.25.5.25.77.26.57,0,1.15.06,1.71.08s1.08,0,1.61,0a5.87,5.87,0,0,0,1.44-.1c.21-.06.51-.18.52-.44s-.36-.47-.56-.59a.16.16,0,0,0-.16.27q.32.09.12.46a2.38,2.38,0,0,1-.46.06l-.6,0-1.31,0-1.31,0-.6,0-.4,0q-.37.07-.29-.4c.2,0,.28-.27.08-.3Z" transform="translate(1.5 1.5)"/></g></g><g id="Camada_2-2" data-name="Camada 2"><g id="Camada_1-2-2" data-name="Camada 1-2"><path class="cls-5" d="M29,215.58a9.88,9.88,0,1,1-9.88,9.88h0A9.89,9.89,0,0,1,29,215.58m0,0a9.91,9.91,0,1,0,9.91,9.91A9.91,9.91,0,0,0,29,215.55Z" transform="translate(1.5 1.5)"/><path class="cls-5" d="M26.29,232.2a39.48,39.48,0,0,1,.14-4.5,3,3,0,0,0-.14-1.75c-.35-.63-.72-1.26-1.11-1.86-.13-.2-.36-.41-.46-.62-.25-.5.06-1.08.26-1.53a4.48,4.48,0,0,1,1-1.74c.68-.51,1.52,0,2.16.35s1.29.59,1.94.85l-.12-.2a1.69,1.69,0,0,1-1.17,1.27,4.81,4.81,0,0,1-2.09-.25c-.2,0-.29.27-.09.31a4.28,4.28,0,0,0,2.5.16,2,2,0,0,0,1.15-1.41.17.17,0,0,0-.11-.2c-.84-.34-1.64-.73-2.46-1.11a2,2,0,0,0-1.63-.21,2.29,2.29,0,0,0-1,1.25,6.72,6.72,0,0,0-.81,2c-.09.59.48,1,.77,1.48.43.71,1.15,1.56,1.12,2.41-.06,1.78-.27,3.53-.19,5.31,0,.21.33.21.33,0Z" transform="translate(1.5 1.5)"/><path class="cls-5" d="M26.5,219.7a3.51,3.51,0,0,0,.63-.73c.1-.16.16-.35.27-.5s.38-.23.66-.22h.52c.52.07.54.35.45.79a3.3,3.3,0,0,1-.51,1.2l.29.13c.24-.66.6-1.6,1.48-1a.7.7,0,0,1,.35.94,2.19,2.19,0,0,1-.44.85l.25.2c.18-.42.81-1.76,1.42-1,.27.35-.09,1.11-.22,1.46a2.47,2.47,0,0,1-.83,1.23c-.6.39-1.21-.06-1.69-.41-.17-.12-.33.16-.16.28.6.42,1.32.86,2,.41a3.45,3.45,0,0,0,1.18-2.07c.18-.67.25-1.13-.51-1.36s-1.23.7-1.49,1.29c-.07.15.13.35.25.2A2.58,2.58,0,0,0,31,220c.07-.54-.19-.76-.65-1-1.06-.61-1.57.44-1.88,1.29-.07.18.2.27.3.12.43-.64,1.15-2.21,0-2.46a4.75,4.75,0,0,0-.9,0,.86.86,0,0,0-.56.1,1.93,1.93,0,0,0-.34.58,3.25,3.25,0,0,1-.7.88c-.16.14.07.37.23.23Z" transform="translate(1.5 1.5)"/><path class="cls-5" d="M32.26,221.36a1.21,1.21,0,0,1,.79.37c.28.35,0,.77-.21,1.09a3.5,3.5,0,0,1-.52.55c-.5.42-1,.23-1.41-.13-.16-.13-.4.1-.23.23A1.53,1.53,0,0,0,32,224a2.5,2.5,0,0,0,1.15-.94,1.6,1.6,0,0,0,.39-1.27c-.14-.5-.72-.58-1.15-.69a.16.16,0,0,0-.09.31Z" transform="translate(1.5 1.5)"/><path class="cls-5" d="M32.58,223.43a8.16,8.16,0,0,1-.52,2.19c-.25.48-.7.65-.74,1.24-.06.79,0,1.62,0,2.41s0,1.65.06,2.47l.12-.16a9.31,9.31,0,0,1-2.69.43,2.68,2.68,0,0,0-1,.15,2,2,0,0,1-1.56,0c-.2-.07-.28.25-.09.31a2.5,2.5,0,0,0,1.23.2,1.76,1.76,0,0,0,.39-.13,2.49,2.49,0,0,1,1-.19,9.72,9.72,0,0,0,2.78-.44.17.17,0,0,0,.12-.16c0-1.57-.16-3.17-.09-4.74a.9.9,0,0,1,.23-.67c.08-.08.17-.15.24-.24a1.84,1.84,0,0,0,.29-.5,10.7,10.7,0,0,0,.48-2.1c0-.2-.27-.29-.31-.09Z" transform="translate(1.5 1.5)"/></g></g><g id="Camada_2-3" data-name="Camada 2"><g id="Camada_1-2-3" data-name="Camada 1-2"><path class="cls-5" d="M122.55,220.7c-.2.76.26,1.5.22,2.27,0,.93-.14,1.85-.18,2.78a18.32,18.32,0,0,0,0,2.69c.06.56.17,1,.77,1.17a1.08,1.08,0,0,0,1.29-.39,3.49,3.49,0,0,0,.56-2,10.66,10.66,0,0,0-.6-2.32,16.34,16.34,0,0,1-.56-2.64c-.06-.64.14-1.58-.51-2a.69.69,0,0,0-1.05.38.16.16,0,0,0,.3.08q.53-.43.74,0a.67.67,0,0,1,.16.35,3,3,0,0,1,0,.67,6.46,6.46,0,0,0,.06.87,20.3,20.3,0,0,0,.45,2.12c.18.73.5,1.45.62,2.18a2.75,2.75,0,0,1-.06,1.16,2.17,2.17,0,0,1-.53,1.12A.87.87,0,0,1,123,229a3.1,3.1,0,0,1-.14-1.12c0-.83,0-1.67,0-2.5s.11-1.51.15-2.27a3.51,3.51,0,0,0-.06-1,2.65,2.65,0,0,1-.17-1.3.16.16,0,0,0-.3-.08Z" transform="translate(1.5 1.5)"/><path class="cls-5" d="M125,226.26q1.17.95,2.38,1.84c.46.33,1,.58,1.18,1.14a3.51,3.51,0,0,1,.1.94q0,.2,0,.4t-.24.19a3.35,3.35,0,0,1-.82,0h-2.47c-.27,0-.55,0-.82,0a.83.83,0,0,1-.8-.45c-.24-.44-.47-.89-.68-1.35-.09-.18-.36,0-.27.16a7.46,7.46,0,0,0,.9,1.71c.31.35.86.24,1.27.24H128a2.12,2.12,0,0,0,.76,0c.34-.15.23-.79.21-1.08a2.19,2.19,0,0,0-.34-1.38,13.78,13.78,0,0,0-1.57-1.13q-.94-.7-1.84-1.44c-.16-.13-.38.09-.22.22Z" transform="translate(1.5 1.5)"/><path class="cls-5" d="M122.91,220.1c-.09-.07-.05-.22,0-.29a.57.57,0,0,1,.35-.16c.08,0,.13,0,.18,0a.5.5,0,0,1,0,.19,1.47,1.47,0,0,1,0,.49c0,.2.27.28.3.08a1.69,1.69,0,0,0-.07-.89c-.11-.27-.4-.24-.63-.18a.69.69,0,0,0-.53.45.5.5,0,0,0,.19.56c.16.12.32-.15.16-.27Z" transform="translate(1.5 1.5)"/><path class="cls-5" d="M124.07,223.28a4.6,4.6,0,0,1,1,2.68c0,.2.34.2.32,0a4.84,4.84,0,0,0-1.07-2.9C124.14,222.92,123.92,223.14,124.07,223.28Z" transform="translate(1.5 1.5)"/><path class="cls-5" d="M122.55,220.7c-.2.76.26,1.5.22,2.27,0,.93-.14,1.85-.18,2.78a18.32,18.32,0,0,0,0,2.69c.06.56.17,1,.77,1.17a1.08,1.08,0,0,0,1.29-.39,3.49,3.49,0,0,0,.56-2,10.66,10.66,0,0,0-.6-2.32,16.34,16.34,0,0,1-.56-2.64c-.06-.64.14-1.58-.51-2a.69.69,0,0,0-1.05.38.16.16,0,0,0,.3.08q.53-.43.74,0a.67.67,0,0,1,.16.35,3,3,0,0,1,0,.67,6.46,6.46,0,0,0,.06.87,20.3,20.3,0,0,0,.45,2.12c.18.73.5,1.45.62,2.18a2.75,2.75,0,0,1-.06,1.16,2.17,2.17,0,0,1-.53,1.12A.87.87,0,0,1,123,229a3.1,3.1,0,0,1-.14-1.12c0-.83,0-1.67,0-2.5s.11-1.51.15-2.27a3.51,3.51,0,0,0-.06-1,2.65,2.65,0,0,1-.17-1.3.16.16,0,0,0-.3-.08Z" transform="translate(1.5 1.5)"/><path class="cls-5" d="M125,226.26q1.17.95,2.38,1.84c.46.33,1,.58,1.18,1.14a3.51,3.51,0,0,1,.1.94q0,.2,0,.4t-.24.19a3.35,3.35,0,0,1-.82,0h-2.47c-.27,0-.55,0-.82,0a.83.83,0,0,1-.8-.45c-.24-.44-.47-.89-.68-1.35-.09-.18-.36,0-.27.16a7.46,7.46,0,0,0,.9,1.71c.31.35.86.24,1.27.24H128a2.12,2.12,0,0,0,.76,0c.34-.15.23-.79.21-1.08a2.19,2.19,0,0,0-.34-1.38,13.78,13.78,0,0,0-1.57-1.13q-.94-.7-1.84-1.44c-.16-.13-.38.09-.22.22Z" transform="translate(1.5 1.5)"/><path class="cls-5" d="M122.91,220.1c-.09-.07-.05-.22,0-.29a.57.57,0,0,1,.35-.16c.08,0,.13,0,.18,0a.5.5,0,0,1,0,.19,1.47,1.47,0,0,1,0,.49c0,.2.27.28.3.08a1.69,1.69,0,0,0-.07-.89c-.11-.27-.4-.24-.63-.18a.69.69,0,0,0-.53.45.5.5,0,0,0,.19.56c.16.12.32-.15.16-.27Z" transform="translate(1.5 1.5)"/><path class="cls-5" d="M124.07,223.28a4.6,4.6,0,0,1,1,2.68c0,.2.34.2.32,0a4.84,4.84,0,0,0-1.07-2.9C124.14,222.92,123.92,223.14,124.07,223.28Z" transform="translate(1.5 1.5)"/><path class="cls-5" d="M121.93,220.89a2.66,2.66,0,0,1-.17,1.3,3.25,3.25,0,0,0-.06.88c0,.79.12,1.57.16,2.36s.06,1.6,0,2.39a4.74,4.74,0,0,1-.1,1.1.83.83,0,0,1-1.29.38,2.84,2.84,0,0,1-.61-2.12,16.86,16.86,0,0,1,.65-2.34c.17-.67.35-1.35.45-2a6.52,6.52,0,0,0,.07-1,3,3,0,0,1,0-.67l.09-.25q.22-.51.81-.07a.16.16,0,0,0,.3-.08.68.68,0,0,0-.82-.49l-.08,0c-.55.19-.65.86-.66,1.36a11.63,11.63,0,0,1-.4,2.62c-.2.84-.51,1.65-.71,2.49s0,3,1.28,3a1.07,1.07,0,0,0,1.16-.69,8.17,8.17,0,0,0,.13-2.41c0-1.08-.1-2.16-.18-3.22a4.35,4.35,0,0,1,.12-1.53,2.06,2.06,0,0,0,.07-1.12.16.16,0,0,0-.3.08Z" transform="translate(1.5 1.5)"/><path class="cls-5" d="M119.61,226.14q-.91.74-1.84,1.44l-.88.64a5.08,5.08,0,0,0-.69.49,2.08,2.08,0,0,0-.33,1.28c0,.32-.15,1,.2,1.17a2,2,0,0,0,.76,0h3.29c.42,0,1,.11,1.27-.24a7.59,7.59,0,0,0,.9-1.71c.09-.18-.18-.34-.27-.16-.22.45-.44.91-.68,1.35a.83.83,0,0,1-.8.45c-.27,0-.55,0-.82,0h-2.47a3.29,3.29,0,0,1-.82,0q-.28.11-.24-.19t0-.4a3.51,3.51,0,0,1,.1-.94c.17-.56.72-.81,1.18-1.14q1.22-.89,2.38-1.84c.16-.13-.07-.35-.22-.22Z" transform="translate(1.5 1.5)"/><path class="cls-5" d="M122,220.48a.5.5,0,0,0,.19-.56.7.7,0,0,0-.53-.45c-.23-.06-.53-.09-.63.18a1.69,1.69,0,0,0-.07.89c0,.2.34.11.3-.08a1.46,1.46,0,0,1,0-.49.63.63,0,0,1,0-.19c0-.06.11,0,.18,0a.56.56,0,0,1,.35.16c.06.07.1.22,0,.29s0,.39.16.27Z" transform="translate(1.5 1.5)"/><path class="cls-5" d="M120.5,223.16a4.82,4.82,0,0,0-1.07,2.9c0,.2.29.2.32,0a4.62,4.62,0,0,1,1-2.68C120.87,223.25,120.65,223,120.5,223.16Z" transform="translate(1.5 1.5)"/><path class="cls-5" d="M121.93,220.89a2.66,2.66,0,0,1-.17,1.3,3.25,3.25,0,0,0-.06.88c0,.79.12,1.57.16,2.36s.06,1.6,0,2.39a4.74,4.74,0,0,1-.1,1.1.83.83,0,0,1-1.29.38,2.84,2.84,0,0,1-.61-2.12,16.86,16.86,0,0,1,.65-2.34c.17-.67.35-1.35.45-2a6.52,6.52,0,0,0,.07-1,3,3,0,0,1,0-.67l.09-.25q.22-.51.81-.07a.16.16,0,0,0,.3-.08.68.68,0,0,0-.82-.49l-.08,0c-.55.19-.65.86-.66,1.36a11.63,11.63,0,0,1-.4,2.62c-.2.84-.51,1.65-.71,2.49s0,3,1.28,3a1.07,1.07,0,0,0,1.16-.69,8.17,8.17,0,0,0,.13-2.41c0-1.08-.1-2.16-.18-3.22a4.35,4.35,0,0,1,.12-1.53,2.06,2.06,0,0,0,.07-1.12.16.16,0,0,0-.3.08Z" transform="translate(1.5 1.5)"/><path class="cls-5" d="M119.61,226.14q-.91.74-1.84,1.44l-.88.64a5.08,5.08,0,0,0-.69.49,2.08,2.08,0,0,0-.33,1.28c0,.32-.15,1,.2,1.17a2,2,0,0,0,.76,0h3.29c.42,0,1,.11,1.27-.24a7.59,7.59,0,0,0,.9-1.71c.09-.18-.18-.34-.27-.16-.22.45-.44.91-.68,1.35a.83.83,0,0,1-.8.45c-.27,0-.55,0-.82,0h-2.47a3.29,3.29,0,0,1-.82,0q-.28.11-.24-.19t0-.4a3.51,3.51,0,0,1,.1-.94c.17-.56.72-.81,1.18-1.14q1.22-.89,2.38-1.84c.16-.13-.07-.35-.22-.22Z" transform="translate(1.5 1.5)"/><path class="cls-5" d="M122,220.48a.5.5,0,0,0,.19-.56.7.7,0,0,0-.53-.45c-.23-.06-.53-.09-.63.18a1.69,1.69,0,0,0-.07.89c0,.2.34.11.3-.08a1.46,1.46,0,0,1,0-.49.63.63,0,0,1,0-.19c0-.06.11,0,.18,0a.56.56,0,0,1,.35.16c.06.07.1.22,0,.29s0,.39.16.27Z" transform="translate(1.5 1.5)"/><path class="cls-5" d="M120.5,223.16a4.82,4.82,0,0,0-1.07,2.9c0,.2.29.2.32,0a4.62,4.62,0,0,1,1-2.68C120.87,223.25,120.65,223,120.5,223.16Z" transform="translate(1.5 1.5)"/></g></g><g id="Camada_2-4" data-name="Camada 2"><g id="Camada_1-2-4" data-name="Camada 1-2"><path class="cls-5" d="M92.91,221.09c1.33-1.07,3.39-1.69,4.77-.36s1.24,3.68.92,5.5a5.45,5.45,0,0,1-.91,2.45A4.84,4.84,0,0,1,95.5,230a8.13,8.13,0,0,0-3.84,2.66c-.24.32.3.63.54.31A6.32,6.32,0,0,1,94,231.37a17.07,17.07,0,0,1,2.17-.94,4.38,4.38,0,0,0,2.74-2.88c.79-2.56,1.13-6.94-2.06-8a4.78,4.78,0,0,0-4.41,1.13c-.31.25.13.69.44.44Z" transform="translate(1.5 1.5)"/><path class="cls-5" d="M91,220.78a5,5,0,0,0-3.84-1.54,3.75,3.75,0,0,0-3,2.46,9.47,9.47,0,0,0-.28,4.82A4.45,4.45,0,0,0,86.09,230c.7.4,1.46.69,2.16,1.11a6.32,6.32,0,0,1,2,2c.22.34.76,0,.54-.31a8.36,8.36,0,0,0-3.72-3,4.64,4.64,0,0,1-2-1.46,5.6,5.6,0,0,1-.72-2.63c-.16-1.79-.18-3.92,1.27-5.22s3.57-.53,4.84.68c.29.28.73-.17.44-.44Z" transform="translate(1.5 1.5)"/></g></g><text class="cls-6" transform="translate(15.23 155.65)">Filha de Nix e Érebo. Representa a <tspan x="0" y="10.8">contraparte de sua mãe. Ela é a </tspan><tspan x="0" y="21.6">luminosidade dos dias que antecederam.</tspan></text><text class="cls-7" transform="translate(52.17 14.73)"><tspan class="cls-8">H</tspan><tspan x="5.96" y="0">E</tspan><tspan class="cls-9" x="12.07" y="0">M</tspan><tspan x="21.71" y="0">ERA</tspan></text><g id="Camada_2-5" data-name="Camada 2"><g id="Camada_1-2-5" data-name="Camada 1-2"><line class="cls-10" x1="3.2" y1="27.19" x2="48.3" y2="27.19"/><path class="cls-11" d="M24.39,25.55l-13.5.16v-.16a13.5,13.5,0,1,1,27,0Z" transform="translate(1.5 1.5)"/><path class="cls-5" d="M10.81,25.63a.91.91,0,0,0-.38-.93,2.68,2.68,0,0,0-1-.4l-1.62-.41c-.74-.19-1.59-.48-1.82-1.22-.05-.17-.08-.37-.23-.47a.63.63,0,0,0-.31-.06,3,3,0,0,1-1.56-.5,13.08,13.08,0,0,1,1.69-.38,2.53,2.53,0,0,1,.75,0,3.36,3.36,0,0,1,1.21.57,5,5,0,0,0,3.9.75.21.21,0,0,0-.21-.19" transform="translate(1.5 1.5)"/><path class="cls-5" d="M10.91,25.63c0-.92-.65-1.2-1.44-1.43a14.14,14.14,0,0,1-2.55-.73c-.6-.31-.59-1-1.09-1.34-.28-.17-1.53-.06-1.49-.49A8.92,8.92,0,0,1,6,21.32,4.55,4.55,0,0,1,7.7,22a5.21,5.21,0,0,0,3.77.65.11.11,0,0,0,.07-.13v0c-.09-.17-.09-.17-.28-.24s-.18.15-.06.2c-.21-.08-.82.13-1.09.11a4.71,4.71,0,0,1-1.7-.46c-.56-.24-1.05-.66-1.61-.86a5,5,0,0,0-2.93.3.11.11,0,0,0,0,.19c.64.36,1.51.42,2,1,.26.28.26.52.62.78.94.68,4.23.62,4.18,2.16a.11.11,0,0,0,.21,0Z" transform="translate(1.5 1.5)"/><path class="cls-5" d="M10.71,22.41A4.45,4.45,0,0,0,8.16,20a7.64,7.64,0,0,1-3-1.95,10.49,10.49,0,0,0,4,1c1.11.06,2.36,0,3.2.71" transform="translate(1.5 1.5)"/><path class="cls-5" d="M10.81,22.39c-.87-2.3-3.43-2.33-5-3.86-.44-.42-.23-.18.21,0A13.78,13.78,0,0,0,8,19c1.44.24,3.08-.07,4.33.84.11.08.21-.1.11-.18A4.48,4.48,0,0,0,9.81,19a12,12,0,0,1-4.59-1,.11.11,0,0,0-.13.16c1.54,1.84,4.6,1.93,5.51,4.34,0,.13.25.07.2-.06Z" transform="translate(1.5 1.5)"/><path class="cls-5" d="M12.45,19.37a1.89,1.89,0,0,1-1.24-.78,4.42,4.42,0,0,1-.5-1.26A5.06,5.06,0,0,0,9.42,15c-.6-.56-1.43-.9-1.74-1.65L9.29,14a5.11,5.11,0,0,1,1.19.58c.5.37.9.93,1.5,1.08.37.09.79,0,1.11.19s.6.79,1.06.84" transform="translate(1.5 1.5)"/><path class="cls-5" d="M12.48,19.27c-1.65-.45-1.58-2.34-2.37-3.56-.21-.32-2.13-2-2.06-2.07a10.54,10.54,0,0,1,2.32,1,11.7,11.7,0,0,0,1.21,1c.65.32,1.15.18,1.86.69.28.21.36.37.69.48.13,0,.18-.16.06-.2-.48-.16-.63-.6-1-.84a3.13,3.13,0,0,0-.41-.13A6,6,0,0,1,11,14.87,12.56,12.56,0,0,0,7.7,13.27c-.09,0-.16.08-.12.15a3.37,3.37,0,0,0,.94,1,5.38,5.38,0,0,1,2,2.71c.38,1.11.64,1.95,1.87,2.29a.11.11,0,0,0,.06-.2Z" transform="translate(1.5 1.5)"/><path class="cls-5" d="M14,16.4A3,3,0,0,1,13.43,15a5.63,5.63,0,0,0-.09-.84,3.29,3.29,0,0,0-.43-.85,13,13,0,0,1-1.35-3,1.57,1.57,0,0,1,1.16.53,5.6,5.6,0,0,0,1,.89,5.59,5.59,0,0,1,1.24.64,6.68,6.68,0,0,1,.48.67,3.1,3.1,0,0,0,.54.5l1.09.86" transform="translate(1.5 1.5)"/><path class="cls-5" d="M14.08,16.35c-.56-.91-.43-1.95-.91-2.86-.24-.46-.54-.9-.77-1.37s-1.31-2.27.24-1.28c.28.18.46.51.73.72s.84.35,1.23.62.63.77,1,1.11A14.73,14.73,0,0,0,17,14.39c.11.08.25-.06.15-.15a19.6,19.6,0,0,1-1.95-1.84,2.7,2.7,0,0,0-.78-.56c-1-.49-1.67-1.63-2.81-1.71a.11.11,0,0,0-.1.11v0a16.74,16.74,0,0,0,1.37,3.06c.56,1,.45,2.14,1.07,3.13.07.11.25,0,.18-.11Z" transform="translate(1.5 1.5)"/><path class="cls-5" d="M16.77,14.26c.36-.43.15-1.07,0-1.62A10.24,10.24,0,0,1,16.53,11l-.09-.94a4.93,4.93,0,0,1,.18-2.41,2.2,2.2,0,0,0,.56,1.18c.41.43,1,.69,1.34,1.16a3.51,3.51,0,0,1,.3.49l.72,1.35c.17.32.38.67.73.74" transform="translate(1.5 1.5)"/><path class="cls-5" d="M16.87,14.31c.39-.71.08-1.35-.07-2.1a20.77,20.77,0,0,1-.28-2.55,7.28,7.28,0,0,1,0-.84l.09-.76q0-.17.06.1c.16.12.31.58.46.75.39.43.92.68,1.29,1.14.65.82.84,2.13,1.82,2.62.12.06.23-.12.11-.18-.95-.47-1.11-1.79-1.73-2.57S17,8.83,16.73,7.63a.11.11,0,0,0-.2,0,6.74,6.74,0,0,0-.14,2.91c.08.9.71,2.9.28,3.67-.06.12.11.22.18.11Z" transform="translate(1.5 1.5)"/><path class="cls-5" d="M24.49,12a.9.9,0,0,1,.14-1,10.41,10.41,0,0,1,.79-.75c.9-.93.94-2.48,1.9-3.34a4.09,4.09,0,0,0,.11,1.67,2.19,2.19,0,0,1,.16.5c0,.28-.12.58,0,.86s.34.46.42.73a7.11,7.11,0,0,1,.06.72c.1.44.59.82.44,1.25" transform="translate(1.5 1.5)"/><path class="cls-5" d="M24.6,11.94c-.28-.72,1.29-2.08,1.6-2.78.2-.44.35-.91.56-1.34.06-.11.18-.46.33-.47s.09.54.13.78c.08.5.14.94.2,1.46a1.81,1.81,0,0,0,0,.36c.06.19.22.31.28.48.18.41.07.59.18.93s.47.82.44,1.24a.1.1,0,0,0,.21,0c0-.36-.09-.47-.21-.79-.18-.48-.28-1-.43-1.48a10.49,10.49,0,0,1-.5-3.45.11.11,0,0,0-.18-.08c-.86.89-1,2.14-1.71,3.1C25,10.55,24,11,24.37,12c0,.13.25.07.2-.06Z" transform="translate(1.5 1.5)"/><path class="cls-5" d="M28.46,12.38l.41-.38a2.88,2.88,0,0,1,.67-.51c.28-.14.62-.18.91-.33.63-.3,1-1,1.62-1.3a6.35,6.35,0,0,1,.9-.24,1.08,1.08,0,0,0,.73-.53c-.07.66-.63,1.16-.84,1.78a6,6,0,0,0-.11,1.83A1.69,1.69,0,0,1,32,14.25" transform="translate(1.5 1.5)"/><path class="cls-5" d="M28.54,12.45a5.49,5.49,0,0,1,1.64-1.08,3,3,0,0,0,.72-.39,5.92,5.92,0,0,1,1.5-1.13c.35-.14.72-.19,1.07-.34s.25-.39,0,.06a6.68,6.68,0,0,0-.67,1.23c-.39,1.09.33,2.62-.86,3.34-.11.07,0,.25.11.18a1.9,1.9,0,0,0,.84-1.65,4.79,4.79,0,0,1,.35-2.29,4.68,4.68,0,0,0,.61-1.29A.11.11,0,0,0,33.61,9c-.4.61-1,.48-1.6.74a5.15,5.15,0,0,0-1,.87,10.91,10.91,0,0,1-1.6.84,6,6,0,0,0-1,.84c-.1.09.05.24.15.15Z" transform="translate(1.5 1.5)"/><path class="cls-5" d="M32,14.16a3.65,3.65,0,0,0,2-1,4.62,4.62,0,0,1,.49-.47,3.53,3.53,0,0,1,.59-.31,7,7,0,0,0,1.74-1.17,9.45,9.45,0,0,0-1,3,1.2,1.2,0,0,1-.29.87,2.55,2.55,0,0,0-.39.26c-.14.18-.08.44-.09.67a.91.91,0,0,1-.51.75" transform="translate(1.5 1.5)"/><path class="cls-5" d="M32,14.26a4.29,4.29,0,0,0,2-1,11.41,11.41,0,0,1,1.67-1.1c.11-.07.88-.54.84-.63s-.48,1.08-.49,1.11c-.16.45-.21.9-.33,1.36,0,.08-1.18,2.6-1.26,2.66s0,.26.11.18a1.28,1.28,0,0,0,.56-.81c.08-.26,0-.23.12-.51s.2-.18.35-.39a2,2,0,0,0,.31-.94,12,12,0,0,1,1-2.93.11.11,0,0,0-.16-.13c-.72.63-1.56.93-2.32,1.48a5.89,5.89,0,0,1-2.44,1.45c-.13,0-.08.23.06.2Z" transform="translate(1.5 1.5)"/><path class="cls-5" d="M34.81,16.66c-.05-.24.3-.33.56-.33a5.44,5.44,0,0,0,3.11-1,3.62,3.62,0,0,1,1.95-1q-1.11,1.17-2.12,2.41a1.75,1.75,0,0,0-.3.47,2.59,2.59,0,0,0-.1.56,2.87,2.87,0,0,1-1.3,2" transform="translate(1.5 1.5)"/><path class="cls-5" d="M34.91,16.68c.11-.32,2.25-.53,2.63-.69a6.55,6.55,0,0,0,1.24-.72,5.26,5.26,0,0,1,.53-.38l.28-.17q.75-.33.35,0c-.12.38-.8.89-1.07,1.2A6.86,6.86,0,0,0,38,17a2.06,2.06,0,0,0-.21.57,3.17,3.17,0,0,1-1.28,2.19c-.11.08,0,.26.11.18A3.23,3.23,0,0,0,38,18,4.32,4.32,0,0,1,39,16.1c.48-.56,1-1.11,1.48-1.64.06-.06,0-.19-.08-.18-1.26.11-2.11,1.24-3.28,1.64-.65.23-1.46.08-2.06.33-.28.12-.28.1-.36.37s.16.18.2.06Z" transform="translate(1.5 1.5)"/><path class="cls-5" d="M36.55,19.8c1-.65,2.43-.33,3.59-.76.33-.12.63-.3,1-.41a1.39,1.39,0,0,1,1,0,5.08,5.08,0,0,0-1.83,1.19,8.37,8.37,0,0,0-.49.7,6.47,6.47,0,0,1-2.38,2.08" transform="translate(1.5 1.5)"/><path class="cls-5" d="M36.6,19.89a9.81,9.81,0,0,1,2.91-.58,5.14,5.14,0,0,0,1-.32c.36-.15,1.8-.69.72-.08a4.27,4.27,0,0,0-1.38,1.27,7.36,7.36,0,0,1-2.51,2.28c-.12.06,0,.24.11.18a6.93,6.93,0,0,0,2.19-1.81c.25-.31.44-.68.7-1a5.13,5.13,0,0,1,1.81-1.17.11.11,0,0,0,0-.19c-1-.24-1.74.42-2.67.61a10.19,10.19,0,0,0-3,.6c-.12.06,0,.24.11.18Z" transform="translate(1.5 1.5)"/><path class="cls-5" d="M37.6,22.5c.76.44,1.72.14,2.58.31a6.41,6.41,0,0,1,1.71.78,2.69,2.69,0,0,0,1.8.4l-1,.08a7.36,7.36,0,0,0-2.3.42,3.7,3.7,0,0,1-.92.34,4.93,4.93,0,0,0-.64.06,3.56,3.56,0,0,0-.84.51c-.06,0-.18,0-.12-.05" transform="translate(1.5 1.5)"/><path class="cls-5" d="M37.55,22.59c1.07.47,2.23.11,3.3.58s1.73,1.05,2.85.94c.13,0,.14-.22,0-.21a12,12,0,0,0-3.12.44c-.56.2-1.17.26-1.72.45-.07,0-.89.4-.85.53,0-.13-.24-.07-.2.06l0,.06a.11.11,0,0,0,.1.08c.2,0,.24-.11.43-.2a5.31,5.31,0,0,1,1.18-.37c.45-.11.84-.33,1.29-.47a9.52,9.52,0,0,1,2.06-.31c1.11-.09-.18-.34-.6-.51s-.89-.49-1.35-.69c-1.06-.47-2.23-.09-3.28-.56-.12-.05-.23.13-.11.18Z" transform="translate(1.5 1.5)"/><path class="cls-5" d="M20.27,12.52A4.48,4.48,0,0,0,21,10.57a11.05,11.05,0,0,1,0-1.49,5.36,5.36,0,0,1,.28-.8,8.07,8.07,0,0,0,.36-2.23c.68.56.46,1.71,1,2.42a6.14,6.14,0,0,0,.46.49c.75.81.87,2,1.57,2.9,0,0,.09.09.14.06s-.06-.09,0,0" transform="translate(1.5 1.5)"/><path class="cls-5" d="M20.36,12.57A5.69,5.69,0,0,0,21.07,11a9.44,9.44,0,0,0,0-1.56c0-.76.45-1.48.56-2.23a6.66,6.66,0,0,1,.08-.7c.18-.07.39.84.41.9a3.84,3.84,0,0,0,.41,1.11,11.77,11.77,0,0,1,1,1.41c.28.55.52,1.81,1.19,2.08.08,0,.14-.06.13-.13v-.05a.11.11,0,0,0-.13-.07h0c-.13,0-.07.24.06.2,0,0-1.37-2.76-1.61-3.09A5,5,0,0,1,22.28,7a2.21,2.21,0,0,0-.54-1,.11.11,0,0,0-.18.08c-.08,1.09-.46,2-.63,3a6.28,6.28,0,0,0,0,1.11,4.37,4.37,0,0,1-.75,2.27.11.11,0,0,0,.18.11Z" transform="translate(1.5 1.5)"/><path class="cls-12" d="M24.39,25.13,17,25.21s0-.05,0-.08c0-3.67,3.34-6.68,7.37-6.68s7.37,3,7.37,6.68Z" transform="translate(1.5 1.5)"/></g></g></svg>