<svg id="Camada_1" data-name="Camada 1" xmlns="http://www.w3.org/2000/svg" viewBox="0 0 181.58 252.73"><defs><style>.cls-1{fill:#fff;}.cls-1,.cls-3,.cls-4,.cls-5{stroke:#000;}.cls-1,.cls-13,.cls-3,.cls-4,.cls-5{stroke-miterlimit:10;}.cls-1,.cls-3{stroke-width:3px;}.cls-2{fill:#e6e6e6;}.cls-3,.cls-4{fill:none;}.cls-5{fill:#505050;opacity:0.5;}.cls-13,.cls-6{fill:#4d4d4d;}.cls-7{font-size:9px;font-family:Matrix-Bold, Matrix;font-weight:700;}.cls-8{letter-spacing:-0.02em;}.cls-9{letter-spacing:-0.03em;}.cls-10{font-size:11px;font-family:Diogenes, Diogenes;}.cls-11{letter-spacing:-0.04em;}.cls-12{letter-spacing:-0.08em;}.cls-13{stroke:#4d4d4d;}</style></defs><title>japeto</title><path class="cls-1" d="M178.58,12.12v227a10.66,10.66,0,0,1-2.92,7.34l-1,1.06a10.7,10.7,0,0,1-7.78,3.35H11.8a10.76,10.76,0,0,1-6.75-2.39l-1.1-.9A10.69,10.69,0,0,1,0,239.28V13A10.69,10.69,0,0,1,4,4.66l1.08-.87a10.71,10.71,0,0,1,6.72-2.37h156.1a10.68,10.68,0,0,1,10.7,10.7Z" transform="translate(1.5 0.08)"/><path class="cls-2" d="M33.77,1.7A24.48,24.48,0,1,1,0,32.12V15.23A24.51,24.51,0,0,1,12.19,1.7Z" transform="translate(1.5 0.08)"/><path class="cls-2" d="M11.78,1.7h.41A24.51,24.51,0,0,0,0,15.23v-2A10.69,10.69,0,0,1,4,4.94l1.08-.87A10.71,10.71,0,0,1,11.78,1.7Z" transform="translate(1.5 0.08)"/><path class="cls-3" d="M0,15.23v-2A10.69,10.69,0,0,1,4,4.94l1.08-.87A10.71,10.71,0,0,1,11.78,1.7h156.1a10.68,10.68,0,0,1,10.7,10.7v227a10.66,10.66,0,0,1-2.92,7.34l-1,1.06a10.7,10.7,0,0,1-7.78,3.35H11.8a10.76,10.76,0,0,1-6.75-2.39l-1.1-.9A10.69,10.69,0,0,1,0,239.56V15.23Z" transform="translate(1.5 0.08)"/><polyline class="cls-4" points="48.36 18.36 53.19 18.36 144.71 18.23 145 18.23"/><polyline class="cls-4" points="154.72 1.23 154.4 1.77 144.71 18.23 144.56 18.48"/><path class="cls-4" d="M33.77,1.7A24.48,24.48,0,1,1,0,32.12" transform="translate(1.5 0.08)"/><path class="cls-5" d="M171.67,140.78V230.1a11.6,11.6,0,0,1-3.12,8h0a9.47,9.47,0,0,1-6.84,3H18.4a9.3,9.3,0,0,1-5.6-1.91l-1.44-1.08A11.38,11.38,0,0,1,7,229V140.78Z" transform="translate(1.5 0.08)"/><circle class="cls-4" cx="30.58" cy="225.61" r="10.08"/><circle class="cls-4" cx="62.26" cy="225.61" r="10.08"/><circle class="cls-4" cx="92.92" cy="225.61" r="10.08"/><circle class="cls-4" cx="123.58" cy="225.61" r="10.08"/><g id="Camada_2" data-name="Camada 2"><g id="Camada_1-2" data-name="Camada 1-2"><path class="cls-2" d="M60.76,235.36a9.83,9.83,0,1,1,9.83-9.83A9.83,9.83,0,0,1,60.76,235.36Z" transform="translate(1.5 0.08)"/><path class="cls-6" d="M60.76,215.72a9.82,9.82,0,1,1-9.82,9.82h0a9.83,9.83,0,0,1,9.82-9.82m0,0a9.85,9.85,0,1,0,9.85,9.85A9.85,9.85,0,0,0,60.76,215.69Z" transform="translate(1.5 0.08)"/><path class="cls-6" d="M58.61,228.19a18.35,18.35,0,0,0-.89-2.78c-.38-.93-.94-1.88-.63-2.91a4.63,4.63,0,0,1,4.37-3c2,.08,3.16,1.69,3.67,3.5a2.66,2.66,0,0,1,.07,1.46c-.13.4-.4.77-.55,1.16-.26.68-.64,1.29-.93,2-.14.31-.15.84-.36,1.1s-1.26.17-1.69.16l-1.81,0a4.42,4.42,0,0,1-.81,0c-.19,0-.48-.12-.58-.33s0-.38.06-.48c0-.4-.58-.39-.63,0s-.16.89.24,1.21,1.18.23,1.7.24l1.91,0a4.13,4.13,0,0,0,1.74-.09,1.26,1.26,0,0,0,.59-.88,6.51,6.51,0,0,1,.52-1.33,11.6,11.6,0,0,0,.53-1.1,10.17,10.17,0,0,0,.69-1.59,5.06,5.06,0,0,0-.66-3.1A4.35,4.35,0,0,0,63,219.16a5,5,0,0,0-5.65,1.68,3.46,3.46,0,0,0-.75,3.42c.22.65.54,1.27.78,1.92a18.44,18.44,0,0,1,.65,2.17c.09.39.69.23.6-.17Z" transform="translate(1.5 0.08)"/><path class="cls-6" d="M58.56,229c-.42-.06-.84.32-.56.75.17.25.5.25.77.26.57,0,1.15.06,1.71.08s1.08,0,1.61,0a5.87,5.87,0,0,0,1.44-.1c.21-.06.51-.18.52-.44s-.36-.47-.56-.59a.16.16,0,0,0-.16.27q.32.09.12.46a2.38,2.38,0,0,1-.46.06l-.6,0-1.31,0-1.31,0-.6,0-.4,0q-.37.07-.29-.4c.2,0,.28-.27.08-.3Z" transform="translate(1.5 0.08)"/><path class="cls-6" d="M58.5,230.87a1.63,1.63,0,0,0,.74,1.09,3.7,3.7,0,0,0,1.61.14c.61,0,2.42-.07,2.06-1.12-.06-.19-.37-.1-.3.08.26.77-1.8.73-2.14.73a4.34,4.34,0,0,1-.83,0c-.53-.1-.69-.5-.83-1-.06-.19-.36-.1-.3.08Z" transform="translate(1.5 0.08)"/><path class="cls-6" d="M58.35,229.87c-.42-.06-.84.32-.56.75.17.25.5.25.77.26.57,0,1.15.06,1.71.08s1.08,0,1.61,0a5.87,5.87,0,0,0,1.44-.1c.21-.06.51-.18.52-.44s-.36-.47-.56-.59a.16.16,0,0,0-.16.27q.32.09.12.46a2.38,2.38,0,0,1-.46.06l-.6,0-1.31,0-1.31,0-.6,0-.4,0q-.37.07-.29-.4c.2,0,.28-.27.08-.3Z" transform="translate(1.5 0.08)"/></g></g><g id="Camada_2-2" data-name="Camada 2"><g id="Camada_1-2-2" data-name="Camada 1-2"><path class="cls-2" d="M29,235.35a9.89,9.89,0,1,1,9.89-9.89A9.89,9.89,0,0,1,29,235.35Z" transform="translate(1.5 0.08)"/><path class="cls-6" d="M29,215.58a9.88,9.88,0,1,1-9.88,9.88h0A9.89,9.89,0,0,1,29,215.58m0,0a9.91,9.91,0,1,0,9.91,9.91A9.91,9.91,0,0,0,29,215.55Z" transform="translate(1.5 0.08)"/><path class="cls-6" d="M26.29,232.2a39.48,39.48,0,0,1,.14-4.5,3,3,0,0,0-.14-1.75c-.35-.63-.72-1.26-1.11-1.86-.13-.2-.36-.41-.46-.62-.25-.5.06-1.08.26-1.53a4.48,4.48,0,0,1,1-1.74c.68-.51,1.52,0,2.16.35s1.29.59,1.94.85l-.12-.2a1.69,1.69,0,0,1-1.17,1.27,4.81,4.81,0,0,1-2.09-.25c-.2,0-.29.27-.09.31a4.28,4.28,0,0,0,2.5.16,2,2,0,0,0,1.15-1.41.17.17,0,0,0-.11-.2c-.84-.34-1.64-.73-2.46-1.11a2,2,0,0,0-1.63-.21,2.29,2.29,0,0,0-1,1.25,6.72,6.72,0,0,0-.81,2c-.09.59.48,1,.77,1.48.43.71,1.15,1.56,1.12,2.41-.06,1.78-.27,3.53-.19,5.31,0,.21.33.21.33,0Z" transform="translate(1.5 0.08)"/><path class="cls-6" d="M26.5,219.7a3.51,3.51,0,0,0,.63-.73c.1-.16.16-.35.27-.5s.38-.23.66-.22h.52c.52.07.54.35.45.79a3.3,3.3,0,0,1-.51,1.2l.29.13c.24-.66.6-1.6,1.48-1a.7.7,0,0,1,.35.94,2.19,2.19,0,0,1-.44.85l.25.2c.18-.42.81-1.76,1.42-1,.27.35-.09,1.11-.22,1.46a2.47,2.47,0,0,1-.83,1.23c-.6.39-1.21-.06-1.69-.41-.17-.12-.33.16-.16.28.6.42,1.32.86,2,.41a3.45,3.45,0,0,0,1.18-2.07c.18-.67.25-1.13-.51-1.36s-1.23.7-1.49,1.29c-.07.15.13.35.25.2A2.58,2.58,0,0,0,31,220c.07-.54-.19-.76-.65-1-1.06-.61-1.57.44-1.88,1.29-.07.18.2.27.3.12.43-.64,1.15-2.21,0-2.46a4.75,4.75,0,0,0-.9,0,.86.86,0,0,0-.56.1,1.93,1.93,0,0,0-.34.58,3.25,3.25,0,0,1-.7.88c-.16.14.07.37.23.23Z" transform="translate(1.5 0.08)"/><path class="cls-6" d="M32.26,221.36a1.21,1.21,0,0,1,.79.37c.28.35,0,.77-.21,1.09a3.5,3.5,0,0,1-.52.55c-.5.42-1,.23-1.41-.13-.16-.13-.4.1-.23.23A1.53,1.53,0,0,0,32,224a2.5,2.5,0,0,0,1.15-.94,1.6,1.6,0,0,0,.39-1.27c-.14-.5-.72-.58-1.15-.69a.16.16,0,0,0-.09.31Z" transform="translate(1.5 0.08)"/><path class="cls-6" d="M32.58,223.43a8.16,8.16,0,0,1-.52,2.19c-.25.48-.7.65-.74,1.24-.06.79,0,1.62,0,2.41s0,1.65.06,2.47l.12-.16a9.31,9.31,0,0,1-2.69.43,2.68,2.68,0,0,0-1,.15,2,2,0,0,1-1.56,0c-.2-.07-.28.25-.09.31a2.5,2.5,0,0,0,1.23.2,1.76,1.76,0,0,0,.39-.13,2.49,2.49,0,0,1,1-.19,9.72,9.72,0,0,0,2.78-.44.17.17,0,0,0,.12-.16c0-1.57-.16-3.17-.09-4.74a.9.9,0,0,1,.23-.67c.08-.08.17-.15.24-.24a1.84,1.84,0,0,0,.29-.5,10.7,10.7,0,0,0,.48-2.1c0-.2-.27-.29-.31-.09Z" transform="translate(1.5 0.08)"/></g></g><g id="Camada_2-3" data-name="Camada 2"><g id="Camada_1-2-3" data-name="Camada 1-2"><path class="cls-2" d="M122.08,235.48a9.95,9.95,0,1,1,10-9.95A9.95,9.95,0,0,1,122.08,235.48Z" transform="translate(1.5 0.08)"/><path class="cls-6" d="M122.08,215.6a9.93,9.93,0,1,1-9.93,9.93h0a10,10,0,0,1,9.93-9.93m0,0a10,10,0,1,0,10,10A10,10,0,0,0,122.08,215.57Z" transform="translate(1.5 0.08)"/><path class="cls-6" d="M122.55,220.7c-.2.76.26,1.5.22,2.27,0,.93-.14,1.85-.18,2.78a18.32,18.32,0,0,0,0,2.69c.06.56.17,1,.77,1.17a1.08,1.08,0,0,0,1.29-.39,3.49,3.49,0,0,0,.56-2,10.66,10.66,0,0,0-.6-2.32,16.34,16.34,0,0,1-.56-2.64c-.06-.64.14-1.58-.51-2a.69.69,0,0,0-1.05.38.16.16,0,0,0,.3.08q.53-.43.74,0a.67.67,0,0,1,.16.35,3,3,0,0,1,0,.67,6.46,6.46,0,0,0,.06.87,20.3,20.3,0,0,0,.45,2.12c.18.73.5,1.45.62,2.18a2.75,2.75,0,0,1-.06,1.16,2.17,2.17,0,0,1-.53,1.12A.87.87,0,0,1,123,229a3.1,3.1,0,0,1-.14-1.12c0-.83,0-1.67,0-2.5s.11-1.51.15-2.27a3.51,3.51,0,0,0-.06-1,2.65,2.65,0,0,1-.17-1.3.16.16,0,0,0-.3-.08Z" transform="translate(1.5 0.08)"/><path class="cls-6" d="M125,226.26q1.17.95,2.38,1.84c.46.33,1,.58,1.18,1.14a3.51,3.51,0,0,1,.1.94q0,.2,0,.4t-.24.19a3.35,3.35,0,0,1-.82,0h-2.47c-.27,0-.55,0-.82,0a.83.83,0,0,1-.8-.45c-.24-.44-.47-.89-.68-1.35-.09-.18-.36,0-.27.16a7.46,7.46,0,0,0,.9,1.71c.31.35.86.24,1.27.24H128a2.12,2.12,0,0,0,.76,0c.34-.15.23-.79.21-1.08a2.19,2.19,0,0,0-.34-1.38,13.78,13.78,0,0,0-1.57-1.13q-.94-.7-1.84-1.44c-.16-.13-.38.09-.22.22Z" transform="translate(1.5 0.08)"/><path class="cls-6" d="M122.91,220.1c-.09-.07-.05-.22,0-.29a.57.57,0,0,1,.35-.16c.08,0,.13,0,.18,0a.5.5,0,0,1,0,.19,1.47,1.47,0,0,1,0,.49c0,.2.27.28.3.08a1.69,1.69,0,0,0-.07-.89c-.11-.27-.4-.24-.63-.18a.69.69,0,0,0-.53.45.5.5,0,0,0,.19.56c.16.12.32-.15.16-.27Z" transform="translate(1.5 0.08)"/><path class="cls-6" d="M124.07,223.28a4.6,4.6,0,0,1,1,2.68c0,.2.34.2.32,0a4.84,4.84,0,0,0-1.07-2.9C124.14,222.92,123.92,223.14,124.07,223.28Z" transform="translate(1.5 0.08)"/><path class="cls-6" d="M122.55,220.7c-.2.76.26,1.5.22,2.27,0,.93-.14,1.85-.18,2.78a18.32,18.32,0,0,0,0,2.69c.06.56.17,1,.77,1.17a1.08,1.08,0,0,0,1.29-.39,3.49,3.49,0,0,0,.56-2,10.66,10.66,0,0,0-.6-2.32,16.34,16.34,0,0,1-.56-2.64c-.06-.64.14-1.58-.51-2a.69.69,0,0,0-1.05.38.16.16,0,0,0,.3.08q.53-.43.74,0a.67.67,0,0,1,.16.35,3,3,0,0,1,0,.67,6.46,6.46,0,0,0,.06.87,20.3,20.3,0,0,0,.45,2.12c.18.73.5,1.45.62,2.18a2.75,2.75,0,0,1-.06,1.16,2.17,2.17,0,0,1-.53,1.12A.87.87,0,0,1,123,229a3.1,3.1,0,0,1-.14-1.12c0-.83,0-1.67,0-2.5s.11-1.51.15-2.27a3.51,3.51,0,0,0-.06-1,2.65,2.65,0,0,1-.17-1.3.16.16,0,0,0-.3-.08Z" transform="translate(1.5 0.08)"/><path class="cls-6" d="M125,226.26q1.17.95,2.38,1.84c.46.33,1,.58,1.18,1.14a3.51,3.51,0,0,1,.1.94q0,.2,0,.4t-.24.19a3.35,3.35,0,0,1-.82,0h-2.47c-.27,0-.55,0-.82,0a.83.83,0,0,1-.8-.45c-.24-.44-.47-.89-.68-1.35-.09-.18-.36,0-.27.16a7.46,7.46,0,0,0,.9,1.71c.31.35.86.24,1.27.24H128a2.12,2.12,0,0,0,.76,0c.34-.15.23-.79.21-1.08a2.19,2.19,0,0,0-.34-1.38,13.78,13.78,0,0,0-1.57-1.13q-.94-.7-1.84-1.44c-.16-.13-.38.09-.22.22Z" transform="translate(1.5 0.08)"/><path class="cls-6" d="M122.91,220.1c-.09-.07-.05-.22,0-.29a.57.57,0,0,1,.35-.16c.08,0,.13,0,.18,0a.5.5,0,0,1,0,.19,1.47,1.47,0,0,1,0,.49c0,.2.27.28.3.08a1.69,1.69,0,0,0-.07-.89c-.11-.27-.4-.24-.63-.18a.69.69,0,0,0-.53.45.5.5,0,0,0,.19.56c.16.12.32-.15.16-.27Z" transform="translate(1.5 0.08)"/><path class="cls-6" d="M124.07,223.28a4.6,4.6,0,0,1,1,2.68c0,.2.34.2.32,0a4.84,4.84,0,0,0-1.07-2.9C124.14,222.92,123.92,223.14,124.07,223.28Z" transform="translate(1.5 0.08)"/><path class="cls-6" d="M121.93,220.89a2.66,2.66,0,0,1-.17,1.3,3.25,3.25,0,0,0-.06.88c0,.79.12,1.57.16,2.36s.06,1.6,0,2.39a4.74,4.74,0,0,1-.1,1.1.83.83,0,0,1-1.29.38,2.84,2.84,0,0,1-.61-2.12,16.86,16.86,0,0,1,.65-2.34c.17-.67.35-1.35.45-2a6.52,6.52,0,0,0,.07-1,3,3,0,0,1,0-.67l.09-.25q.22-.51.81-.07a.16.16,0,0,0,.3-.08.68.68,0,0,0-.82-.49l-.08,0c-.55.19-.65.86-.66,1.36a11.63,11.63,0,0,1-.4,2.62c-.2.84-.51,1.65-.71,2.49s0,3,1.28,3a1.07,1.07,0,0,0,1.16-.69,8.17,8.17,0,0,0,.13-2.41c0-1.08-.1-2.16-.18-3.22a4.35,4.35,0,0,1,.12-1.53,2.06,2.06,0,0,0,.07-1.12.16.16,0,0,0-.3.08Z" transform="translate(1.5 0.08)"/><path class="cls-6" d="M119.61,226.14q-.91.74-1.84,1.44l-.88.64a5.08,5.08,0,0,0-.69.49,2.08,2.08,0,0,0-.33,1.28c0,.32-.15,1,.2,1.17a2,2,0,0,0,.76,0h3.29c.42,0,1,.11,1.27-.24a7.59,7.59,0,0,0,.9-1.71c.09-.18-.18-.34-.27-.16-.22.45-.44.91-.68,1.35a.83.83,0,0,1-.8.45c-.27,0-.55,0-.82,0h-2.47a3.29,3.29,0,0,1-.82,0q-.28.11-.24-.19t0-.4a3.51,3.51,0,0,1,.1-.94c.17-.56.72-.81,1.18-1.14q1.22-.89,2.38-1.84c.16-.13-.07-.35-.22-.22Z" transform="translate(1.5 0.08)"/><path class="cls-6" d="M122,220.48a.5.5,0,0,0,.19-.56.7.7,0,0,0-.53-.45c-.23-.06-.53-.09-.63.18a1.69,1.69,0,0,0-.07.89c0,.2.34.11.3-.08a1.46,1.46,0,0,1,0-.49.63.63,0,0,1,0-.19c0-.06.11,0,.18,0a.56.56,0,0,1,.35.16c.06.07.1.22,0,.29s0,.39.16.27Z" transform="translate(1.5 0.08)"/><path class="cls-6" d="M120.5,223.16a4.82,4.82,0,0,0-1.07,2.9c0,.2.29.2.32,0a4.62,4.62,0,0,1,1-2.68C120.87,223.25,120.65,223,120.5,223.16Z" transform="translate(1.5 0.08)"/><path class="cls-6" d="M121.93,220.89a2.66,2.66,0,0,1-.17,1.3,3.25,3.25,0,0,0-.06.88c0,.79.12,1.57.16,2.36s.06,1.6,0,2.39a4.74,4.74,0,0,1-.1,1.1.83.83,0,0,1-1.29.38,2.84,2.84,0,0,1-.61-2.12,16.86,16.86,0,0,1,.65-2.34c.17-.67.35-1.35.45-2a6.52,6.52,0,0,0,.07-1,3,3,0,0,1,0-.67l.09-.25q.22-.51.81-.07a.16.16,0,0,0,.3-.08.68.68,0,0,0-.82-.49l-.08,0c-.55.19-.65.86-.66,1.36a11.63,11.63,0,0,1-.4,2.62c-.2.84-.51,1.65-.71,2.49s0,3,1.28,3a1.07,1.07,0,0,0,1.16-.69,8.17,8.17,0,0,0,.13-2.41c0-1.08-.1-2.16-.18-3.22a4.35,4.35,0,0,1,.12-1.53,2.06,2.06,0,0,0,.07-1.12.16.16,0,0,0-.3.08Z" transform="translate(1.5 0.08)"/><path class="cls-6" d="M119.61,226.14q-.91.74-1.84,1.44l-.88.64a5.08,5.08,0,0,0-.69.49,2.08,2.08,0,0,0-.33,1.28c0,.32-.15,1,.2,1.17a2,2,0,0,0,.76,0h3.29c.42,0,1,.11,1.27-.24a7.59,7.59,0,0,0,.9-1.71c.09-.18-.18-.34-.27-.16-.22.45-.44.91-.68,1.35a.83.83,0,0,1-.8.45c-.27,0-.55,0-.82,0h-2.47a3.29,3.29,0,0,1-.82,0q-.28.11-.24-.19t0-.4a3.51,3.51,0,0,1,.1-.94c.17-.56.72-.81,1.18-1.14q1.22-.89,2.38-1.84c.16-.13-.07-.35-.22-.22Z" transform="translate(1.5 0.08)"/><path class="cls-6" d="M122,220.48a.5.5,0,0,0,.19-.56.7.7,0,0,0-.53-.45c-.23-.06-.53-.09-.63.18a1.69,1.69,0,0,0-.07.89c0,.2.34.11.3-.08a1.46,1.46,0,0,1,0-.49.63.63,0,0,1,0-.19c0-.06.11,0,.18,0a.56.56,0,0,1,.35.16c.06.07.1.22,0,.29s0,.39.16.27Z" transform="translate(1.5 0.08)"/><path class="cls-6" d="M120.5,223.16a4.82,4.82,0,0,0-1.07,2.9c0,.2.29.2.32,0a4.62,4.62,0,0,1,1-2.68C120.87,223.25,120.65,223,120.5,223.16Z" transform="translate(1.5 0.08)"/></g></g><g id="Camada_2-4" data-name="Camada 2"><g id="Camada_1-2-4" data-name="Camada 1-2"><path class="cls-2" d="M91.51,235.39a9.86,9.86,0,1,1,9.86-9.86A9.86,9.86,0,0,1,91.51,235.39Z" transform="translate(1.5 0.08)"/><path class="cls-6" d="M91.51,215.69a9.84,9.84,0,1,1-9.84,9.84h0a9.85,9.85,0,0,1,9.84-9.84m0,0a9.87,9.87,0,1,0,9.87,9.87A9.87,9.87,0,0,0,91.51,215.66Z" transform="translate(1.5 0.08)"/><path class="cls-6" d="M92.91,221.09c1.33-1.07,3.39-1.69,4.77-.36s1.24,3.68.92,5.5a5.45,5.45,0,0,1-.91,2.45A4.84,4.84,0,0,1,95.5,230a8.13,8.13,0,0,0-3.84,2.66c-.24.32.3.63.54.31A6.32,6.32,0,0,1,94,231.37a17.07,17.07,0,0,1,2.17-.94,4.38,4.38,0,0,0,2.74-2.88c.79-2.56,1.13-6.94-2.06-8a4.78,4.78,0,0,0-4.41,1.13c-.31.25.13.69.44.44Z" transform="translate(1.5 0.08)"/><path class="cls-6" d="M91,220.78a5,5,0,0,0-3.84-1.54,3.75,3.75,0,0,0-3,2.46,9.47,9.47,0,0,0-.28,4.82A4.45,4.45,0,0,0,86.09,230c.7.4,1.46.69,2.16,1.11a6.32,6.32,0,0,1,2,2c.22.34.76,0,.54-.31a8.36,8.36,0,0,0-3.72-3,4.64,4.64,0,0,1-2-1.46,5.6,5.6,0,0,1-.72-2.63c-.16-1.79-.18-3.92,1.27-5.22s3.57-.53,4.84.68c.29.28.73-.17.44-.44Z" transform="translate(1.5 0.08)"/></g></g><text class="cls-7" transform="translate(17.21 154.22)">O <tspan class="cls-8" x="7.56" y="0">P</tspan><tspan x="12.1" y="0">erfurado</tspan><tspan class="cls-9" x="43.61" y="0">r</tspan><tspan x="46.83" y="0">, é o deus-titã do tempo de </tspan><tspan x="0" y="10.8">vida e da mortalidade, em especial da </tspan><tspan x="0" y="21.6">morte violenta. Governou ao lado de </tspan><tspan x="0" y="32.4">Cronos e dos irmãos durante a Idade de </tspan><tspan x="0" y="43.2">Ouro.</tspan></text><text class="cls-10" transform="translate(53.17 14.3)">JÁ<tspan class="cls-11" x="11.71" y="0">P</tspan><tspan x="16.07" y="0">E</tspan><tspan class="cls-12" x="22.18" y="0">T</tspan><tspan x="28.7" y="0">O</tspan></text><g id="Camada_2-5" data-name="Camada 2"><g id="Camada_1-2-5" data-name="Camada 1-2"><polygon class="cls-13" points="24.37 6.03 33.81 6.03 29.09 19.66 24.37 33.3 19.65 19.66 14.93 6.03 24.37 6.03"/><path class="cls-6" d="M22.88,41.48c-.48,0,.37-3.79.45-4.16h-.7a6.89,6.89,0,0,0,.63,1.93c.15.3.39.58.54.88a1,1,0,0,1,0,1.24q-.34.33-.53-.07a.36.36,0,0,0-.7.19c.31,1.15,1.73.84,2.17-.09a1.62,1.62,0,0,0-.26-1.51,7.87,7.87,0,0,1-1.17-2.77.36.36,0,0,0-.7,0,35.71,35.71,0,0,0-.72,3.82c-.06.69.22,1.26,1,1.26a.36.36,0,1,0,0-.72Z" transform="translate(1.5 0.08)"/><path class="cls-6" d="M23.81,41.47a1.6,1.6,0,0,1-.3-1.18c.07-.46-.62-.65-.7-.19a2.33,2.33,0,0,0,.37,1.74C23.45,42.22,24.07,41.86,23.81,41.47Z" transform="translate(1.5 0.08)"/><path class="cls-6" d="M23.39,40.94c-.24-.27,0-.72.11-1a1.76,1.76,0,0,0,.09-1c-.11-.45-.81-.26-.7.19s-.24.92-.3,1.37a1.17,1.17,0,0,0,.29,1c.31.34.82-.17.51-.51Z" transform="translate(1.5 0.08)"/><path class="cls-6" d="M23.85,41.26A2.92,2.92,0,0,0,23.71,39c-.2-.42-.82-.06-.62.36a2.17,2.17,0,0,1,.07,1.65c-.15.44.55.63.7.19Z" transform="translate(1.5 0.08)"/><path class="cls-6" d="M23.85,41a2.28,2.28,0,0,0-.58-2.74.36.36,0,0,0-.57.44,6.45,6.45,0,0,1,.56,2.59.36.36,0,0,0,.72,0,7.34,7.34,0,0,0-.66-3l-.57.44a1.55,1.55,0,0,1,.47,1.86c-.19.42.43.79.62.36Z" transform="translate(1.5 0.08)"/><path class="cls-6" d="M22.53,42A1.56,1.56,0,0,0,24,41.94a.36.36,0,0,0-.36-.62.81.81,0,0,1-.79.05c-.42-.2-.78.42-.36.62Z" transform="translate(1.5 0.08)"/><path class="cls-6" d="M23.69,41.71l-1.33-.28c-.45-.09-.65.6-.19.7l1.33.28C23.95,42.5,24.14,41.8,23.69,41.71Z" transform="translate(1.5 0.08)"/><path class="cls-6" d="M23,41.66a2.23,2.23,0,0,0-.48-.19s0,0,0,0h0l0,0a.1.1,0,0,1,0,.06.18.18,0,0,1-.09.14.37.37,0,0,0,.13-.49A.36.36,0,0,0,22,41a.6.6,0,0,0-.17.83l0,.06a.88.88,0,0,0,.4.27,1.74,1.74,0,0,1,.33.12.36.36,0,0,0,.39-.61h0Z" transform="translate(1.5 0.08)"/><path class="cls-6" d="M22.08,40.42c-.64.32-.38,1.46.16,1.74a2.45,2.45,0,0,0,1.21.28c.39,0,.65-.46.83-.77a.36.36,0,0,0-.62-.36c-.07.11-.17.36-.3.4a1.27,1.27,0,0,1-.51-.1c-.16,0-.31-.07-.38-.23a.82.82,0,0,1,0-.26c0-.1,0-.1,0-.07.41-.21.05-.83-.36-.62Z" transform="translate(1.5 0.08)"/><path class="cls-6" d="M22.63,41.24c-.06-.79.5-1.25.72-2,.14-.44-.55-.63-.7-.19a9,9,0,0,1-.56,1,2.25,2.25,0,0,0-.2,1.14c0,.46.76.47.72,0Z" transform="translate(1.5 0.08)"/><path class="cls-6" d="M22,40.52A2.69,2.69,0,0,0,22.1,42a1.2,1.2,0,0,0,1.24.43,1.21,1.21,0,0,0,1.1-.77,1.3,1.3,0,0,0,.14-.7c0-.29-.26-.48-.28-.78,0-.46-.76-.47-.72,0a2,2,0,0,0,.24.75.58.58,0,0,1-.34.74l-.12,0c-.27,0-.63.09-.68-.24a4.73,4.73,0,0,1,0-1c0-.47-.7-.47-.72,0Z" transform="translate(1.5 0.08)"/><path class="cls-6" d="M23.76,42.22A1.08,1.08,0,0,0,24.5,41a.36.36,0,0,0-.45-.24.37.37,0,0,0-.24.45v.08a.28.28,0,0,1-.05.13.32.32,0,0,1-.17.14c-.44.14-.25.84.19.7Z" transform="translate(1.5 0.08)"/><path class="cls-6" d="M23.09,41.69c-.1,0-.2-.11-.24-.18A1.66,1.66,0,0,1,22.7,41a.37.37,0,0,0-.66-.09.55.55,0,0,0,0,.6c.26.38.88,0,.62-.36v.13L22,41.17a1.79,1.79,0,0,0,.39.92,1,1,0,0,0,.89.29.36.36,0,0,0,.24-.45.37.37,0,0,0-.45-.24Z" transform="translate(1.5 0.08)"/><path class="cls-6" d="M22.56,41.63a4.73,4.73,0,0,1,.31-3,3.59,3.59,0,0,0,.5-1.87l-.71.1a11.7,11.7,0,0,0,.94,3c.2.42.82.06.62-.36a11,11,0,0,1-.87-2.82c-.07-.4-.76-.31-.71.1.11.87-.62,1.87-.77,2.75a4.54,4.54,0,0,0,0,2.34c.16.43.86.24.7-.19Z" transform="translate(1.5 0.08)"/><path class="cls-6" d="M22,42.25a2.46,2.46,0,0,0,1.14.17.37.37,0,0,0,.36-.36.36.36,0,0,0-.36-.36,2,2,0,0,1-1-.14.36.36,0,0,0-.45.24.37.37,0,0,0,.24.45Z" transform="translate(1.5 0.08)"/><path class="cls-6" d="M23.32,41.95c-.4,0-1,0-1.16-.48a2.17,2.17,0,0,1,.1-.88,4.39,4.39,0,0,1,.91-1.49c.21-.28-.26-.55-.47-.27a4.07,4.07,0,0,0-1.08,2.56c0,.94.9,1.14,1.69,1.11.35,0,.35-.55,0-.54Z" transform="translate(1.5 0.08)"/><path class="cls-6" d="M24,41.71l0,.06,0-.21-.35.18a1.09,1.09,0,0,1-.42.18.27.27,0,0,0,0,.54,1,1,0,0,0,.5-.07.27.27,0,0,0-.14-.52l-.29.06s-.05,0,0,0l-.06-.11c-.15-.31-.62,0-.47.27a.59.59,0,0,0,.37.34,1.48,1.48,0,0,0,.61-.08l-.14-.52a.69.69,0,0,1-.36.05v.54a2.23,2.23,0,0,0,.89-.36c.27-.15.51-.33.34-.66s-.62,0-.47.27Z" transform="translate(1.5 0.08)"/></g></g></svg>