<svg id="Camada_1" data-name="Camada 1" xmlns="http://www.w3.org/2000/svg" viewBox="0 0 181.58 252.45"><defs><style>.cls-1{fill:#e6e6e6;}.cls-2,.cls-3{fill:none;}.cls-2,.cls-3,.cls-4{stroke:#000;stroke-miterlimit:10;}.cls-2{stroke-width:3px;}.cls-4{fill:#505050;opacity:0.5;}.cls-5{fill:#4d4d4d;}.cls-6{font-size:8px;font-family:Matrix-Bold, Matrix;font-weight:700;}.cls-7{letter-spacing:-0.03em;}.cls-8{letter-spacing:-0.02em;}.cls-9{font-size:10px;font-family:Diogenes, Diogenes;}.cls-10{letter-spacing:-0.13em;}.cls-11{letter-spacing:-0.08em;}.cls-12{letter-spacing:-0.03em;}</style></defs><title>tartaro</title><path class="cls-1" d="M33.77,0A24.48,24.48,0,1,1,0,30.42V13.53A24.51,24.51,0,0,1,12.19,0Z" transform="translate(1.5 1.5)"/><path class="cls-1" d="M11.78,0h.41A24.51,24.51,0,0,0,0,13.53v-2A10.69,10.69,0,0,1,4,3.24l1.08-.87A10.71,10.71,0,0,1,11.78,0Z" transform="translate(1.5 1.5)"/><path class="cls-2" d="M0,13.53v-2A10.69,10.69,0,0,1,4,3.24l1.08-.87A10.71,10.71,0,0,1,11.78,0h156.1a10.68,10.68,0,0,1,10.7,10.7v227a10.66,10.66,0,0,1-2.92,7.34l-1,1.06a10.7,10.7,0,0,1-7.78,3.35H11.8a10.76,10.76,0,0,1-6.75-2.39l-1.1-.9A10.69,10.69,0,0,1,0,237.86V13.53Z" transform="translate(1.5 1.5)"/><polyline class="cls-3" points="48.36 18.09 53.19 18.08 144.71 17.95 145 17.95"/><polyline class="cls-3" points="154.72 0.95 154.4 1.5 144.71 17.95 144.56 18.2"/><path class="cls-3" d="M33.77,0A24.48,24.48,0,1,1,0,30.42" transform="translate(1.5 1.5)"/><path class="cls-4" d="M171.67,140.78V230.1a11.6,11.6,0,0,1-3.12,8h0a9.47,9.47,0,0,1-6.84,3H18.4a9.3,9.3,0,0,1-5.6-1.91l-1.44-1.08A11.38,11.38,0,0,1,7,229V140.78Z" transform="translate(1.5 1.5)"/><circle class="cls-3" cx="30.58" cy="227.03" r="10.08"/><circle class="cls-3" cx="62.26" cy="227.03" r="10.08"/><circle class="cls-3" cx="92.92" cy="227.03" r="10.08"/><circle class="cls-3" cx="123.58" cy="227.03" r="10.08"/><g id="Camada_2" data-name="Camada 2"><g id="Camada_1-2" data-name="Camada 1-2"><path class="cls-1" d="M60.76,235.36a9.83,9.83,0,1,1,9.83-9.83A9.83,9.83,0,0,1,60.76,235.36Z" transform="translate(1.5 1.5)"/><path class="cls-5" d="M60.76,215.72a9.82,9.82,0,1,1-9.82,9.82h0a9.83,9.83,0,0,1,9.82-9.82m0,0a9.85,9.85,0,1,0,9.85,9.85A9.85,9.85,0,0,0,60.76,215.69Z" transform="translate(1.5 1.5)"/><path class="cls-5" d="M58.61,228.19a18.35,18.35,0,0,0-.89-2.78c-.38-.93-.94-1.88-.63-2.91a4.63,4.63,0,0,1,4.37-3c2,.08,3.16,1.69,3.67,3.5a2.66,2.66,0,0,1,.07,1.46c-.13.4-.4.77-.55,1.16-.26.68-.64,1.29-.93,2-.14.31-.15.84-.36,1.1s-1.26.17-1.69.16l-1.81,0a4.42,4.42,0,0,1-.81,0c-.19,0-.48-.12-.58-.33s0-.38.06-.48c0-.4-.58-.39-.63,0s-.16.89.24,1.21,1.18.23,1.7.24l1.91,0a4.13,4.13,0,0,0,1.74-.09,1.26,1.26,0,0,0,.59-.88,6.51,6.51,0,0,1,.52-1.33,11.6,11.6,0,0,0,.53-1.1,10.17,10.17,0,0,0,.69-1.59,5.06,5.06,0,0,0-.66-3.1A4.35,4.35,0,0,0,63,219.16a5,5,0,0,0-5.65,1.68,3.46,3.46,0,0,0-.75,3.42c.22.65.54,1.27.78,1.92a18.44,18.44,0,0,1,.65,2.17c.09.39.69.23.6-.17Z" transform="translate(1.5 1.5)"/><path class="cls-5" d="M58.56,229c-.42-.06-.84.32-.56.75.17.25.5.25.77.26.57,0,1.15.06,1.71.08s1.08,0,1.61,0a5.87,5.87,0,0,0,1.44-.1c.21-.06.51-.18.52-.44s-.36-.47-.56-.59a.16.16,0,0,0-.16.27q.32.09.12.46a2.38,2.38,0,0,1-.46.06l-.6,0-1.31,0-1.31,0-.6,0-.4,0q-.37.07-.29-.4c.2,0,.28-.27.08-.3Z" transform="translate(1.5 1.5)"/><path class="cls-5" d="M58.5,230.87a1.63,1.63,0,0,0,.74,1.09,3.7,3.7,0,0,0,1.61.14c.61,0,2.42-.07,2.06-1.12-.06-.19-.37-.1-.3.08.26.77-1.8.73-2.14.73a4.34,4.34,0,0,1-.83,0c-.53-.1-.69-.5-.83-1-.06-.19-.36-.1-.3.08Z" transform="translate(1.5 1.5)"/><path class="cls-5" d="M58.35,229.87c-.42-.06-.84.32-.56.75.17.25.5.25.77.26.57,0,1.15.06,1.71.08s1.08,0,1.61,0a5.87,5.87,0,0,0,1.44-.1c.21-.06.51-.18.52-.44s-.36-.47-.56-.59a.16.16,0,0,0-.16.27q.32.09.12.46a2.38,2.38,0,0,1-.46.06l-.6,0-1.31,0-1.31,0-.6,0-.4,0q-.37.07-.29-.4c.2,0,.28-.27.08-.3Z" transform="translate(1.5 1.5)"/></g></g><g id="Camada_2-2" data-name="Camada 2"><g id="Camada_1-2-2" data-name="Camada 1-2"><path class="cls-1" d="M29,235.35a9.89,9.89,0,1,1,9.89-9.89A9.89,9.89,0,0,1,29,235.35Z" transform="translate(1.5 1.5)"/><path class="cls-5" d="M29,215.58a9.88,9.88,0,1,1-9.88,9.88h0A9.89,9.89,0,0,1,29,215.58m0,0a9.91,9.91,0,1,0,9.91,9.91A9.91,9.91,0,0,0,29,215.55Z" transform="translate(1.5 1.5)"/><path class="cls-5" d="M26.29,232.2a39.48,39.48,0,0,1,.14-4.5,3,3,0,0,0-.14-1.75c-.35-.63-.72-1.26-1.11-1.86-.13-.2-.36-.41-.46-.62-.25-.5.06-1.08.26-1.53a4.48,4.48,0,0,1,1-1.74c.68-.51,1.52,0,2.16.35s1.29.59,1.94.85l-.12-.2a1.69,1.69,0,0,1-1.17,1.27,4.81,4.81,0,0,1-2.09-.25c-.2,0-.29.27-.09.31a4.28,4.28,0,0,0,2.5.16,2,2,0,0,0,1.15-1.41.17.17,0,0,0-.11-.2c-.84-.34-1.64-.73-2.46-1.11a2,2,0,0,0-1.63-.21,2.29,2.29,0,0,0-1,1.25,6.72,6.72,0,0,0-.81,2c-.09.59.48,1,.77,1.48.43.71,1.15,1.56,1.12,2.41-.06,1.78-.27,3.53-.19,5.31,0,.21.33.21.33,0Z" transform="translate(1.5 1.5)"/><path class="cls-5" d="M26.5,219.7a3.51,3.51,0,0,0,.63-.73c.1-.16.16-.35.27-.5s.38-.23.66-.22h.52c.52.07.54.35.45.79a3.3,3.3,0,0,1-.51,1.2l.29.13c.24-.66.6-1.6,1.48-1a.7.7,0,0,1,.35.94,2.19,2.19,0,0,1-.44.85l.25.2c.18-.42.81-1.76,1.42-1,.27.35-.09,1.11-.22,1.46a2.47,2.47,0,0,1-.83,1.23c-.6.39-1.21-.06-1.69-.41-.17-.12-.33.16-.16.28.6.42,1.32.86,2,.41a3.45,3.45,0,0,0,1.18-2.07c.18-.67.25-1.13-.51-1.36s-1.23.7-1.49,1.29c-.07.15.13.35.25.2A2.58,2.58,0,0,0,31,220c.07-.54-.19-.76-.65-1-1.06-.61-1.57.44-1.88,1.29-.07.18.2.27.3.12.43-.64,1.15-2.21,0-2.46a4.75,4.75,0,0,0-.9,0,.86.86,0,0,0-.56.1,1.93,1.93,0,0,0-.34.58,3.25,3.25,0,0,1-.7.88c-.16.14.07.37.23.23Z" transform="translate(1.5 1.5)"/><path class="cls-5" d="M32.26,221.36a1.21,1.21,0,0,1,.79.37c.28.35,0,.77-.21,1.09a3.5,3.5,0,0,1-.52.55c-.5.42-1,.23-1.41-.13-.16-.13-.4.1-.23.23A1.53,1.53,0,0,0,32,224a2.5,2.5,0,0,0,1.15-.94,1.6,1.6,0,0,0,.39-1.27c-.14-.5-.72-.58-1.15-.69a.16.16,0,0,0-.09.31Z" transform="translate(1.5 1.5)"/><path class="cls-5" d="M32.58,223.43a8.16,8.16,0,0,1-.52,2.19c-.25.48-.7.65-.74,1.24-.06.79,0,1.62,0,2.41s0,1.65.06,2.47l.12-.16a9.31,9.31,0,0,1-2.69.43,2.68,2.68,0,0,0-1,.15,2,2,0,0,1-1.56,0c-.2-.07-.28.25-.09.31a2.5,2.5,0,0,0,1.23.2,1.76,1.76,0,0,0,.39-.13,2.49,2.49,0,0,1,1-.19,9.72,9.72,0,0,0,2.78-.44.17.17,0,0,0,.12-.16c0-1.57-.16-3.17-.09-4.74a.9.9,0,0,1,.23-.67c.08-.08.17-.15.24-.24a1.84,1.84,0,0,0,.29-.5,10.7,10.7,0,0,0,.48-2.1c0-.2-.27-.29-.31-.09Z" transform="translate(1.5 1.5)"/></g></g><g id="Camada_2-3" data-name="Camada 2"><g id="Camada_1-2-3" data-name="Camada 1-2"><path class="cls-1" d="M122.08,235.48a9.95,9.95,0,1,1,10-9.95A9.95,9.95,0,0,1,122.08,235.48Z" transform="translate(1.5 1.5)"/><path class="cls-5" d="M122.08,215.6a9.93,9.93,0,1,1-9.93,9.93h0a10,10,0,0,1,9.93-9.93m0,0a10,10,0,1,0,10,10A10,10,0,0,0,122.08,215.57Z" transform="translate(1.5 1.5)"/><path class="cls-5" d="M122.55,220.7c-.2.76.26,1.5.22,2.27,0,.93-.14,1.85-.18,2.78a18.32,18.32,0,0,0,0,2.69c.06.56.17,1,.77,1.17a1.08,1.08,0,0,0,1.29-.39,3.49,3.49,0,0,0,.56-2,10.66,10.66,0,0,0-.6-2.32,16.34,16.34,0,0,1-.56-2.64c-.06-.64.14-1.58-.51-2a.69.69,0,0,0-1.05.38.16.16,0,0,0,.3.08q.53-.43.74,0a.67.67,0,0,1,.16.35,3,3,0,0,1,0,.67,6.46,6.46,0,0,0,.06.87,20.3,20.3,0,0,0,.45,2.12c.18.73.5,1.45.62,2.18a2.75,2.75,0,0,1-.06,1.16,2.17,2.17,0,0,1-.53,1.12A.87.87,0,0,1,123,229a3.1,3.1,0,0,1-.14-1.12c0-.83,0-1.67,0-2.5s.11-1.51.15-2.27a3.51,3.51,0,0,0-.06-1,2.65,2.65,0,0,1-.17-1.3.16.16,0,0,0-.3-.08Z" transform="translate(1.5 1.5)"/><path class="cls-5" d="M125,226.26q1.17.95,2.38,1.84c.46.33,1,.58,1.18,1.14a3.51,3.51,0,0,1,.1.94q0,.2,0,.4t-.24.19a3.35,3.35,0,0,1-.82,0h-2.47c-.27,0-.55,0-.82,0a.83.83,0,0,1-.8-.45c-.24-.44-.47-.89-.68-1.35-.09-.18-.36,0-.27.16a7.46,7.46,0,0,0,.9,1.71c.31.35.86.24,1.27.24H128a2.12,2.12,0,0,0,.76,0c.34-.15.23-.79.21-1.08a2.19,2.19,0,0,0-.34-1.38,13.78,13.78,0,0,0-1.57-1.13q-.94-.7-1.84-1.44c-.16-.13-.38.09-.22.22Z" transform="translate(1.5 1.5)"/><path class="cls-5" d="M122.91,220.1c-.09-.07-.05-.22,0-.29a.57.57,0,0,1,.35-.16c.08,0,.13,0,.18,0a.5.5,0,0,1,0,.19,1.47,1.47,0,0,1,0,.49c0,.2.27.28.3.08a1.69,1.69,0,0,0-.07-.89c-.11-.27-.4-.24-.63-.18a.69.69,0,0,0-.53.45.5.5,0,0,0,.19.56c.16.12.32-.15.16-.27Z" transform="translate(1.5 1.5)"/><path class="cls-5" d="M124.07,223.28a4.6,4.6,0,0,1,1,2.68c0,.2.34.2.32,0a4.84,4.84,0,0,0-1.07-2.9C124.14,222.92,123.92,223.14,124.07,223.28Z" transform="translate(1.5 1.5)"/><path class="cls-5" d="M122.55,220.7c-.2.76.26,1.5.22,2.27,0,.93-.14,1.85-.18,2.78a18.32,18.32,0,0,0,0,2.69c.06.56.17,1,.77,1.17a1.08,1.08,0,0,0,1.29-.39,3.49,3.49,0,0,0,.56-2,10.66,10.66,0,0,0-.6-2.32,16.34,16.34,0,0,1-.56-2.64c-.06-.64.14-1.58-.51-2a.69.69,0,0,0-1.05.38.16.16,0,0,0,.3.08q.53-.43.74,0a.67.67,0,0,1,.16.35,3,3,0,0,1,0,.67,6.46,6.46,0,0,0,.06.87,20.3,20.3,0,0,0,.45,2.12c.18.73.5,1.45.62,2.18a2.75,2.75,0,0,1-.06,1.16,2.17,2.17,0,0,1-.53,1.12A.87.87,0,0,1,123,229a3.1,3.1,0,0,1-.14-1.12c0-.83,0-1.67,0-2.5s.11-1.51.15-2.27a3.51,3.51,0,0,0-.06-1,2.65,2.65,0,0,1-.17-1.3.16.16,0,0,0-.3-.08Z" transform="translate(1.5 1.5)"/><path class="cls-5" d="M125,226.26q1.17.95,2.38,1.84c.46.33,1,.58,1.18,1.14a3.51,3.51,0,0,1,.1.94q0,.2,0,.4t-.24.19a3.35,3.35,0,0,1-.82,0h-2.47c-.27,0-.55,0-.82,0a.83.83,0,0,1-.8-.45c-.24-.44-.47-.89-.68-1.35-.09-.18-.36,0-.27.16a7.46,7.46,0,0,0,.9,1.71c.31.35.86.24,1.27.24H128a2.12,2.12,0,0,0,.76,0c.34-.15.23-.79.21-1.08a2.19,2.19,0,0,0-.34-1.38,13.78,13.78,0,0,0-1.57-1.13q-.94-.7-1.84-1.44c-.16-.13-.38.09-.22.22Z" transform="translate(1.5 1.5)"/><path class="cls-5" d="M122.91,220.1c-.09-.07-.05-.22,0-.29a.57.57,0,0,1,.35-.16c.08,0,.13,0,.18,0a.5.5,0,0,1,0,.19,1.47,1.47,0,0,1,0,.49c0,.2.27.28.3.08a1.69,1.69,0,0,0-.07-.89c-.11-.27-.4-.24-.63-.18a.69.69,0,0,0-.53.45.5.5,0,0,0,.19.56c.16.12.32-.15.16-.27Z" transform="translate(1.5 1.5)"/><path class="cls-5" d="M124.07,223.28a4.6,4.6,0,0,1,1,2.68c0,.2.34.2.32,0a4.84,4.84,0,0,0-1.07-2.9C124.14,222.92,123.92,223.14,124.07,223.28Z" transform="translate(1.5 1.5)"/><path class="cls-5" d="M121.93,220.89a2.66,2.66,0,0,1-.17,1.3,3.25,3.25,0,0,0-.06.88c0,.79.12,1.57.16,2.36s.06,1.6,0,2.39a4.74,4.74,0,0,1-.1,1.1.83.83,0,0,1-1.29.38,2.84,2.84,0,0,1-.61-2.12,16.86,16.86,0,0,1,.65-2.34c.17-.67.35-1.35.45-2a6.52,6.52,0,0,0,.07-1,3,3,0,0,1,0-.67l.09-.25q.22-.51.81-.07a.16.16,0,0,0,.3-.08.68.68,0,0,0-.82-.49l-.08,0c-.55.19-.65.86-.66,1.36a11.63,11.63,0,0,1-.4,2.62c-.2.84-.51,1.65-.71,2.49s0,3,1.28,3a1.07,1.07,0,0,0,1.16-.69,8.17,8.17,0,0,0,.13-2.41c0-1.08-.1-2.16-.18-3.22a4.35,4.35,0,0,1,.12-1.53,2.06,2.06,0,0,0,.07-1.12.16.16,0,0,0-.3.08Z" transform="translate(1.5 1.5)"/><path class="cls-5" d="M119.61,226.14q-.91.74-1.84,1.44l-.88.64a5.08,5.08,0,0,0-.69.49,2.08,2.08,0,0,0-.33,1.28c0,.32-.15,1,.2,1.17a2,2,0,0,0,.76,0h3.29c.42,0,1,.11,1.27-.24a7.59,7.59,0,0,0,.9-1.71c.09-.18-.18-.34-.27-.16-.22.45-.44.91-.68,1.35a.83.83,0,0,1-.8.45c-.27,0-.55,0-.82,0h-2.47a3.29,3.29,0,0,1-.82,0q-.28.11-.24-.19t0-.4a3.51,3.51,0,0,1,.1-.94c.17-.56.72-.81,1.18-1.14q1.22-.89,2.38-1.84c.16-.13-.07-.35-.22-.22Z" transform="translate(1.5 1.5)"/><path class="cls-5" d="M122,220.48a.5.5,0,0,0,.19-.56.7.7,0,0,0-.53-.45c-.23-.06-.53-.09-.63.18a1.69,1.69,0,0,0-.07.89c0,.2.34.11.3-.08a1.46,1.46,0,0,1,0-.49.63.63,0,0,1,0-.19c0-.06.11,0,.18,0a.56.56,0,0,1,.35.16c.06.07.1.22,0,.29s0,.39.16.27Z" transform="translate(1.5 1.5)"/><path class="cls-5" d="M120.5,223.16a4.82,4.82,0,0,0-1.07,2.9c0,.2.29.2.32,0a4.62,4.62,0,0,1,1-2.68C120.87,223.25,120.65,223,120.5,223.16Z" transform="translate(1.5 1.5)"/><path class="cls-5" d="M121.93,220.89a2.66,2.66,0,0,1-.17,1.3,3.25,3.25,0,0,0-.06.88c0,.79.12,1.57.16,2.36s.06,1.6,0,2.39a4.74,4.74,0,0,1-.1,1.1.83.83,0,0,1-1.29.38,2.84,2.84,0,0,1-.61-2.12,16.86,16.86,0,0,1,.65-2.34c.17-.67.35-1.35.45-2a6.52,6.52,0,0,0,.07-1,3,3,0,0,1,0-.67l.09-.25q.22-.51.81-.07a.16.16,0,0,0,.3-.08.68.68,0,0,0-.82-.49l-.08,0c-.55.19-.65.86-.66,1.36a11.63,11.63,0,0,1-.4,2.62c-.2.84-.51,1.65-.71,2.49s0,3,1.28,3a1.07,1.07,0,0,0,1.16-.69,8.17,8.17,0,0,0,.13-2.41c0-1.08-.1-2.16-.18-3.22a4.35,4.35,0,0,1,.12-1.53,2.06,2.06,0,0,0,.07-1.12.16.16,0,0,0-.3.08Z" transform="translate(1.5 1.5)"/><path class="cls-5" d="M119.61,226.14q-.91.74-1.84,1.44l-.88.64a5.08,5.08,0,0,0-.69.49,2.08,2.08,0,0,0-.33,1.28c0,.32-.15,1,.2,1.17a2,2,0,0,0,.76,0h3.29c.42,0,1,.11,1.27-.24a7.59,7.59,0,0,0,.9-1.71c.09-.18-.18-.34-.27-.16-.22.45-.44.91-.68,1.35a.83.83,0,0,1-.8.45c-.27,0-.55,0-.82,0h-2.47a3.29,3.29,0,0,1-.82,0q-.28.11-.24-.19t0-.4a3.51,3.51,0,0,1,.1-.94c.17-.56.72-.81,1.18-1.14q1.22-.89,2.38-1.84c.16-.13-.07-.35-.22-.22Z" transform="translate(1.5 1.5)"/><path class="cls-5" d="M122,220.48a.5.5,0,0,0,.19-.56.7.7,0,0,0-.53-.45c-.23-.06-.53-.09-.63.18a1.69,1.69,0,0,0-.07.89c0,.2.34.11.3-.08a1.46,1.46,0,0,1,0-.49.63.63,0,0,1,0-.19c0-.06.11,0,.18,0a.56.56,0,0,1,.35.16c.06.07.1.22,0,.29s0,.39.16.27Z" transform="translate(1.5 1.5)"/><path class="cls-5" d="M120.5,223.16a4.82,4.82,0,0,0-1.07,2.9c0,.2.29.2.32,0a4.62,4.62,0,0,1,1-2.68C120.87,223.25,120.65,223,120.5,223.16Z" transform="translate(1.5 1.5)"/></g></g><g id="Camada_2-4" data-name="Camada 2"><g id="Camada_1-2-4" data-name="Camada 1-2"><path class="cls-1" d="M91.51,235.39a9.86,9.86,0,1,1,9.86-9.86A9.86,9.86,0,0,1,91.51,235.39Z" transform="translate(1.5 1.5)"/><path class="cls-5" d="M91.51,215.69a9.84,9.84,0,1,1-9.84,9.84h0a9.85,9.85,0,0,1,9.84-9.84m0,0a9.87,9.87,0,1,0,9.87,9.87A9.87,9.87,0,0,0,91.51,215.66Z" transform="translate(1.5 1.5)"/><path class="cls-5" d="M92.91,221.09c1.33-1.07,3.39-1.69,4.77-.36s1.24,3.68.92,5.5a5.45,5.45,0,0,1-.91,2.45A4.84,4.84,0,0,1,95.5,230a8.13,8.13,0,0,0-3.84,2.66c-.24.32.3.63.54.31A6.32,6.32,0,0,1,94,231.37a17.07,17.07,0,0,1,2.17-.94,4.38,4.38,0,0,0,2.74-2.88c.79-2.56,1.13-6.94-2.06-8a4.78,4.78,0,0,0-4.41,1.13c-.31.25.13.69.44.44Z" transform="translate(1.5 1.5)"/><path class="cls-5" d="M91,220.78a5,5,0,0,0-3.84-1.54,3.75,3.75,0,0,0-3,2.46,9.47,9.47,0,0,0-.28,4.82A4.45,4.45,0,0,0,86.09,230c.7.4,1.46.69,2.16,1.11a6.32,6.32,0,0,1,2,2c.22.34.76,0,.54-.31a8.36,8.36,0,0,0-3.72-3,4.64,4.64,0,0,1-2-1.46,5.6,5.6,0,0,1-.72-2.63c-.16-1.79-.18-3.92,1.27-5.22s3.57-.53,4.84.68c.29.28.73-.17.44-.44Z" transform="translate(1.5 1.5)"/></g></g><text class="cls-6" transform="translate(17.21 155.01)">A personificação do Mundo Inferio<tspan class="cls-7" x="110.94" y="0">r</tspan><tspan x="113.8" y="0">. Nele </tspan><tspan x="0" y="9.6">estão as cavernas e as grutas mais profundas </tspan><tspan x="0" y="19.2">e os cantos mais terríveis do reino de Hades, </tspan><tspan x="0" y="28.8">para onde todos os inimigos do Olimpo são </tspan><tspan x="0" y="38.4">enviados. Lá os titãs são aprisionados por </tspan><tspan x="0" y="48">Zeus, Hades e </tspan><tspan class="cls-8" x="44.86" y="48">P</tspan><tspan x="48.89" y="48">oseidon após a Titanomaquia.</tspan></text><text class="cls-9" transform="translate(52.17 14.26)"><tspan class="cls-10">T</tspan><tspan x="5.42" y="0">Á</tspan><tspan class="cls-11" x="11.78" y="0">R</tspan><tspan class="cls-10" x="16.6" y="0">T</tspan><tspan x="22.02" y="0">A</tspan><tspan class="cls-12" x="28.39" y="0">R</tspan><tspan x="33.71" y="0">O</tspan></text><g id="Camada_2-5" data-name="Camada 2"><g id="Camada_1-2-5" data-name="Camada 1-2"><path class="cls-5" d="M22.51,37.41c-.27-1.58-1.62-2.38-3-3a13.21,13.21,0,0,1-5.27-3.47,6.5,6.5,0,0,1-1.51-3.79,9.41,9.41,0,0,1,.9-3.55,18.23,18.23,0,0,0,1-6.92.52.52,0,0,0-.87-.36,3.49,3.49,0,0,1-1.55,1.08l.63.63a14.11,14.11,0,0,0,.31-7.89l-.93.39a15,15,0,0,1,3,7.64c.24,2.77-.76,5.32-.87,8-.19,5.23,4.68,7,9,7.46.65.07.64-.94,0-1-2.46-.29-5.21-.76-6.9-2.77-2-2.41-.78-5.52-.38-8.26a15.74,15.74,0,0,0-3-11.6.51.51,0,0,0-.93.38,13.08,13.08,0,0,1-.31,7.36.51.51,0,0,0,.63.63,4.48,4.48,0,0,0,2-1.35l-.85-.36a19.71,19.71,0,0,1-1.37,7.64,7,7,0,0,0,.14,5.62,9.8,9.8,0,0,0,4.13,4.21c1.58.9,4.58,1.45,4.94,3.54.11.64,1.09.37,1-.27Z" transform="translate(1.5 1.5)"/><path class="cls-5" d="M23.5,33c0-4.85-.11-9.7,0-14.54,0-1.14.14-2.29.12-3.43a2.54,2.54,0,0,0-.43-1.69c-1.07-1.22-1.85.41-2.79.69l.58.75,4.14-6.82h-.87L27.77,15l.8-.62c-.82-.77-2.31-1.66-3.2-.42A4.23,4.23,0,0,0,25,16.13Q25,18.06,24.87,20a29.37,29.37,0,0,0,0,3.54c.09,1.13.39,2.23.46,3.36.13,2.18-.53,4,.9,5.87.39.51,1.27,0,.87-.51-1.17-1.58-.72-3.07-.73-4.87,0-1.45-.44-2.88-.5-4.34s.06-3,.13-4.42l.11-2.48c0-.67-.14-1,.54-1.35s.74-.1,1.24.36a.51.51,0,0,0,.8-.62L25.11,7.44a.51.51,0,0,0-.87,0l-4.16,6.81a.51.51,0,0,0,.58.75c.43-.13.63-.43,1-.61s.74-.21.94.46a4.83,4.83,0,0,1,0,1.32c-.07,1.91-.1,3.81-.11,5.72,0,3.7,0,7.41,0,11.11a.51.51,0,0,0,1,0Z" transform="translate(1.5 1.5)"/><path class="cls-5" d="M26.83,33.21c3.72-.56,7.61-1.94,7.51-6.36-.06-2.52-1.16-4.89-1.13-7.42.06-3,1.68-5.69,3.2-8.19L35.47,11l0,7.64,1-.13a3.78,3.78,0,0,0-1.61-2,.51.51,0,0,0-.69.18c-1,2.22-.08,4.28.77,6.4a9.42,9.42,0,0,1-1.1,8.8,5.66,5.66,0,0,1-3,2.59c-1.22.36-2.62.17-3.73.91a2,2,0,0,0-.17,3.38l.39-.93a13.72,13.72,0,0,0-5.46-.68l.49.37V37c.15-.64-.83-.91-1-.27a1.61,1.61,0,0,0,0,1,.51.51,0,0,0,.49.37,13.06,13.06,0,0,1,5.19.64c.57.19.87-.63.39-.93q-.71-1.61.85-1.95a6.43,6.43,0,0,1,1.39-.24,10.2,10.2,0,0,0,1.22-.19,5.5,5.5,0,0,0,2-1,9.78,9.78,0,0,0,2.82-4.1,9.47,9.47,0,0,0,.77-5.94C35.92,22,34,19.66,35,17.15l-.69.18a2.62,2.62,0,0,1,1.13,1.41.51.51,0,0,0,1-.13l0-7.64a.51.51,0,0,0-.95-.26,24.59,24.59,0,0,0-2.94,6.08,12.91,12.91,0,0,0,.1,6.37c.51,2.33,1.37,5.23-.64,7.1-1.44,1.35-3.62,1.67-5.49,2-.65.1-.37,1.08.27,1Z" transform="translate(1.5 1.5)"/></g></g></svg>