<svg xmlns="http://www.w3.org/2000/svg" viewBox="0 0 189 189"><defs><style>.cls-1{fill:#e6e6e6;}.cls-2{fill:#4d4d4d;}</style></defs><title>afrodite </title><g id="Camada_2" data-name="Camada 2"><g id="Camada_1-2" data-name="Camada 1"><path class="cls-1" d="M94.5,188.85A94.35,94.35,0,1,1,188.85,94.5,94.46,94.46,0,0,1,94.5,188.85Z"/><path class="cls-2" d="M94.5.29A94.21,94.21,0,1,1,.29,94.5,94.32,94.32,0,0,1,94.5.29m0-.29A94.5,94.5,0,1,0,189,94.5,94.5,94.5,0,0,0,94.5,0Z"/><path class="cls-2" d="M91.58,163.93c1.2-16.47-10.26-29.89-22.66-39.18S40.59,108.23,34.6,93.05c-5.42-13.71-2.63-30.73,8.26-41,5.51-5.19,13.63-9,21.29-7,7,1.81,12.15,8,11.65,15.3-.53,7.71,11.47,7.67,12,0,1-13.81-10.64-25.78-24-27.51-15.07-2-29.49,7.62-37,20.2a51.12,51.12,0,0,0-4.51,41.18c4.73,14.51,15.9,24,28.12,32.28,12.88,8.77,30.44,19.5,29.14,37.42-.56,7.7,11.44,7.67,12,0Z"/><path class="cls-2" d="M116.67,164.36c-1.43-15.77,12.21-26.63,23.81-34.78,12-8.42,24.37-17,30.31-30.92,11.06-26-2.68-63-33.54-66-15.8-1.52-32.08,11.41-30.63,28,.66,7.63,12.67,7.71,12,0-.63-7.28,4.29-13.57,11.27-15.59,7.6-2.2,15.84,1.45,21.44,6.51,11,10,14.14,26.7,9.22,40.45-5.54,15.5-21.57,23.29-33.82,32.72s-23.53,23.12-22,39.52c.69,7.63,12.7,7.7,12,0Z"/></g></g></svg>