<svg xmlns="http://www.w3.org/2000/svg" viewBox="0 0 189 189"><defs><style>.cls-1{fill:#e6e6e6;}.cls-2,.cls-3{fill:#4d4d4d;}.cls-3{stroke:#4d4d4d;stroke-miterlimit:10;stroke-width:1.27px;}</style></defs><title>Ares</title><g id="Camada_2" data-name="Camada 2"><g id="Camada_1-2" data-name="Camada 1"><path class="cls-1" d="M94.5,188.86A94.36,94.36,0,1,1,188.85,94.5,94.46,94.46,0,0,1,94.5,188.86Z"/><path class="cls-2" d="M94.5.29A94.21,94.21,0,1,1,.29,94.5,94.32,94.32,0,0,1,94.5.29m0-.29A94.5,94.5,0,1,0,189,94.5,94.5,94.5,0,0,0,94.5,0Z"/><polygon class="cls-3" points="94.82 49.1 87.37 49.14 91.03 35.1 94.69 21.07 98.48 35.07 102.27 49.07 94.82 49.1"/><polygon class="cls-3" points="138.74 95.39 138.58 87.94 152.68 91.36 166.77 94.78 152.84 98.81 138.9 102.84 138.74 95.39"/><polygon class="cls-3" points="48.77 94.78 48.93 102.23 34.84 98.81 20.74 95.39 34.68 91.36 48.61 87.34 48.77 94.78"/><polygon class="cls-3" points="94.84 141.07 102.29 141.11 98.48 155.11 94.67 169.1 91.03 155.06 87.39 141.02 94.84 141.07"/><path class="cls-1" d="M93,147.74A52.74,52.74,0,1,1,145.74,95,52.8,52.8,0,0,1,93,147.74Z"/><path class="cls-2" d="M93,44.52A50.48,50.48,0,1,1,42.52,95,50.54,50.54,0,0,1,93,44.52M93,40a55,55,0,1,0,55,55A55,55,0,0,0,93,40Z"/><circle class="cls-1" cx="94.5" cy="95.5" r="3.24"/><path class="cls-2" d="M94.5,94.52a1,1,0,1,1-1,1,1,1,0,0,1,1-1m0-4.52a5.5,5.5,0,1,0,5.5,5.5A5.5,5.5,0,0,0,94.5,90Z"/></g></g></svg>