<svg xmlns="http://www.w3.org/2000/svg" viewBox="0 0 189 189"><defs><style>.cls-1{fill:#e6e6e6;}.cls-2{fill:#4d4d4d;}.cls-3{fill:none;stroke:#4d4d4d;stroke-miterlimit:10;stroke-width:2px;}</style></defs><title>Artemis</title><g id="Camada_2" data-name="Camada 2"><g id="Camada_1-2" data-name="Camada 1"><path class="cls-1" d="M94.5,188.86A94.36,94.36,0,1,1,188.86,94.5,94.46,94.46,0,0,1,94.5,188.86Z"/><path class="cls-2" d="M94.5.29A94.21,94.21,0,1,1,.29,94.5,94.32,94.32,0,0,1,94.5.29m0-.29A94.5,94.5,0,1,0,189,94.5,94.5,94.5,0,0,0,94.5,0Z"/><path class="cls-2" d="M73.66,22.93a32.72,32.72,0,0,0,14.67,3c4.62-.2,9.13-1.48,13.76-1.62,11.48-.34,22.76,9.22,28.38,18.41,3.4,5.56,6.78,11.19,8.36,17.58,1.71,6.92,1,13.66,1,20.68,0,8.84,5.83,19.11,16,17.75,3.77-.5,3.82-6.51,0-6-7.46,1-10-6.6-10-12.65.06-5.73.49-11.27-.38-17-1.66-10.94-7.9-23.16-15.4-31.3-5.67-6.16-15.43-12.2-23.82-13.28C96,17.22,86.8,22.13,76.69,17.75c-3.51-1.52-6.57,3.65-3,5.18Z"/><path class="cls-2" d="M66,172.5c10.19-2.78,17.93,2.32,27.79,3.27,8.73.84,19.15-3.71,26.13-8.69,4.54-3.24,8-7.93,11.41-12.29a55.32,55.32,0,0,0,8.59-14.42c2.26-5.94,3-12.12,3.67-18.38.64-5.89,3.71-14.72,11.47-12.52,3.72,1.06,5.31-4.73,1.6-5.79-9.79-2.78-17.32,5.8-18.66,14.73-1,6.92-1.29,13.75-3.87,20.36s-7.34,12.38-12,17.79c-6.65,7.8-19.26,14.91-29.88,12.94C88,168.73,84,167,79.79,166.12a32.64,32.64,0,0,0-15.42.6c-3.72,1-2.14,6.81,1.6,5.79Z"/><path class="cls-3" d="M65,167"/><line class="cls-3" x1="75" y1="20" x2="34" y2="87"/><line class="cls-3" x1="64.42" y1="168.23" x2="34" y2="86"/></g></g></svg>