<svg xmlns="http://www.w3.org/2000/svg" viewBox="0 0 189 189"><defs><style>.cls-1{fill:#e6e6e6;}.cls-2,.cls-4{fill:#4d4d4d;}.cls-3,.cls-5{fill:none;}.cls-3,.cls-4,.cls-5{stroke:#4d4d4d;stroke-miterlimit:10;}.cls-3{stroke-width:10px;}.cls-4,.cls-5{stroke-width:2.52px;}</style></defs><title>Atenas</title><g id="Camada_2" data-name="Camada 2"><g id="Camada_1-2" data-name="Camada 1"><path class="cls-1" d="M94.5,188.86A94.36,94.36,0,1,1,188.86,94.5,94.46,94.46,0,0,1,94.5,188.86Z"/><path class="cls-2" d="M94.5.29A94.21,94.21,0,1,1,.29,94.5,94.32,94.32,0,0,1,94.5.29m0-.29A94.5,94.5,0,1,0,189,94.5,94.5,94.5,0,0,0,94.5,0Z"/><line class="cls-3" x1="94" y1="73" x2="94" y2="162"/><polygon class="cls-4" points="94.19 81.07 79.37 81.14 86.65 53.23 93.93 25.31 101.46 53.16 109 81 94.19 81.07"/><line class="cls-5" x1="110.5" y1="68.5" x2="126.5" y2="62.5"/><line class="cls-5" x1="114.5" y1="77.5" x2="132.5" y2="81.5"/><line class="cls-5" x1="109.5" y1="88.5" x2="121.5" y2="100.5"/><line class="cls-5" x1="76.5" y1="68.5" x2="60.5" y2="62.5"/><line class="cls-5" x1="72.5" y1="77.5" x2="54.5" y2="81.5"/><line class="cls-5" x1="77.5" y1="88.5" x2="65.5" y2="100.5"/></g></g></svg>