<svg xmlns="http://www.w3.org/2000/svg" viewBox="0 0 189 189"><defs><style>.cls-1{fill:#e6e6e6;}.cls-2{fill:#4d4d4d;}.cls-3{fill:none;stroke:#4d4d4d;stroke-miterlimit:10;stroke-width:8.63px;}</style></defs><title>Atlas</title><g id="Camada_2" data-name="Camada 2"><g id="Camada_1-2" data-name="Camada 1"><path class="cls-1" d="M94.5,188.85A94.35,94.35,0,1,1,188.85,94.5,94.46,94.46,0,0,1,94.5,188.85Z"/><path class="cls-2" d="M94.5.29A94.21,94.21,0,1,1,.29,94.5,94.32,94.32,0,0,1,94.5.29m0-.29A94.5,94.5,0,1,0,189,94.5,94.5,94.5,0,0,0,94.5,0Z"/><ellipse class="cls-3" cx="79.75" cy="84.25" rx="60.75" ry="57.75"/><line class="cls-3" x1="100.5" y1="154.5" x2="59.5" y2="91.5"/><path class="cls-3" d="M127.5,149.5c0,6.63-12.37,12-19,12s-5-5.37-5-12a12,12,0,0,1,24,0Z"/><line class="cls-3" x1="97.22" y1="149.16" x2="85.22" y2="177.16"/></g></g></svg>