<svg xmlns="http://www.w3.org/2000/svg" viewBox="0 0 163 163"><defs><style>.cls-1{fill:#e6e6e6;}.cls-2{fill:#4d4d4d;}.cls-3{fill:#ccc;}.cls-4{fill:none;stroke:#666;stroke-miterlimit:10;}</style></defs><title>chaos</title><g id="Camada_2" data-name="Camada 2"><g id="Camada_1-2" data-name="Camada 1"><path class="cls-1" d="M81.5,162.5a81,81,0,1,1,81-81A81.09,81.09,0,0,1,81.5,162.5Z"/><path class="cls-2" d="M81.5,1A80.5,80.5,0,1,1,1,81.5,80.59,80.59,0,0,1,81.5,1m0-1A81.5,81.5,0,1,0,163,81.5,81.5,81.5,0,0,0,81.5,0Z"/><path class="cls-3" d="M24.59,55.59a1.5,1.5,0,0,0,0-3,1.5,1.5,0,0,0,0,3Z"/><path class="cls-4" d="M24.5,57.5"/><path class="cls-2" d="M80.38,103.87c1.43-3.24,1.27-5.91.44-9.32q-.4-1.31-.73-2.65-1.35-3.59,3.82-3.12c1.55.86,2.82,4,3.54,5.53,4.64,9.85-2.1,19.71-11.52,23.46-4.47,1.78-9.53,1.85-14.27,2.11-5.07.28-10.24.33-15.18-1-5.2-1.41-8.88-4.16-12.42-8.12-3.23-3.6-7.2-6.36-9.06-10.89a53.43,53.43,0,0,1-3.86-27.5c.65-5.23,3.3-9.7,5.62-14.33,2-4.07,4.1-8.2,7.49-11.34C47.74,34.18,70.19,31.1,87.59,34.4l-.72-5.48c-14.67,6.56-31.1,9.45-42.39,21.84A50.43,50.43,0,0,0,34.33,67.64C33,71.28,31.85,75.4,32.11,79.31c.21,3.31,1.68,6.4,2.62,9.54,3.76,12.61,15.84,25.5,30.12,22.61,5.94-1.2,13.38-4,15.59-10.23a12.59,12.59,0,0,0,.19-7.93c-.44-1.39-1.91-2.81-2.16-4.14-.77-4.06,3.54-1.72,5.35-1,3.58,1.44,5.14-4.36,1.6-5.79-4.21-1.69-9.62-2.51-12.52,1.9-3.5,5.31,3.34,8.93,2.15,14.13-1.65,7.23-15.45,9-20.83,6.08A29.06,29.06,0,0,1,40.71,88c-.85-3-2.34-6-2.55-9.15-.24-3.6,1.15-7.69,2.49-11A43.4,43.4,0,0,1,52,51.78c10.58-9.43,25.29-12,37.92-17.68,2.31-1,1.72-5-.72-5.48-18.82-3.56-39.75-.32-55.57,11C25.95,45,22,53.54,18.14,61.86,14.34,70,13.94,80,15.32,88.8a62.06,62.06,0,0,0,4.56,14.29c2,4.67,5.51,7,8.82,10.63,6.65,7.37,13.68,11.35,23.72,12.16,16.44,1.33,39.58-2.42,42.69-22.35,1.14-7.35-3.77-20.06-12-21.63a7.57,7.57,0,0,0-8.7,4.67c-1.81,4.72,2.64,10,.77,14.27-1.55,3.5,3.62,6.56,5.18,3Z"/><path class="cls-2" d="M81.55,59.85c-1.41,3.53-.37,6.51.57,10a14.24,14.24,0,0,1,.69,3q-2.79,3.88-4.9.72a21.44,21.44,0,0,1-3.58-6C70.12,57.89,78.07,48,87,44.68c4.59-1.68,9.84-1.92,14.68-2.28,5-.37,10.12-.41,15,1,5.25,1.54,8.56,4.62,12.26,8.45,3,3.11,6.43,5.18,8.27,9.21a53.52,53.52,0,0,1,4.92,27.43c-.43,5.26-2.9,9.82-5.05,14.53-1.9,4.15-3.8,8.33-7.06,11.62-12.9,13-35.43,17-52.84,14.29l.72,5.48c13.93-6.83,29.76-10.26,40.59-22.17A49.84,49.84,0,0,0,129.08,93.9,34.91,34.91,0,0,0,131,83.84c0-3.74-1.6-7-2.78-10.42a34.81,34.81,0,0,0-11.63-16.89c-5.48-4.64-11.3-7.12-18.59-5.64C92.05,52.09,84.62,55,82.16,61a12.34,12.34,0,0,0-.63,7.41c.36,1.53,1.54,2.8,1.91,4.22q2.13,2-1.67,3.3a25.68,25.68,0,0,1-2.75-.9c-3.64-1.31-5.21,4.48-1.6,5.79,4.24,1.53,9.51,2.23,12.39-2.09,3.55-5.33-3-8.59-2.58-13.68.67-7.73,15.08-10.13,20.6-7.46a29,29,0,0,1,14.15,16c1,3,2.54,5.93,2.89,9,.4,3.62-.84,7.7-2.06,11.09a43.25,43.25,0,0,1-10.7,16.45c-10.24,9.85-24.81,12.94-37.25,19-2.19,1.07-1.82,5.1.72,5.48,19,2.91,39.62-1.06,55.16-12.85,7.7-5.84,11.44-14.89,15.05-23.59,3.39-8.15,3.26-18.52,1.43-27.08a59.36,59.36,0,0,0-5.2-14c-2.12-4.2-5.63-6.29-8.85-9.62-7.13-7.36-14.62-11.15-25-11.41-9-.23-20.1.39-28,5.17-6.66,4-12.57,11.39-13.12,19.4-.51,7.36,5,20,13.52,20.58A7.59,7.59,0,0,0,88.47,76c1.53-5-3-9.93-1.14-14.59,1.43-3.59-4.37-5.14-5.79-1.6Z"/></g></g></svg>