<svg xmlns="http://www.w3.org/2000/svg" viewBox="0 0 163 163"><defs><style>.cls-1{fill:#e6e6e6;}.cls-2{fill:#4d4d4d;}.cls-3{fill:#ccc;}.cls-4{fill:none;stroke:#666;stroke-miterlimit:10;}.cls-5{fill:#666;}</style></defs><title>Ativo 6</title><g id="Camada_2" data-name="Camada 2"><g id="Camada_1-2" data-name="Camada 1"><path class="cls-1" d="M81.5,162.5a81,81,0,1,1,81-81A81.09,81.09,0,0,1,81.5,162.5Z"/><path class="cls-2" d="M81.5,1A80.5,80.5,0,1,1,1,81.5,80.59,80.59,0,0,1,81.5,1m0-1A81.5,81.5,0,1,0,163,81.5,81.5,81.5,0,0,0,81.5,0Z"/><path class="cls-3" d="M30.59,55.59a1.5,1.5,0,0,0,0-3,1.5,1.5,0,0,0,0,3Z"/><path class="cls-4" d="M30.5,57.5"/><path class="cls-3" d="M83.79,102.36c1.53-2.47.54-5.64-.27-8.42s-1.24-6.26.95-8.17c1.75-1.52,4.55-1.25,6.48,0a14.2,14.2,0,0,1,4.28,5.41c1.67,3.13,3.16,6.51,3.11,10.06a16.53,16.53,0,0,1-1.92,7.08,25.63,25.63,0,0,1-17.87,13.51,50.46,50.46,0,0,1-5.36.62c-5.52.44-11.09.89-16.59.23s-11-2.52-15.16-6.18c-3-2.6-5.13-6-8.14-8.53a18.9,18.9,0,0,1-2.93-2.65,12.69,12.69,0,0,1-1.59-3.05c-2-4.91-4-9.9-4.69-15.17a59.58,59.58,0,0,1-.25-8.07c.06-3.9.12-7.86,1.26-11.6a50.9,50.9,0,0,1,3.63-8c2.43-4.8,4.6-9.87,8.3-13.77a34,34,0,0,1,7.33-5.59,71.11,71.11,0,0,1,50-8.56c-11.13,5.12-23.56,7.57-33.73,14.41A46,46,0,0,0,41.56,74.3a17.35,17.35,0,0,0-.45,5c.22,2.54,1.32,4.9,2.1,7.33a53.8,53.8,0,0,0,2.25,7c1.38,2.89,3.7,5.19,6,7.44,3,2.94,6.12,6,10.11,7.24,5,1.57,10.38.13,15.17-1.92a15.76,15.76,0,0,0,4.7-2.78,9.24,9.24,0,0,0,1.82-10.72c-1-1.88-2.7-3.67-2.36-5.77.31-1.89,2.3-3.13,4.21-3.24a12.83,12.83,0,0,1,5.53,1.37"/><path class="cls-5" d="M85.08,103.11c1.26-2.85,1-5.16.29-8.16q-.4-1.31-.73-2.65Q82.87,87,91,87.72c1.67,1.12,2.93,4.06,3.77,5.83,5.1,10.74-2,21.63-12.42,25.67-4.61,1.8-9.78,1.9-14.67,2.16-5.2.28-10.51.31-15.58-1.06C46.63,118.84,42.7,116,39,111.81c-3.45-3.85-7.45-6.68-9.44-11.56a54.86,54.86,0,0,1-3.91-27.9c.66-5.52,3.38-10.2,5.83-15.08,2.1-4.19,4.24-8.4,7.72-11.64C53,32.71,76.08,29.56,94,32.95l-.36-2.74C79.11,36.7,62.71,39.55,51.55,51.81A48.53,48.53,0,0,0,41.77,68c-1.26,3.5-2.44,7.5-2.17,11.27.23,3.17,1.67,6.14,2.57,9.15C45.69,100.24,57,112.7,70.45,110c5.4-1.08,12.43-3.52,14.55-9.18a11,11,0,0,0,.19-7.13c-.43-1.31-1.7-2.52-2-3.79-1.6-6.6,4.21-4.34,7-3.2,1.79.72,2.57-2.18.8-2.89-3.52-1.41-8.51-2.6-10.95,1.36-2.81,4.57,3.56,8.75,2.42,13.62-1.93,8.21-16.8,10.35-23,7A30.67,30.67,0,0,1,45.26,88.37c-.88-3.09-2.34-6.13-2.58-9.35-.29-3.83,1.1-8.06,2.52-11.61A44.77,44.77,0,0,1,56.91,50.72c10.72-9.56,25.44-12.2,38.23-17.92a1.51,1.51,0,0,0-.36-2.74c-18.46-3.49-38.92-.23-54.42,10.82C33,46.16,29.2,54.59,25.44,62.62c-3.63,7.76-4,17.4-2.67,25.79a60.82,60.82,0,0,0,4.56,14.29c1.83,4.35,5.35,6.53,8.44,10,6.38,7.07,13,10.95,22.66,11.72,15.55,1.25,38.52-2,41.24-21.25.91-6.47-3.49-18.55-10.94-19.79a6.08,6.08,0,0,0-6.93,3.81c-1.88,4.82,2.78,9.72.69,14.45-.77,1.75,1.81,3.28,2.59,1.51Z"/><path class="cls-3" d="M81.44,62.65c-1.44,2.52-.34,5.66.57,8.41s1.47,6.21-.66,8.19c-1.7,1.58-4.5,1.41-6.48.2a14.2,14.2,0,0,1-4.47-5.25C68.64,71.13,67,67.8,67,64.26a16.53,16.53,0,0,1,1.66-7.14A25.63,25.63,0,0,1,86,43a50.46,50.46,0,0,1,5.33-.81c5.5-.64,11.05-1.28,16.58-.82S119,43.47,123.28,47c3,2.49,5.34,5.81,8.44,8.23a18.9,18.9,0,0,1,3,2.54,12.69,12.69,0,0,1,1.7,3c2.19,4.84,4.39,9.75,5.22,15a59.58,59.58,0,0,1,.54,8.06c.08,3.9.16,7.86-.85,11.63A50.9,50.9,0,0,1,138,103.6c-2.26,4.88-4.24,10-7.81,14.05a34,34,0,0,1-7.13,5.85,71.11,71.11,0,0,1-49.69,10.34c10.94-5.51,23.28-8.4,33.19-15.6a46,46,0,0,0,18.08-29,17.35,17.35,0,0,0,.28-5c-.31-2.53-1.5-4.85-2.35-7.25a53.8,53.8,0,0,0-2.5-6.94c-1.48-2.84-3.88-5.06-6.24-7.22-3.08-2.83-6.33-5.75-10.36-6.87-5-1.4-10.38.24-15.09,2.45a15.76,15.76,0,0,0-4.6,2.94,9.24,9.24,0,0,0-1.44,10.78c1.05,1.84,2.83,3.57,2.56,5.68-.24,1.9-2.19,3.21-4.09,3.39A12.83,12.83,0,0,1,75.23,80"/><path class="cls-5" d="M80,62.25c-1.32,3.29-.3,5.94.57,9.21a14.83,14.83,0,0,1,.74,3.36q-4.22,6.1-7.46,1.78A24.33,24.33,0,0,1,70,70.29c-4.7-10.55,3.67-21.48,13.57-25.05,4.72-1.71,10.1-2,15.08-2.33,5.14-.38,10.39-.39,15.38,1.06,5.5,1.6,9,4.82,12.93,8.83,3.09,3.19,6.61,5.36,8.51,9.51a55.2,55.2,0,0,1,5.13,28.19c-.45,5.54-3,10.32-5.26,15.29-2,4.27-3.94,8.53-7.29,11.92-13.31,13.44-36.34,17.42-54.3,14.68l.36,2.74c13.79-6.76,29.57-10.14,40.29-21.93A48.08,48.08,0,0,0,124.64,95.5a33.58,33.58,0,0,0,1.86-9.66c0-3.59-1.59-6.71-2.72-10-2.42-7.07-5.49-11.36-11.24-16.23-5.07-4.29-10.39-6.6-17.13-5.26-5.47,1.09-12.8,3.75-15,9.46A11,11,0,0,0,80,70.05c.33,1.47,1.3,2.5,1.76,3.86q2.87,3.11-3.37,5.5a25.68,25.68,0,0,1-2.75-.9c-1.82-.66-2.6,2.24-.8,2.89,3.54,1.28,8.19,2.28,10.7-1.4,3.08-4.52-3.18-8.33-2.79-12.93.77-9,16.27-12,22.85-8.75a30.58,30.58,0,0,1,14.83,16.88c1,3.05,2.55,6,2.92,9.25.44,3.84-.79,8.08-2.09,11.69a44.78,44.78,0,0,1-11.09,17.11c-10.37,10-25,13.11-37.56,19.28a1.51,1.51,0,0,0,.36,2.74c18.61,2.84,38.85-1.13,54-12.7,7.41-5.66,11.06-14.65,14.52-23.05,3.19-7.78,3-17.78,1.28-25.92a57.8,57.8,0,0,0-5-13.61c-2.06-4.08-5.47-6.07-8.61-9.31-6.85-7.08-13.94-10.72-24-11-15.37-.38-38.08,3.71-39.63,23.07-.52,6.54,4.43,18.42,12,19.08C89.2,82.87,81,67.75,82.89,63c.72-1.79-2.18-2.57-2.89-.8Z"/></g></g></svg>