<svg xmlns="http://www.w3.org/2000/svg" viewBox="0 0 189 189"><defs><style>.cls-1{fill:#e6e6e6;}.cls-2{fill:#4d4d4d;}</style></defs><title>crio</title><g id="Camada_2" data-name="Camada 2"><g id="Camada_1-2" data-name="Camada 1"><path class="cls-1" d="M94.5,188.86A94.36,94.36,0,1,1,188.85,94.5,94.46,94.46,0,0,1,94.5,188.86Z"/><path class="cls-2" d="M94.5.29A94.21,94.21,0,1,1,.29,94.5,94.32,94.32,0,0,1,94.5.29m0-.29A94.5,94.5,0,1,0,189,94.5,94.5,94.5,0,0,0,94.5,0Z"/><path class="cls-2" d="M94,33.76A60.24,60.24,0,1,1,33.76,94,60.31,60.31,0,0,1,94,33.76M94,27a67,67,0,1,0,67,67A67,67,0,0,0,94,27Z"/><polygon class="cls-2" points="66.81 86.66 54.08 92.19 57.44 78.72 48.25 68.33 62.09 67.36 69.13 55.41 74.33 68.27 87.88 71.28 77.25 80.2 78.57 94.01 66.81 86.66"/><path class="cls-2" d="M68.87,58.95l3.7,9.15.62,1.53L74.8,70l9.63,2.14-7.56,6.34-1.27,1.06.16,1.64L76.71,91l-8.37-5.23-1.4-.88-1.51.66-9,3.93,2.38-9.57.4-1.6-1.09-1.24-6.53-7.39L61.37,69,63,68.87l.84-1.42,5-8.5m.53-7.08-8.24,14L45,67,55.71,79.15,51.79,94.9l14.89-6.46L80.44,97,78.89,80.87,91.32,70.44,75.48,66.92l-6.08-15Z"/><polygon class="cls-2" points="70.71 130.48 63.04 132.12 66.4 125.03 62.47 118.23 70.25 119.24 75.5 113.4 76.95 121.12 84.12 124.3 77.23 128.06 76.42 135.87 70.71 130.48"/><path class="cls-2" d="M75,115.33l1,5.49.17.92.85.38,5.1,2.26-4.9,2.67-.82.45-.1.93L75.72,134l-4.06-3.84-.68-.64-.91.2-5.46,1.17,2.39-5,.4-.84-.47-.81-2.8-4.83,5.54.72.93.12.62-.7L75,115.33M76,111.46l-6.14,6.83-9.11-1.18,4.6,7.95-3.94,8.3,9-1.92,6.68,6.31.95-9.14,8.06-4.4-8.4-3.73-1.69-9Z"/><polygon class="cls-2" points="132.73 119.33 130.5 120.5 130.93 118.02 129.12 116.26 131.62 115.9 132.73 113.64 133.84 115.9 136.33 116.26 134.53 118.02 134.96 120.5 132.73 119.33"/><path class="cls-2" d="M132.73,114.29l.79,1.61.13.27.3,0,1.77.26-1.28,1.25-.21.21.05.3.3,1.76-1.58-.83-.27-.14-.27.14-1.58.83.3-1.76.05-.3-.21-.21-1.28-1.25,1.77-.26.3,0,.13-.27.79-1.61m0-1.29-1.3,2.64-2.91.42,2.11,2.06-.5,2.9,2.61-1.37,2.61,1.37-.5-2.9,2.11-2.06-2.91-.42-1.3-2.64Z"/><polygon class="cls-2" points="109.46 138.43 104.73 140.92 105.64 135.65 101.81 131.92 107.1 131.16 109.46 126.37 111.83 131.16 117.11 131.92 113.29 135.65 114.19 140.92 109.46 138.43"/><path class="cls-2" d="M109.46,127.73l1.68,3.41.28.57.63.09,3.76.55L113.09,135l-.46.44.11.63.64,3.74L110,138l-.56-.3-.56.3-3.36,1.77.64-3.74.11-.63-.46-.44-2.72-2.65,3.76-.55.63-.09.28-.57,1.68-3.41m0-2.73-2.77,5.6-6.18.9,4.47,4.36L103.93,142l5.53-2.91L115,142l-1.06-6.16,4.47-4.36-6.18-.9-2.77-5.6Z"/></g></g></svg>