<svg xmlns="http://www.w3.org/2000/svg" viewBox="0 0 163 163"><defs><style>.cls-1{fill:#e6e6e6;}.cls-2{fill:#4d4d4d;}.cls-3{fill:#666;}.cls-4{fill:gray;stroke:#666;stroke-miterlimit:10;stroke-width:1.7px;}</style></defs><title>Ativo 13</title><g id="Camada_2" data-name="Camada 2"><g id="Camada_1-2" data-name="Camada 1"><path class="cls-1" d="M81.5,162.88A81.38,81.38,0,1,1,162.88,81.5,81.47,81.47,0,0,1,81.5,162.88Z"/><path class="cls-2" d="M81.5.25A81.25,81.25,0,1,1,.25,81.5,81.34,81.34,0,0,1,81.5.25m0-.25A81.5,81.5,0,1,0,163,81.5,81.5,81.5,0,0,0,81.5,0Z"/><path class="cls-3" d="M56.09,39.13c2,7.55.69,16.25,5.07,23.11,1.51,2.37,3.59,3.88,5.78,5.54,4.66,3.54,5.22,8.1,4.36,13.6a29.23,29.23,0,0,1-6.18,13.82c-2.1,2.63-4.44,5-5.95,8.06-3.3,6.69-2.68,14.42-2,21.6.25,2.51,4.2,2.53,4,0-.46-4.63-1-9.42-.22-14.05s3-8,6-11.6c4.83-5.92,8.1-12.3,8.65-20,.5-7.06-1.71-11-7.17-15.2-8.27-6.32-6.12-16.84-8.46-25.88-.64-2.46-4.45-1.42-3.81,1.05Z"/><path class="cls-3" d="M105.29,123.08c-1-7.39,1.85-13.89-2.95-20.43C97.1,95.5,89,91.88,90.25,81.55c1.12-9.26,8.19-15.93,12.42-23.81,3.62-6.74,4.27-13.59,1.2-20.65-1-2.33-4.42-.32-3.41,2,4.59,10.56-2.63,18.81-8,27.17-3.9,6-7.18,13-6.11,20.39.95,6.55,5.35,10.49,9.77,14.91,3,3,5.32,5.88,5.55,10.32.21,4.13-.72,8.1-.15,12.25.34,2.51,4.15,1.44,3.81-1.05Z"/><path class="cls-2" d="M67.13,51.36l-.23-.1a2,2,0,0,0-2.7.71c-1.32,2.82,1.4,5,3.3,6.81C71.91,63,78,66.58,78.08,73.43c0,2.54,4,2.55,4,0a38.39,38.39,0,0,0-1.35-9.72c-.56-2.08-4.18-1.74-3.88.53l.76,5.7c.32,2.44,4.08,2.61,4,0l-.41-8.24a2,2,0,0,0-4,0,81.49,81.49,0,0,0,.75,13.58c.32,2.39,3.65,1.48,3.88-.53a112.7,112.7,0,0,0,.74-11.55h-4c.23,4.16.29,8.3.18,12.46-.07,2.55,3.87,2.54,4,0a54.17,54.17,0,0,1,1.79-12.1L80.61,63a38.35,38.35,0,0,1-1.16,8.16c-.62,2.47,3.15,3.51,3.81,1.05A49.61,49.61,0,0,1,86.72,63l-3.61-1.52-2.55,7.84c-.8,2.46,2.91,3.38,3.81,1.05a54.3,54.3,0,0,1,5.75-10.94l-3.41-2-3.85,7c-1.26,2.28,1.93,4,3.41,2l5.91-8-3.41-2-2.87,4.6c-1.16,1.86,1.67,4.17,3.1,2.39l4.57-5.66-3.3-1.92L88.63,60c-.72,1.82,2.07,3.39,3.3,1.92a23.21,23.21,0,0,0,5.19-10.53,2,2,0,0,0-1.91-2.5L65.9,48.53A2,2,0,0,0,64,51a5.27,5.27,0,0,0,3.16,3.9,2,2,0,0,0,2-3.41,8.13,8.13,0,0,0-2.64-1.33c-1.83-.66-3.41,2-1.92,3.3A17.26,17.26,0,0,0,72,57.34c1.77.44,3.55-2,1.92-3.3a9.49,9.49,0,0,0-2.74-1.75,2,2,0,0,0-2.39,3.1,20.14,20.14,0,0,0,6.76,4.9,2,2,0,0,0,2-3.41L72.6,53.36c-1.93-1.38-3.76,1.51-2.39,3.1L76,63.23l2.79-2.79L72.94,53.7c-1.67-1.93-4.45.88-2.79,2.79A74.22,74.22,0,0,0,77.62,64a2,2,0,0,0,3.3-1.92,18.52,18.52,0,0,0-5.76-9.41l-2.39,3.1a37.63,37.63,0,0,1,6.06,5.45c1.52,1.67,4.25-.48,3.1-2.39a43.33,43.33,0,0,0-5.44-7.27c-1.5-1.63-4.37.52-3.1,2.39a51.8,51.8,0,0,0,7.63,9c1.15,1.08,3.53.4,3.37-1.4a27.55,27.55,0,0,0-1.91-8.2L78.67,54.4l2.83,6.94c.81,2,3.8,1.84,3.88-.53a28.54,28.54,0,0,0-1.12-9.14c-.71-2.49-4.24-1.42-3.81,1.05l1.17,6.75c.29,1.68,2.86,1.9,3.61.47a11.65,11.65,0,0,0,1.5-6.62c-.1-1.83-2.74-2.85-3.68-1-1.29,2.53-.73,4.74,1.68,6.27,1.9,1.2,4-1.55,2.39-3.1a17.64,17.64,0,0,0-9.75-4.94l-.53,3.88a58.07,58.07,0,0,0,15.94-.22l-1.92-3.3a32.76,32.76,0,0,0-5.41,6.18c-1.38,2,1.49,3.66,3.1,2.39l6.21-4.86-3.3-1.92A12.74,12.74,0,0,1,89,57l3.3,1.92.91-4.19a2,2,0,0,0-3.3-1.92,33.9,33.9,0,0,0-11.2,32.94c.9,4.37,1.73,8.42,1.34,12.94-.34,3.92-1.19,7.8-1.28,11.74-.06,2.8.78,4.45-.94,6.76s-2.66,1.27-5.27.94a9.1,9.1,0,0,0-5.7.82c-1.82.92-.87,3.65,1,3.68q10.58.21,21.1-.63l-.53-3.88A59.8,59.8,0,0,1,76.2,119.3l.53,3.88a22.45,22.45,0,0,1,17.07.36l1-3.68c-5.86.48-12-3-12.79-9.21l-3.88.53a30.75,30.75,0,0,0,3.15,9.63l3.41-2a28.66,28.66,0,0,0-4.23-5.43,2,2,0,0,0-2.79,0l-6,5.3c-1.58,1.4.13,3.67,1.92,3.3l6.63-1.37c1.87-.39,1.9-3.44,0-3.81a19.13,19.13,0,0,0-11.27.95,2,2,0,0,0,.53,3.88q12.61.66,25.23.6l-1.91-2.5c-1,3.21-21.68-2.3-24.65-2.85-2.49-.46-3.55,3.35-1.05,3.81,7.06,1.31,14.17,3,21.29,3.91,3.49.43,7.1-.08,8.23-3.82a2,2,0,0,0-1.91-2.5q-12.63.06-25.23-.6l.53,3.88a15.44,15.44,0,0,1,9.17-.95v-3.81l-6.63,1.37,1.92,3.3,6-5.3H77.66a24.61,24.61,0,0,1,3.61,4.63c1.33,2.19,4.57.26,3.41-2a27.72,27.72,0,0,1-2.75-8.68c-.33-2.18-4.16-1.69-3.88.53,1.06,8.3,8.46,13.83,16.74,13.16,1.72-.14,3-2.82,1-3.68a26.34,26.34,0,0,0-20.12-.76c-2,.74-1.81,3.87.53,3.88A65.1,65.1,0,0,0,89.53,122c2.16-.43,1.7-4.06-.53-3.88q-10.54.84-21.1.63l1,3.68c4.13-2.09,9.62,3,13.1-1.71,1.82-2.48.87-5.62.77-8.41-.15-4.25.75-8.43,1.19-12.64.85-8.1-2.67-15.54-2-23.56A30.14,30.14,0,0,1,92.74,55.63l-3.3-1.92-.91,4.19c-.38,1.74,2,3.59,3.3,1.92a21.76,21.76,0,0,0,3.45-6.06c.78-2.07-1.95-3-3.3-1.92L85.77,56.7l3.1,2.39a28.28,28.28,0,0,1,4.79-5.38c1.65-1.45-.18-3.56-1.92-3.3a54.1,54.1,0,0,1-14.89.08c-2.19-.28-2.72,3.53-.53,3.88a14.27,14.27,0,0,1,8,3.92l2.39-3.1-.27-.86-3.68-1a6.48,6.48,0,0,1-1,4.62l3.61.47-1.17-6.75-3.81,1.05a25.22,25.22,0,0,1,1,8.09l3.88-.53-2.83-6.94C81.53,51,77.71,52,78.67,54.4a23.83,23.83,0,0,1,1.77,7.15l3.37-1.4a47.13,47.13,0,0,1-7-8.21l-3.1,2.39a38.53,38.53,0,0,1,4.83,6.47l3.1-2.39a42.7,42.7,0,0,0-6.86-6.07c-1.82-1.3-4.06,1.62-2.39,3.1a14.7,14.7,0,0,1,4.74,7.67l3.3-1.92a74.22,74.22,0,0,1-7.48-7.51l-2.79,2.79L76,63.23c1.67,1.93,4.43-.87,2.79-2.79L73,53.67l-2.39,3.1,4.92,3.52,2-3.41a17.69,17.69,0,0,1-6-4.28l-2.39,3.1,1.94,1.13L73,53.53a13,13,0,0,1-5.64-2.84L65.47,54l1.69.93,2-3.41L67.81,50l-1.91,2.5,29.31.37-1.91-2.5a19.12,19.12,0,0,1-4.18,8.78L92.44,61l1.64-4.13c.71-1.8-2.09-3.43-3.3-1.92L86.2,60.66l3.1,2.39,2.87-4.6c1.38-2.21-1.93-4-3.41-2l-5.91,8,3.41,2,3.85-7a2,2,0,0,0-3.41-2,59,59,0,0,0-6.15,11.88l3.81,1.05,2.55-7.84c.69-2.1-2.61-3.54-3.61-1.52a54.75,54.75,0,0,0-3.86,10.17l3.81,1.05A43.29,43.29,0,0,0,84.56,63c.08-2.24-3.32-2.67-3.88-.53a58.86,58.86,0,0,0-1.93,13.15h4c.11-4.16.05-8.3-.18-12.46-.14-2.52-3.92-2.56-4,0a112.7,112.7,0,0,1-.74,11.55l3.88-.53a75.19,75.19,0,0,1-.61-12.53h-4l.41,8.24h4l-.76-5.7-3.88.53a34.29,34.29,0,0,1,1.2,8.67h4a16,16,0,0,0-4.28-10.52,49.92,49.92,0,0,0-5.13-4.85c-.74-.65-4.76-4.64-5-4.1l-2.7.71.23.1c2.3,1,4.32-2.38,2-3.41Z"/><path class="cls-2" d="M72,55.82a39.46,39.46,0,0,0,8.39,1c2.62,0,2.45-3.64,0-4-2.62-.33-5.22-.77-7.81-1.3a2,2,0,0,0-1.05,3.81l4.82,1.53c2.43.77,3.47-3,1.05-3.81l-4.82-1.53-1.05,3.81c2.94.6,5.89,1.07,8.86,1.44v-4A34.33,34.33,0,0,1,73,52c-2.48-.55-3.54,3.26-1.05,3.81Z"/><path class="cls-2" d="M64.29,124.66c8.54-.45,17.07-.84,25.62-.67v-4a179.12,179.12,0,0,1-25.54,1.14l.53,3.88a83.57,83.57,0,0,1,18.27-.7c5.11.36,10,.81,15-.4l-1.52-3.61-3.55.9a2,2,0,0,0,0,4c2.28,0,5-.16,5.24-3,.2-2.22-1.6-3.8-3.53-4.45-9.12-3.1-20.73-1.29-30.15-1.22A2,2,0,0,0,62.76,118a15.88,15.88,0,0,0-.49,3.37l3.88-.53c.1.25,10.44-.59,11.56-.62,4.32-.14,8.64-.22,13-.25,2.54,0,2.55-4,0-4-7.4,0-14.82.18-22.21.65-3.12.2-7.83.91-6.12,5.22a2,2,0,0,0,3.88-.53l.35-2.31-1.91,1.45,14.83-.1c4.58,0,9.08.77,13.6.83v4a11.63,11.63,0,0,0,5.55-1.44c2-1.06.6-4.12-1.52-3.61-5.82,1.4-11.63.26-17.52.07a87.46,87.46,0,0,0-15.76,1c-2.27.34-1.62,3.82.53,3.88A179.12,179.12,0,0,0,89.92,124c2.46-.29,2.61-3.9,0-4-8.55-.17-17.08.22-25.62.67-2.53.13-2.55,4.09,0,4Z"/><path class="cls-2" d="M71.77,116l-.06.21,2.43-1.38-.28-.06,1.18,2.9c1.3-2.75,6.16-5.63,8.41-7.6l-2.79-2.79-8.59,8,2.79,2.79c4.27-5.25,8.34-10.78,7.85-17.88h-4c.55,5,1,20.83,8.5,20.21a2,2,0,0,0,1.71-3,36.4,36.4,0,0,1-5.37-14.77l-3.88.53c2.06,6.94,5.42,13.45,12.77,15.69,2.21.67,3.36-2.43,1.52-3.61A18.55,18.55,0,0,1,85.85,104L82,105.07a26.18,26.18,0,0,0,11.67,15.68c2.22,1.39,4-1.91,2-3.41-3.63-2.78-7.13-5.89-9.16-10.07s-2.6-9-3.17-13.52c-.25-2-3.5-2.95-3.88-.53A61.39,61.39,0,0,0,78.77,106l3.88-.53A45.07,45.07,0,0,1,82.15,95c.16-2.57-3.69-2.48-4,0a89.93,89.93,0,0,1-2,12.06,14.62,14.62,0,0,1-2,5.15c-1.95,2.68-4.5,2-7.41,2.61-5.7,1.12-6.12,3.42-6.8,8.73a2,2,0,0,0,2,2q19.26-.43,38.48.87a2,2,0,0,0,2-2,15.86,15.86,0,0,0-15.76-14.65c-2.54,0-2.55,3.93,0,4a11.86,11.86,0,0,1,11.81,10.69l2-2q-19.22-1.29-38.48-.87l2,2c.82-6.4,4.93-3.9,9.11-5.48A9.59,9.59,0,0,0,78,113.63c3.1-5.42,3.51-12.54,4.16-18.63h-4a49.53,49.53,0,0,0,.64,11.53c.37,2.2,4,1.69,3.88-.53a56.24,56.24,0,0,1,.58-11.73l-3.88-.53c.66,5.28,1.31,10.69,3.71,15.51s6.39,8.28,10.58,11.49l2-3.41A22.06,22.06,0,0,1,85.85,104c-.67-2.45-4.46-1.42-3.81,1.05a22.69,22.69,0,0,0,10,13.69l1.52-3.61c-5.94-1.81-8.37-7.43-10-12.93-.6-2-4.18-1.77-3.88.53a41,41,0,0,0,5.91,16.76l1.71-3c-2.92.24-4.31-14.15-4.55-16.26-.27-2.47-4.13-2.57-4,0,.42,6-3.1,10.66-6.69,15.08-1.58,1.94.9,4.57,2.79,2.79l8.59-8c1.87-1.75-.9-4.46-2.79-2.79-2.69,2.35-7.49,5.16-9,8.4a2,2,0,0,0,1.18,2.9l.28.06a2,2,0,0,0,2.43-1.38l.06-.21c.72-2.45-3.09-3.49-3.81-1.05Z"/><path class="cls-2" d="M82.35,98.52l.41-13.36c.12-3.95-.77-9.82,1.45-13.1,1.62-2.39,4.18-4.13,5.9-6.51a32,32,0,0,0,4.4-8.92,2,2,0,0,0-1.38-2.43,55.4,55.4,0,0,0-8.25-.83c-2.55-.06-2.53,3.84,0,4l7,.31v-4a37.74,37.74,0,0,1-16.56-2.77c-2.36-1-3.38,2.87-1.05,3.81a40.23,40.23,0,0,0,17.61,2.91,2,2,0,0,0,0-4l-7-.31v4a47.21,47.21,0,0,1,7.2.69l-1.38-2.43a27.67,27.67,0,0,1-6.81,11.13c-2,2-3.88,3.59-4.53,6.4-.81,3.51-.42,7.51-.53,11.09l-.44,14.32c-.08,2.54,3.87,2.54,4,0Z"/><path class="cls-3" d="M54.86,36.8l.7,3.28A2,2,0,0,0,59.37,39l-.7-3.28a2,2,0,1,0-3.81,1.05Z"/><path class="cls-3" d="M59.91,42.35l-.62-4.29a2,2,0,0,0-2.43-1.38,2,2,0,0,0-1.38,2.43l.62,4.29a2,2,0,0,0,2.43,1.38,2,2,0,0,0,1.38-2.43Z"/><path class="cls-3" d="M55.4,41.88a40.48,40.48,0,0,0,1.71,8.43c.77,2.41,4.59,1.38,3.81-1.05a35.58,35.58,0,0,1-1.57-7.38c-.25-2.51-4.2-2.53-4,0Z"/><path class="cls-3" d="M53.79,38.46a127.18,127.18,0,0,0,3.88,14.85c.79,2.41,4.6,1.38,3.81-1.05A127.18,127.18,0,0,1,57.6,37.41c-.49-2.49-4.3-1.44-3.81,1.05Z"/><path class="cls-3" d="M57.81,50.33c-.94,6.45,3.46,11.14,7.31,15.77,1.63,2,4.41-.85,2.79-2.79-2.69-3.23-7-7.29-6.29-11.92.36-2.49-3.45-3.56-3.81-1.05Z"/><path class="cls-3" d="M99.86,37.27v1.32a2,2,0,1,0,4,0V37.27a2,2,0,1,0-4,0Z"/><rect class="cls-4" x="46.5" y="32" width="65.88" height="6.59"/><rect class="cls-4" x="47.82" y="122.91" width="65.88" height="6.59"/><path class="cls-2" d="M81.15,76.42a13.58,13.58,0,0,1,.47-3.52,1.5,1.5,0,0,0-2.89-.8,16.9,16.9,0,0,0-.58,4.31,1.5,1.5,0,0,0,3,0Z"/><path class="cls-2" d="M81.28,76.27q.09.56,0,0V76q0-.48,0-1c0-.6.07-1.19.15-1.79a1.51,1.51,0,0,0-1.5-1.5,1.54,1.54,0,0,0-1.5,1.5,18.82,18.82,0,0,0-.16,2.34,4,4,0,0,0,.37,2.2c1,1.63,3.62.13,2.59-1.51Z"/><path class="cls-2" d="M78.08,73.33a27,27,0,0,0,.22,3.9l2.95-.4a5.69,5.69,0,0,1,.05-3l-2.95-.4,0,4.11h3a22.55,22.55,0,0,1-.18-2.33,1.5,1.5,0,0,0-3,0,15.39,15.39,0,0,0-.07,2,1.5,1.5,0,0,0,3,0V74.81c0-2-2.78-1.87-3,0A12.15,12.15,0,0,0,78,76.93a1.51,1.51,0,0,0,2.95.4,7.6,7.6,0,0,0,.32-1.16l-2.95-.4a18.11,18.11,0,0,0,.43,4.29c.41,1.89,3.31,1.09,2.89-.8a14.54,14.54,0,0,1-.33-3.49c0-1.65-2.62-2.09-2.95-.4a7.6,7.6,0,0,1-.32,1.16l2.95.4a12.15,12.15,0,0,1,.07-2.12h-3v2.42h3a15.39,15.39,0,0,1,.07-2h-3a22.55,22.55,0,0,0,.18,2.33c.24,1.85,3,2,3,0l0-4.11a1.51,1.51,0,0,0-2.95-.4,9,9,0,0,0-.05,4.59c.39,1.6,3.17,1.31,2.95-.4a27,27,0,0,1-.22-3.9,1.5,1.5,0,0,0-3,0Z"/></g></g></svg>