<svg xmlns="http://www.w3.org/2000/svg" viewBox="0 0 189 189"><defs><style>.cls-1{fill:#e6e6e6;}.cls-2{fill:#4d4d4d;}</style></defs><title>céos</title><g id="Camada_2" data-name="Camada 2"><g id="Camada_1-2" data-name="Camada 1"><path class="cls-1" d="M94.5,188.85A94.35,94.35,0,1,1,188.86,94.5,94.46,94.46,0,0,1,94.5,188.85Z"/><path class="cls-2" d="M94.5.29A94.21,94.21,0,1,1,.29,94.5,94.32,94.32,0,0,1,94.5.29m0-.29A94.5,94.5,0,1,0,189,94.5,94.5,94.5,0,0,0,94.5,0Z"/><path class="cls-2" d="M77.5,59.2c20,0,36.3,14.94,36.3,33.3s-16.29,33.3-36.3,33.3S41.2,110.86,41.2,92.5,57.48,59.2,77.5,59.2m0-7.2C53.48,52,34,70.13,34,92.5S53.48,133,77.5,133,121,114.87,121,92.5,101.52,52,77.5,52Z"/><path class="cls-2" d="M112.5,59.2c20,0,36.3,14.94,36.3,33.3s-16.29,33.3-36.3,33.3S76.2,110.86,76.2,92.5s16.29-33.3,36.3-33.3m0-7.2C88.48,52,69,70.13,69,92.5S88.48,133,112.5,133,156,114.87,156,92.5,136.52,52,112.5,52Z"/><path class="cls-2" d="M94,21c40.81,0,74,33,74,73.51S134.81,168,94,168,20,135,20,94.5,53.19,21,94,21m0-3C51.47,18,17,52.25,17,94.5S51.47,171,94,171s77-34.25,77-76.5S136.53,18,94,18Z"/></g></g></svg>