<svg xmlns="http://www.w3.org/2000/svg" viewBox="0 0 189 189"><defs><style>.cls-1{fill:#e6e6e6;}.cls-2{fill:#4d4d4d;}</style></defs><title>Demeter</title><g id="Camada_2" data-name="Camada 2"><g id="Camada_1-2" data-name="Camada 1"><path class="cls-1" d="M94.5,188.86A94.36,94.36,0,1,1,188.85,94.5,94.46,94.46,0,0,1,94.5,188.86Z"/><path class="cls-2" d="M94.5.29A94.21,94.21,0,1,1,.29,94.5,94.32,94.32,0,0,1,94.5.29m0-.29A94.5,94.5,0,1,0,189,94.5,94.5,94.5,0,0,0,94.5,0Z"/><path class="cls-2" d="M94.13,165.5c-19.13,0-37.18-4.62-50.82-13-12.83-7.89-20.14-18.13-20.76-29H165.71c-.62,10.85-7.94,21.09-20.76,29C131.3,160.88,113.25,165.5,94.13,165.5Z"/><path class="cls-2" d="M164.07,125c-1.19,9.76-8.15,19-19.91,26.2-13.41,8.25-31.18,12.8-50,12.8s-36.62-4.54-50-12.8C32.33,144,25.37,134.76,24.18,125H164.07m3.18-3H21c0,24.69,33,45,73.13,45s73.13-20.31,73.13-45Z"/><path class="cls-2" d="M49.78,128.94c4.69-6.38,7.32-12.31,5.27-20.24-2.13-8.23-7.92-15.11-7.93-23.92a24.31,24.31,0,0,1,4.23-13.69c1.91-2.83,4.41-5.34,5.75-8.54,2.64-6.32-1.69-9.61-4.2-15-.81-1.75-3.4-.23-2.59,1.51,1.51,3.24,4.56,5.69,4.55,9.42,0,3.9-3.09,6.9-5.24,9.9a27.79,27.79,0,0,0-5.49,16.39c0,6.13,2.51,11.45,5,16.91,1.83,4,3.78,8.28,3.78,12.8,0,5.06-2.83,9-5.7,12.93-1.15,1.56,1.46,3.05,2.59,1.51Z"/><path class="cls-2" d="M52.36,71.67c4.62-4,9.55,5.69,14.34,6,4.28.28,7.23-3.11,9.1-6.52.93-1.69-1.66-3.21-2.59-1.51-1.44,2.62-3.91,6.48-8,4.55a10.54,10.54,0,0,1-2.4-2.07,17.89,17.89,0,0,0-4.59-3.64,7,7,0,0,0-8,1.07c-1.47,1.26.66,3.38,2.12,2.12Z"/><path class="cls-2" d="M48,73.42c6,12.11,22.57,11,27.44-1.35.71-1.8-2.19-2.58-2.89-.8-4,10.13-17.21,10.18-22,.63-.86-1.73-3.45-.21-2.59,1.51Z"/><path class="cls-2" d="M47.15,87c-.34-3.53-2.24-6.76-5.71-8a12.61,12.61,0,0,0-6-.49c-3.13.48-4.59,3.5-8.23,2-1.48-.63-3.09,1-1.82,2.36,2.77,2.88,5.56,6.84,9.56,8,3.82,1.12,7.85-.22,11.44-1.54,1.8-.66,1-3.56-.8-2.89-3.2,1.17-6.87,2.61-10.23,1.34-3.06-1.15-5.62-4.72-7.84-7L25.72,83a8.09,8.09,0,0,0,6.9.18c1.78-.84,3-1.77,5.08-1.82A6.07,6.07,0,0,1,44.15,87c.18,1.91,3.18,1.92,3,0Z"/><path class="cls-2" d="M53.49,106.15c2.15-2.07,6.18-4.44,8.62-1.77,1,1.11,1.43,2.26,2.81,3.09a8,8,0,0,0,8,0,1.51,1.51,0,0,0-1.16-2.74c-3,.77-3.53,4.15-7,4.47-2.21.21-3.85.1-5.56-1.46a54.89,54.89,0,0,1-3.79-4.28c-1.28-1.45-3.4.68-2.12,2.12,3.06,3.45,4.91,6.54,9.78,6.63a11.89,11.89,0,0,0,5.46-.89c1.45-.71,2.66-3.36,4-3.71l-1.16-2.74c-5.38,2.87-6-4-10.25-4.71-3.63-.58-7.3,1.41-9.81,3.82-1.39,1.34.73,3.46,2.12,2.12Z"/><path class="cls-2" d="M113.25,123.78c-2.57-9.7,10.56-15.14,11.89-24.25,1.48-10.09-7.37-17.29-9.94-26.28C111.8,61.31,124.52,56,126,45.24c.47-3.45-.54-6.18-2.39-9-3.46-5.33-4.13-11.2,1.11-15.77,1.46-1.27-.67-3.39-2.12-2.12a13.78,13.78,0,0,0-4.83,9.05c-.48,4.49,1.55,7.25,3.66,11,6.46,11.35-10,19.22-10,30.45s13.69,20.33,10.43,31.76c-2.56,9-14.37,13.27-11.52,24a1.5,1.5,0,0,0,2.89-.8Z"/><path class="cls-2" d="M125.44,40.29c5.91-8.45,14.67,7.5,22.38,1.76L146,39.69a21.35,21.35,0,0,1-4.9,4.35c-3.69,2.07-6.19.85-8.84-2.09-2.09-2.33-3.82-3.46-7-3.57-1.93-.07-1.93,2.93,0,3,4.53.17,4.62,3.83,7.72,5.69a8.45,8.45,0,0,0,4.73,1.07c4.37-.2,7.6-3.29,10.41-6.33,1.1-1.18-.39-3.42-1.82-2.36-5,3.7-10.08-4.21-15-4.83-3.54-.45-6.49,1.33-8.46,4.14-1.11,1.59,1.49,3.09,2.59,1.51Z"/><path class="cls-2" d="M119.57,57.09c1.08-6-3.93-9.92-9.42-11-7.54-1.44-8,8.19-15,7.29-1.7-.22-2,2.53-.4,2.95,3.57.92,6.18,3.87,10,4.09,4.4.25,9-1.87,13.09-3.13,1.84-.56,1.06-3.46-.8-2.89-3.73,1.13-9.47,3.88-13.44,2.82-2.89-.77-5.1-3-8-3.78l-.4,2.95a8.74,8.74,0,0,0,7.15-2c1-.87,1.47-2.08,2.37-3a8,8,0,0,1,6.71-1.77c2.69.76,5.94,3.25,5.32,6.66-.34,1.89,2.55,2.7,2.89.8Z"/><path class="cls-2" d="M123.25,83.55a30.46,30.46,0,0,1,6-.61c5.29,1.93,2.56,3.26,4.09,5.66A10.1,10.1,0,0,0,136,91.86c2.74,2,6.2,2.23,9.47,2.41l-.4-2.95c-2.67.85-5.44,1.56-8.24,1-3.35-.68-4.64-2.6-6.73-5-2.22-2.59-5.1-2.36-7.7-4.25-1.56-1.14-3.06,1.46-1.51,2.59,2.58,1.88,4.93,1.56,7.35,4.15,1.34,1.44,2.24,3,4,4.08,4.2,2.52,9.2,1.77,13.62.37a1.51,1.51,0,0,0-.4-2.95c-2.74-.15-6.21-.18-8.32-2.3-1.77-1.78-1.45-4.14-2.73-6.07a7.88,7.88,0,0,0-6.05-3.08c-2.72-.23-10,1.09-7.74,5.26.92,1.7,3.51.19,2.59-1.51Z"/><path class="cls-2" d="M120.12,107.61c-.77-2.7-2-5.55-4.58-7-3-1.7-7.56-1.09-10.87-1.21l.76,2.8c2.08-1.38,4.37-3,7-3,3.25.05,4.32,2.58,4.06,5.45-.17,1.92,2.83,1.91,3,0,.31-3.44-1-6.86-4.49-8-4-1.35-7.8.8-11.06,3a1.51,1.51,0,0,0,.76,2.8c2.64.1,5.69-.21,8.27.41s3.62,3.27,4.28,5.59a1.5,1.5,0,0,0,2.89-.8Z"/><path class="cls-2" d="M90,123.73c1-6.85,8.18-13.6,4.75-20.85-1.84-3.9-6.51-5.49-7-10.22-.43-4.31,1.87-8.7,2.37-12.94.87-7.41-2.86-14.06-7.71-19.38-3.52-3.87-9.68-7-8.85-13,.53-3.79,2.84-6.58,2.31-10.6-.25-1.89-3.25-1.91-3,0,.9,6.85-5.65,12.28-.22,18.57,6.12,7.08,15,12.1,14.59,22.87-.29,7-5.16,14.1-.18,20.53,1,1.27,2.35,2.15,3.38,3.36,2.94,3.46,2.31,6.88.62,10.67-1.54,3.45-3.42,6.4-4,10.21-.29,1.89,2.6,2.7,2.89.8Z"/><path class="cls-2" d="M79.42,57a16.93,16.93,0,0,1,2.74-5.62c1.64-1.94,3.82-1.71,6-2.69,1.89-.86,5.73-4.13,3-6.06a1.49,1.49,0,0,0-1.51,0l-.22.12c-1.69.93-.18,3.52,1.51,2.59l.22-.12H89.57l.24.16-.74-1.3c0,1.23-3.05,2.1-4.48,2.46a8.54,8.54,0,0,0-3.77,1.89c-2.24,2-3.34,5-4.28,7.76-.62,1.83,2.28,2.62,2.89.8Z"/><path class="cls-2" d="M78.43,59A17.85,17.85,0,0,0,92.5,46.08a1.5,1.5,0,0,0-2.89-.8,14.91,14.91,0,0,1-12,10.85c-1.9.33-1.09,3.22.8,2.89Z"/><path class="cls-2" d="M87.52,81.24c-2.62-1.83-5.89-3.43-9.07-1.95a6.19,6.19,0,0,0-2.75,2.86c-1.3,2.37-2.3,4.24-5.06,5.26l1.85,1.85c-.2.92,7-.26,7.62-.46a17.32,17.32,0,0,0,3-1.33c.41-.23,2.72-2.33,3.13-2.28l-1.5-1.5,0,.23c.21,1.9,3.21,1.92,3,0l0-.23a1.56,1.56,0,0,0-1.5-1.5c-1.15-.11-1.72.57-2.55,1.25a13.8,13.8,0,0,1-7.09,3.06c-2.17.27-6.38-1.1-7.05,2-.22,1,.7,2.27,1.85,1.85A11.08,11.08,0,0,0,77.13,86c.83-1.31,1.07-2.72,2.4-3.61,2.23-1.49,4.59.16,6.48,1.48,1.59,1.11,3.09-1.49,1.51-2.59Z"/><path class="cls-2" d="M91.86,99.57c-.52-4.92,4.13-4.79,7.58-5.72,2.35-.63,4.37-2,5-4.47.48-1.87-2.41-2.67-2.89-.8-.89,3.47-7,2.55-9.54,4.18a7.17,7.17,0,0,0-3.14,6.8c.2,1.9,3.2,1.92,3,0Z"/><path class="cls-2" d="M90.85,101.87c3,1,6.75-1.5,8.9-3.36a16.75,16.75,0,0,0,5.35-9.05c.42-1.88-2.47-2.68-2.89-.8a14,14,0,0,1-3.55,6.76c-1.36,1.41-4.82,4.32-7,3.56-1.83-.64-2.61,2.26-.8,2.89Z"/></g></g></svg>