<svg xmlns="http://www.w3.org/2000/svg" viewBox="0 0 189 189"><defs><style>.cls-1{fill:#e6e6e6;}.cls-2{fill:#4d4d4d;}</style></defs><title>Dionisio</title><g id="Camada_2" data-name="Camada 2"><g id="Camada_1-2" data-name="Camada 1"><path class="cls-1" d="M94.5,188.85A94.35,94.35,0,1,1,188.86,94.5,94.46,94.46,0,0,1,94.5,188.85Z"/><path class="cls-2" d="M94.5.29A94.21,94.21,0,1,1,.29,94.5,94.32,94.32,0,0,1,94.5.29m0-.29A94.5,94.5,0,1,0,189,94.5,94.5,94.5,0,0,0,94.5,0Z"/><path class="cls-2" d="M66,166.5h58c5.79,0,5.8-9,0-9H66c-5.79,0-5.8,9,0,9Z"/><path class="cls-2" d="M92.85,158.33a307.76,307.76,0,0,0-1.67-38.53c-.52-4.79-1.1-9.59-3.86-13.68s-6.88-7-10.11-10.61c-13.94-15.63-20-37-17.29-57.68.74-5.73-8.27-5.67-9,0a81.07,81.07,0,0,0,14.34,57,79.8,79.8,0,0,0,9.38,10.94c4.23,4.08,6.72,7,7.44,13a292.66,292.66,0,0,1,1.77,39.52c-.1,5.79,8.9,5.79,9,0Z"/><path class="cls-2" d="M106.29,158.33A299.36,299.36,0,0,1,108,119.8c.69-6.11,2.6-9.27,7-13.45a80.71,80.71,0,0,0,24.28-68.52c-.73-5.66-9.74-5.74-9,0,2.67,20.63-3.35,42-17.29,57.68-3.12,3.5-7,6.37-9.76,10.16s-3.57,8.47-4.11,13.15a301.1,301.1,0,0,0-1.77,39.52c.1,5.79,9.1,5.8,9,0Z"/></g></g></svg>