<svg xmlns="http://www.w3.org/2000/svg" viewBox="0 0 163 163"><defs><style>.cls-1{fill:#e6e6e6;}.cls-2{fill:#4d4d4d;}</style></defs><title>erebo_1</title><g id="Camada_2" data-name="Camada 2"><g id="Camada_1-2" data-name="Camada 1"><path class="cls-1" d="M81.5,162.88A81.38,81.38,0,1,1,162.88,81.5,81.47,81.47,0,0,1,81.5,162.88Z"/><path class="cls-2" d="M81.5.25A81.25,81.25,0,1,1,.25,81.5,81.34,81.34,0,0,1,81.5.25m0-.25A81.5,81.5,0,1,0,163,81.5,81.5,81.5,0,0,0,81.5,0Z"/><path class="cls-2" d="M81.75,26.5A55.25,55.25,0,1,0,94.1,135.6,24.07,24.07,0,1,1,129,110.39,55.26,55.26,0,0,0,81.75,26.5Z"/></g></g></svg>