<svg xmlns="http://www.w3.org/2000/svg" viewBox="0 0 163 163"><defs><style>.cls-1{fill:#e6e6e6;}.cls-2{fill:#4d4d4d;}</style></defs><title>eter</title><g id="Camada_2" data-name="Camada 2"><g id="Camada_1-2" data-name="Camada 1"><path class="cls-1" d="M81.5,162.5a81,81,0,1,1,81-81A81.09,81.09,0,0,1,81.5,162.5Z"/><path class="cls-2" d="M81.5,1A80.5,80.5,0,1,1,1,81.5,80.59,80.59,0,0,1,81.5,1m0-1A81.5,81.5,0,1,0,163,81.5,81.5,81.5,0,0,0,81.5,0Z"/><path class="cls-2" d="M16.37,89A74.11,74.11,0,0,1,29.84,59.91a38.22,38.22,0,0,1,7.56-7.76,51.48,51.48,0,0,1,6.84-4L63.76,38c5.34-2.77,10.82-5.65,14.75-10.2a40.08,40.08,0,0,0,4.7-7.15A126.78,126.78,0,0,0,89.3,7.8,95,95,0,0,1,77.84,35c-2.45,4-5.25,7.79-9,10.53C66,47.64,62.62,49,59.41,50.59,47.71,56.28,37.19,64.69,30,75.53s-10.9,24.18-9.2,37.08a138.44,138.44,0,0,1-4.95-26.09"/><path class="cls-2" d="M16.73,89.09a75.8,75.8,0,0,1,11-25.54,47.08,47.08,0,0,1,8.76-10.19c3.69-3,8.21-5,12.43-7.21,8.29-4.3,17.47-8.07,25-13.64,6.18-4.57,9.65-11.19,12.88-18,.14-.29,2.47-4.64,2.22-5-.56-.73-1.49,3.37-1.7,4A94.51,94.51,0,0,1,81.37,28c-4.54,8.89-9.74,16.27-18.91,20.75-14,6.83-26.58,15.8-34.59,29.49a56.74,56.74,0,0,0-7.77,25.09,28.12,28.12,0,0,0,.06,6.76c.31,1.64.31.44.23-.32a42.29,42.29,0,0,0-1.16-4.61,144.77,144.77,0,0,1-3-18.64c0-.48-.8-.48-.75,0a149.06,149.06,0,0,0,5,26.19c.11.39.79.33.74-.1C18.36,88,33.2,66.09,53.86,54c8.54-5,16.78-7.72,22.61-16.19A93.94,93.94,0,0,0,89.66,7.9a.38.38,0,0,0-.72-.2c-4.27,10.31-9,20.43-18.86,26.42-8.81,5.34-18.34,9.56-27.42,14.42C27.94,56.41,19.63,73.18,16,88.89c-.11.47.61.67.72.2Z"/><path class="cls-2" d="M29.31,93.35A74.11,74.11,0,0,1,46,66a38.22,38.22,0,0,1,8.41-6.84A51.48,51.48,0,0,1,61.72,56l20.54-7.81c5.63-2.14,11.4-4.37,15.83-8.44a40.08,40.08,0,0,0,5.49-6.56A126.78,126.78,0,0,0,111.1,21.1a95,95,0,0,1-14.51,25.7c-2.89,3.64-6.12,7.13-10.16,9.43C83.33,58,79.86,59,76.49,60.16c-12.28,4.31-23.7,11.45-32.1,21.39S30.77,104.31,31,117.32a138.44,138.44,0,0,1-1.91-26.49"/><path class="cls-2" d="M29.67,93.45a75.35,75.35,0,0,1,14.9-25.3c6.79-7.54,14.48-10.76,23.78-14.29,8.16-3.1,17-5.63,24.63-10,6.65-3.82,10.87-10,14.85-16.42.71-1.15,2.86-3.89,2.28-4.8.51.81-2.56,5.9-3.15,7.08a95.09,95.09,0,0,1-7.07,12,61.29,61.29,0,0,1-8.78,10.58c-4.31,3.92-9.34,5.6-14.72,7.52C62.55,64.72,49.67,73.12,41.07,85.21a56.11,56.11,0,0,0-10,24.72,24.18,24.18,0,0,0-.43,4.94c.14,1.91.24,0,.26-.48.12-2.1-.6-4.36-.81-6.5a146.18,146.18,0,0,1-.64-17.07.38.38,0,0,0-.75,0,149.05,149.05,0,0,0,1.92,26.59c.07.42.74.31.74-.1,0-24.43,16.95-44.44,38.53-54.11C74.82,61,80.18,59.73,85,57.37a33.37,33.37,0,0,0,10.84-9.1A96,96,0,0,0,111.46,21.2c.15-.4-.48-.65-.69-.29-5.11,9.17-10.65,18.62-20.35,23.44-9.9,4.92-20.78,8-31,12.13C44.24,62.55,34.23,78.44,29,93.25c-.16.46.56.65.72.2Z"/><path class="cls-2" d="M50.71,114.14A74.11,74.11,0,0,1,70.61,89a38.22,38.22,0,0,1,9.17-5.78,51.48,51.48,0,0,1,7.59-2.3l21.33-5.27c5.84-1.44,11.84-3,16.73-6.47a40.08,40.08,0,0,0,6.24-5.86,126.78,126.78,0,0,0,8.93-11.08A95,95,0,0,1,123.11,76c-3.31,3.27-6.93,6.34-11.22,8.13-3.29,1.37-6.86,1.94-10.34,2.71-12.71,2.8-24.91,8.51-34.45,17.36s-16.26,21-17.62,33.89a138.44,138.44,0,0,1,1.3-26.52"/><path class="cls-2" d="M51,114.33A75.77,75.77,0,0,1,67.22,92.47a50.69,50.69,0,0,1,10-7.54c4.68-2.55,10-3.55,15.14-4.82,9.08-2.24,18.86-3.76,27.5-7.41,7.61-3.22,12.85-9.52,17.84-15.89a11.57,11.57,0,0,0,2-3c-.1.59-2.2,3.37-2.83,4.39A94.55,94.55,0,0,1,127,71.34a62.31,62.31,0,0,1-10,9.45c-4.22,3-8.88,4.27-13.86,5.35C87.5,89.55,72.52,96.64,62,109.06a55.87,55.87,0,0,0-11.42,21.33,25.27,25.27,0,0,0-1.26,6.15c0-1.06.39-4.34.4-6a144.76,144.76,0,0,1,1.43-18.83c.07-.47-.66-.68-.72-.2a149,149,0,0,0-1.31,26.62.38.38,0,0,0,.75,0c3-24.24,22.2-41.95,44.71-49,9.68-3,18.7-3.66,26.55-10.69a93.64,93.64,0,0,0,19.81-26,.38.38,0,0,0-.65-.38c-6.59,9.06-13.49,17.76-24.51,21.28C105.7,76.58,95.18,78.44,85,81.17,69.24,85.37,57.38,99.92,50.38,114c-.21.43.43.81.65.38Z"/><path class="cls-2" d="M40.71,100.14A74.11,74.11,0,0,1,60.61,75a38.22,38.22,0,0,1,9.17-5.78,51.48,51.48,0,0,1,7.59-2.3l21.33-5.27c5.84-1.44,11.84-3,16.73-6.47a40.08,40.08,0,0,0,6.24-5.86,126.78,126.78,0,0,0,8.93-11.08A95,95,0,0,1,113.11,62c-3.31,3.27-6.93,6.34-11.22,8.13-3.29,1.37-6.86,1.94-10.34,2.71-12.71,2.8-24.91,8.51-34.45,17.36s-16.26,21-17.62,33.89a138.44,138.44,0,0,1,1.3-26.52"/><path class="cls-2" d="M41,100.33A75.77,75.77,0,0,1,57.22,78.47a50.69,50.69,0,0,1,10-7.54c4.68-2.55,10-3.55,15.14-4.82,9.08-2.24,18.86-3.76,27.5-7.41,7.61-3.22,12.85-9.52,17.84-15.89a11.57,11.57,0,0,0,2-3c-.1.59-2.2,3.37-2.83,4.39A94.55,94.55,0,0,1,117,57.34a62.31,62.31,0,0,1-10,9.45c-4.22,3-8.88,4.27-13.86,5.35C77.5,75.55,62.52,82.64,52,95.06a55.87,55.87,0,0,0-11.42,21.33,25.27,25.27,0,0,0-1.26,6.15c0-1.06.39-4.34.4-6a144.76,144.76,0,0,1,1.43-18.83c.07-.47-.66-.68-.72-.2a149,149,0,0,0-1.31,26.62.38.38,0,0,0,.75,0c3-24.24,22.2-41.95,44.71-49,9.68-3,18.7-3.66,26.55-10.69a93.64,93.64,0,0,0,19.81-26,.38.38,0,0,0-.65-.38c-6.59,9.06-13.49,17.76-24.51,21.28C95.7,62.58,85.18,64.44,75,67.17,59.24,71.37,47.38,85.92,40.38,100c-.21.43.43.81.65.38Z"/><path class="cls-2" d="M65.53,128A74.11,74.11,0,0,1,84.38,102a38.22,38.22,0,0,1,8.92-6.15,51.48,51.48,0,0,1,7.49-2.61l21.1-6.15c5.78-1.68,11.71-3.45,16.45-7.15a40.08,40.08,0,0,0,6-6.11,126.78,126.78,0,0,0,8.46-11.44,95,95,0,0,1-16.51,24.47c-3.17,3.4-6.66,6.62-10.88,8.59-3.23,1.51-6.77,2.22-10.22,3.13-12.58,3.32-24.54,9.53-33.7,18.77S66.11,139,65.29,152a138.44,138.44,0,0,1,.2-26.56"/><path class="cls-2" d="M65.85,128.15a75.75,75.75,0,0,1,15.27-22.52,51.51,51.51,0,0,1,9.64-7.95c4.56-2.76,9.86-4,14.93-5.44,8.55-2.49,17.56-4.44,25.76-7.92C139.14,81.06,144.18,75,149,68.45c.94-1.27,2.69-3.27,2.88-4.5-.09.59-2,3.43-2.64,4.49A94.75,94.75,0,0,1,140,82,68.09,68.09,0,0,1,131.57,91c-4.38,3.72-9.26,5.42-14.75,6.85-15.39,4-29.9,11.59-39.95,24.22a55.53,55.53,0,0,0-11.1,23.42,43.72,43.72,0,0,0-.5,4.77c.18-2.29-.08-5.21-.13-7.73a146.4,146.4,0,0,1,.71-17.07c0-.48-.7-.48-.75,0a148.48,148.48,0,0,0-.2,26.56.38.38,0,0,0,.75,0c2-24.65,20.86-43.24,43.4-51.1,9.34-3.26,18-4.31,25.33-11.49a93.94,93.94,0,0,0,18.73-26.77.38.38,0,0,0-.65-.38c-6.25,9.37-12.73,18.23-23.61,22.28-9.9,3.69-20.37,5.93-30.45,9.07-15.53,4.84-26.8,19.87-33.21,34.17-.2.44.45.82.65.38Z"/></g></g></svg>