<svg xmlns="http://www.w3.org/2000/svg" viewBox="0 0 189 189"><defs><style>.cls-1{fill:#e6e6e6;}.cls-2{fill:#4d4d4d;}</style></defs><title>febe</title><g id="Camada_2" data-name="Camada 2"><g id="Camada_1-2" data-name="Camada 1"><path class="cls-1" d="M94.5,188.86A94.36,94.36,0,1,1,188.86,94.5,94.46,94.46,0,0,1,94.5,188.86Z"/><path class="cls-2" d="M94.5.29A94.21,94.21,0,1,1,.29,94.5,94.32,94.32,0,0,1,94.5.29m0-.29A94.5,94.5,0,1,0,189,94.5,94.5,94.5,0,0,0,94.5,0Z"/><path class="cls-2" d="M95,158.62A63.62,63.62,0,1,1,158.62,95,63.69,63.69,0,0,1,95,158.62Z"/><path class="cls-2" d="M95,34.76A60.24,60.24,0,1,1,34.76,95,60.31,60.31,0,0,1,95,34.76M95,28a67,67,0,1,0,67,67A67,67,0,0,0,95,28Z"/></g></g></svg>