<svg xmlns="http://www.w3.org/2000/svg" viewBox="0 0 163 163"><defs><style>.cls-1{fill:#e6e6e6;}.cls-2{fill:#666;}.cls-3{fill:#f2f2f2;}</style></defs><title>Ativo 10</title><g id="Camada_2" data-name="Camada 2"><g id="Camada_1-2" data-name="Camada 1"><path class="cls-1" d="M81.5,162.88A81.38,81.38,0,1,1,162.88,81.5,81.47,81.47,0,0,1,81.5,162.88Z"/><path class="cls-2" d="M81.5.25A81.25,81.25,0,1,1,.25,81.5,81.34,81.34,0,0,1,81.5.25m0-.25A81.5,81.5,0,1,0,163,81.5,81.5,81.5,0,0,0,81.5,0Z"/><path class="cls-3" d="M82.1,59.19c-.51.8.57,1.65,1.46,2,15.22,5.31,33.51.12,43.66-12.4,3.54-4.36,6.28-9.6,11-12.58a45.41,45.41,0,0,1-23.65-1c-3.57-1.13-7.08-2.72-10.82-2.92a18,18,0,0,0-11.76,4,29.57,29.57,0,0,0-7.85,9.84C82,50.34,80.46,55.34,82,59.84"/><path class="cls-2" d="M80.6,59.19c-.24,4.26,6.83,4.71,9.84,5.14a42.54,42.54,0,0,0,33.94-10.4c5.47-5,8.51-12.22,14.63-16.46a1.51,1.51,0,0,0-1.16-2.74c-9,1.85-17.3.89-25.91-2-5.6-1.88-10.83-2.77-16.43-.28C85.9,36.73,77.7,49.68,80.59,60.24a1.5,1.5,0,0,0,2.89-.8c-3.52-12.9,10.93-28.24,23.84-25,4.9,1.21,9.41,3.24,14.46,3.93a49.57,49.57,0,0,0,16.87-.72l-1.16-2.74c-3.88,2.69-6.5,6.29-9.25,10A38.74,38.74,0,0,1,100.33,61.5c-1.87.2-16.88.46-16.73-2.3.11-1.93-2.89-1.92-3,0Z"/><path class="cls-2" d="M72.52,143.41c4.51-22.29,6.58-44.26,7.33-67,.35-10.7.58-21.69-2.74-32C74,34.92,68.32,26.63,62.3,18.75L60.6,21c5.13,1.15,10.3,1.59,13.6-3.18.73-1-.28-2.12-1.3-2.26A16.29,16.29,0,0,0,62,17.78a1.5,1.5,0,0,0,1.51,2.59,13.86,13.86,0,0,1,9.35-1.85l-1.3-2.26c-2.51,3.62-6.72,2.59-10.21,1.8-1.13-.25-2.55,1.08-1.69,2.2,5.85,7.66,11.53,15.71,14.51,25,3.43,10.65,2.95,22,2.57,33a387.25,387.25,0,0,1-7.17,64.36c-.38,1.88,2.51,2.69,2.89.8Z"/><path class="cls-2" d="M73.43,16.86a174.91,174.91,0,0,1,7,31.18c.25,1.89,3.25,1.91,3,0a179.14,179.14,0,0,0-7.13-32c-.59-1.83-3.49-1-2.89.8Z"/><path class="cls-2" d="M81.71,62.24c-.55,6.47.44,12.74,1.4,19.11a92.75,92.75,0,0,1,.79,21.22q-1.59,21.58-3.26,43.15l2.26-1.3c-5.22-2.66-7.39-4-13.33-1.87a1.51,1.51,0,0,0,0,2.89A44,44,0,0,0,80.76,148c1.92.2,1.91-2.81,0-3a41.05,41.05,0,0,1-10.39-2.47v2.89c4.34-1.53,7.21-.38,11,1.57a1.52,1.52,0,0,0,2.26-1.3q1.63-21.57,3.26-43.15a85.69,85.69,0,0,0-.33-18.27c-1-7.37-2.49-14.58-1.86-22.06.16-1.92-2.84-1.91-3,0Z"/><path class="cls-3" d="M76.13,87.49a10.91,10.91,0,0,0-4.07-8.22,29.38,29.38,0,0,0-8.24-4.59c-6.3-2.61-13-5-19.77-4.28C35,71.3,26.55,77.53,17.58,76a41.7,41.7,0,0,0,39.3,21.25A14.6,14.6,0,0,0,62,96.08a32.55,32.55,0,0,0,4.9-3.54,19.63,19.63,0,0,1,10.54-3.79"/><path class="cls-2" d="M77.63,87.49c-.75-11.2-14.77-15.78-24-17.85a31.36,31.36,0,0,0-16.27.66c-6.57,2-12.71,5.06-19.76,4.21-1.18-.14-1.8,1.36-1.3,2.26a43.66,43.66,0,0,0,25.63,20.4,39,39,0,0,0,16.73,1.39,14.93,14.93,0,0,0,6.65-2.84c4.06-2.82,7-5,12.16-5.47,1.9-.18,1.92-3.19,0-3a23.32,23.32,0,0,0-12.2,4.69c-6,4.46-12.53,4.62-19.69,3.08A40.65,40.65,0,0,1,18.88,75.26l-1.3,2.26c9.47,1.14,17.31-4.7,26.46-5.62,5.45-.55,10.84,1,15.9,2.85C66,77,74.12,79.9,74.63,87.49c.13,1.92,3.13,1.93,3,0Z"/><path class="cls-3" d="M87.25,111.57a8.54,8.54,0,0,0,1-3c1.8-7.51,8.06-13.52,15.36-16.07s15.44-1.92,22.73.63A65.36,65.36,0,0,0,134,95.71a11.23,11.23,0,0,0,7.84-.77l-6.46,7.56a75.33,75.33,0,0,1-6.87,7.35,35.4,35.4,0,0,1-20.28,9A31.27,31.27,0,0,1,87,112.94"/><path class="cls-2" d="M88.55,112.33c2.29-5,3.14-9.67,7.47-13.6a25.93,25.93,0,0,1,17.22-6.34c6.25-.08,11.49,2,17.28,3.87,4.21,1.39,8,1.77,12.08,0l-1.82-2.36c-6.89,8.07-13.35,17.23-23.58,21.26a31,31,0,0,1-29.47-3.49c-1.58-1.11-3.08,1.49-1.51,2.59a33.71,33.71,0,0,0,30.27,4.35C128.12,114.65,135.24,105,142.91,96a1.51,1.51,0,0,0-1.82-2.36c-6.69,2.92-14.59-2.62-21.23-3.73a34,34,0,0,0-15.76.88,27.23,27.23,0,0,0-11.25,6.83c-3.92,4-4.68,8.34-6.89,13.2-.8,1.74,1.79,3.27,2.59,1.51Z"/></g></g></svg>