<svg xmlns="http://www.w3.org/2000/svg" viewBox="0 0 163 169"><defs><style>.cls-1{fill:#e6e6e6;}.cls-2{fill:#666;}.cls-3{fill:#4d4d4d;}</style></defs><title>gaia</title><g id="Camada_2" data-name="Camada 2"><g id="Camada_1-2" data-name="Camada 1"><path class="cls-1" d="M81.5,168.87C36.63,168.87.13,131,.13,84.5S36.63.13,81.5.13,162.87,38,162.87,84.5,126.37,168.87,81.5,168.87Z"/><path class="cls-2" d="M81.5.25C126.3.25,162.75,38,162.75,84.5S126.3,168.75,81.5,168.75.25,131,.25,84.5,36.7.25,81.5.25m0-.25C36.49,0,0,37.83,0,84.5S36.49,169,81.5,169,163,131.17,163,84.5,126.51,0,81.5,0Z"/><path class="cls-3" d="M75.57,61.37c-.24,4.33,6.78,4.85,9.86,5.3A40.77,40.77,0,0,0,104.05,65a41.64,41.64,0,0,0,15.34-9.07c5.49-5.16,8.47-12.64,14.63-17.07A1.53,1.53,0,0,0,132.85,36c-9,1.92-17.29.92-25.89-2.08-5.61-2-10.84-2.87-16.45-.29-9.85,4.53-17.79,18-14.95,28.78a1.53,1.53,0,0,0,2.95-.81c-3.4-12.89,10.4-29.44,23.8-26,4.91,1.26,9.4,3.36,14.47,4.07A47.94,47.94,0,0,0,133.66,39l-1.18-2.79c-3.91,2.81-6.52,6.51-9.26,10.41a40.46,40.46,0,0,1-12.56,12,39,39,0,0,1-15.34,5.16c-1.91.22-16.86.49-16.7-2.41.11-2-2.95-2-3.05,0Z"/><path class="cls-3" d="M67.52,143.41c4.51-22.29,6.58-44.26,7.33-67,.35-10.7.58-21.69-2.74-32C69,34.92,63.32,26.63,57.3,18.75L55.6,21c5.13,1.15,10.3,1.59,13.6-3.18.73-1-.28-2.12-1.3-2.26A16.29,16.29,0,0,0,57,17.78a1.5,1.5,0,0,0,1.51,2.59,13.86,13.86,0,0,1,9.35-1.85l-1.3-2.26c-2.51,3.62-6.72,2.59-10.21,1.8-1.13-.25-2.55,1.08-1.69,2.2,5.85,7.66,11.53,15.71,14.51,25,3.43,10.65,2.95,22,2.57,33a387.25,387.25,0,0,1-7.17,64.36c-.38,1.88,2.51,2.69,2.89.8Z"/><path class="cls-3" d="M69.87,16.46A167.14,167.14,0,0,1,76.95,48"/><path class="cls-3" d="M68.43,16.86a174.91,174.91,0,0,1,7,31.18c.25,1.89,3.25,1.91,3,0a179.14,179.14,0,0,0-7.13-32c-.59-1.83-3.49-1-2.89.8Z"/><path class="cls-3" d="M78.21,62.24c-1.12,10,2.29,19.93,2.61,30a97.59,97.59,0,0,1-.41,10.36l-3.26,43.15c-1.6-.63-2.84-2-4.44-2.59-2.48-1-5.24,0-7.74.88a36.17,36.17,0,0,0,10.79,2.53"/><path class="cls-3" d="M76.71,62.24c-.55,6.47.44,12.74,1.4,19.11a92.75,92.75,0,0,1,.79,21.22q-1.59,21.58-3.26,43.15l2.26-1.3c-5.22-2.66-7.39-4-13.33-1.87a1.51,1.51,0,0,0,0,2.89A44,44,0,0,0,75.76,148c1.92.2,1.91-2.81,0-3a41.05,41.05,0,0,1-10.39-2.47v2.89c4.34-1.53,7.21-.38,11,1.57a1.52,1.52,0,0,0,2.26-1.3q1.63-21.57,3.26-43.15a85.69,85.69,0,0,0-.33-18.27c-1-7.37-2.49-14.58-1.86-22.06.16-1.92-2.84-1.91-3,0Z"/><path class="cls-3" d="M72.63,87.49c-.75-11.2-14.77-15.78-24-17.85a31.36,31.36,0,0,0-16.27.66c-6.57,2-12.71,5.06-19.76,4.21-1.18-.14-1.8,1.36-1.3,2.26a43.66,43.66,0,0,0,25.63,20.4,39,39,0,0,0,16.73,1.39,14.93,14.93,0,0,0,6.65-2.84c4.06-2.82,7-5,12.16-5.47,1.9-.18,1.92-3.19,0-3a23.32,23.32,0,0,0-12.2,4.69c-6,4.46-12.53,4.62-19.69,3.08A40.65,40.65,0,0,1,13.88,75.26l-1.3,2.26c9.47,1.14,17.31-4.7,26.46-5.62,5.45-.55,10.84,1,15.9,2.85C61,77,69.12,79.9,69.63,87.49c.13,1.92,3.13,1.93,3,0Z"/><path class="cls-3" d="M83.57,116.45c2.17-4.92,2.88-9.52,6.91-13.56a25.21,25.21,0,0,1,16.87-7.12c6.2-.28,11.71,1.61,17.41,3.71,4.44,1.64,8.47,2.25,12.86.26l-1.85-2.4c-6.38,7.75-12.41,16.74-21.72,21.2a30.17,30.17,0,0,1-31.29-2.78c-1.59-1.16-3.12,1.49-1.54,2.64a32.76,32.76,0,0,0,31,4.22c11.37-4.33,18.21-14.07,25.67-23.13a1.53,1.53,0,0,0-1.85-2.4c-6.67,3-14.59-2.72-21.21-3.86a32.79,32.79,0,0,0-16.62,1.19,26.87,26.87,0,0,0-10.88,7.3c-3.63,4.08-4.31,8.35-6.43,13.17-.78,1.78,1.85,3.34,2.64,1.54Z"/></g></g></svg>