<svg xmlns="http://www.w3.org/2000/svg" viewBox="0 0 189 189"><defs><style>.cls-1{fill:#e6e6e6;}.cls-2{fill:#4d4d4d;}</style></defs><title>hades</title><g id="Camada_2" data-name="Camada 2"><g id="Camada_1-2" data-name="Camada 1"><path class="cls-1" d="M94.5,188.86A94.36,94.36,0,1,1,188.86,94.5,94.46,94.46,0,0,1,94.5,188.86Z"/><path class="cls-2" d="M94.5.29A94.21,94.21,0,1,1,.29,94.5,94.32,94.32,0,0,1,94.5.29m0-.29A94.5,94.5,0,1,0,189,94.5,94.5,94.5,0,0,0,94.5,0Z"/><path class="cls-2" d="M84.93,141.11c-9.94-4.34-20-10-27.8-17.62-3.49-3.42-7-7.91-6.52-13.1.5-5.81,4.9-11.53,7.3-16.73C65.92,76.31,70,52.77,53.11,39l-5.45,7.07c9.31,4,17.9,12.5,17.78,23.31-.06,5.84-2.73,11.28-4.43,16.76a45.5,45.5,0,0,0-2,17.62c.45,4.77,1.7,8.62,5.75,11.47,4.75,3.35,10.31,5.52,15.22,8.65,4.61,2.94,9.5,8.39,3.84,12.79C80,139.62,78,143.63,80.5,148.13l5.08-6.61v.05l1.32,3.18-.06-1.18c-.29-5.76-9.29-5.8-9,0,.17,3.41,1.79,6,5.34,6.62,3.79.64,7.09-2.94,5.08-6.61.84,1.54,5-3.61,5.41-4.22a13.27,13.27,0,0,0,1.79-6.75,17.78,17.78,0,0,0-6.38-13.1c-4.31-3.82-9.72-6.32-14.71-9.09-3.09-1.71-5.91-2.71-6.4-6.59a33,33,0,0,1,.39-10.27C70.63,81.94,77.06,72,72.87,59.89,69.48,50.12,61.61,42.36,52.2,38.3c-4.21-1.82-9.8,3.52-5.45,7.07,8.52,7,10.62,18.15,8.56,28.58A71.48,71.48,0,0,1,49.4,90.7c-2.37,5-5.56,9.8-7,15.15-5.8,21.16,22.45,36.24,38,43,5.26,2.3,9.84-5.46,4.54-7.77Z"/><path class="cls-2" d="M113.66,148.88c15.57-6.8,43.82-21.88,38-43-1.46-5.34-4.66-10.19-7-15.15a73.92,73.92,0,0,1-5.73-15.92c-2.33-10.64-.39-22.26,8.38-29.41,4.31-3.51-1.2-8.91-5.45-7.07-9.4,4.06-17.29,11.82-20.66,21.59C117,72,123.4,81.94,125.67,93.56a33.3,33.3,0,0,1,.49,9.32c-.41,4.49-2.86,5.53-6.5,7.55-5,2.76-10.42,5.26-14.71,9.09a17.82,17.82,0,0,0-6.33,12.41,13.55,13.55,0,0,0,1.41,6.87c.39.73,4.85,6.44,5.75,4.79-2,3.68,1.29,7.25,5.08,6.61,3.55-.6,5.17-3.21,5.34-6.62.29-5.79-8.71-5.77-9,0l-.06,1.18,1.32-3.18v-.05l5.08,6.61c2.3-4.2.77-8.22-2.82-11.09-2.51-2-3.86-3.38-2.7-6.75,1-2.89,3.61-4.81,6.09-6.4,4.68-3,9.9-5.16,14.56-8.19,4.45-2.9,5.93-6.82,6.41-11.94a44.63,44.63,0,0,0-1.8-16.8c-1.72-5.77-4.58-11.46-4.68-17.59-.16-10.8,8.51-19.3,17.78-23.31L140.93,39c-16.86,13.76-12.81,37.31-4.79,54.67,2.32,5,6.09,10.17,7.08,15.65s-2.14,10-5.75,13.64c-7.81,8-18.22,13.73-28.35,18.16-5.29,2.31-.72,10.07,4.54,7.77Z"/></g></g></svg>