<svg xmlns="http://www.w3.org/2000/svg" viewBox="0 0 189 189"><defs><style>.cls-1{fill:#e6e6e6;}.cls-2{fill:#4d4d4d;}</style></defs><title>Hefesto</title><g id="Camada_2" data-name="Camada 2"><g id="Camada_1-2" data-name="Camada 1"><path class="cls-1" d="M94.5,188.86A94.36,94.36,0,1,1,188.86,94.5,94.46,94.46,0,0,1,94.5,188.86Z"/><path class="cls-2" d="M94.5.29A94.21,94.21,0,1,1,.29,94.5,94.32,94.32,0,0,1,94.5.29m0-.29A94.5,94.5,0,1,0,189,94.5,94.5,94.5,0,0,0,94.5,0Z"/><path class="cls-2" d="M57.25,116.92c-4.16,0-8.7-1.53-13.49-4.56-8.2-5.18-12-10.57-11.95-17s4-13.52,8.25-20.27C46.73,64.58,54.33,54.8,64.65,54.8c3.94,0,8.23,1.44,12.74,4.29C85.51,64.22,89.47,70,89.5,76.76c0,5.58-2.47,12-8.1,20.94C72.9,111.18,65.67,116.92,57.25,116.92Z"/><path class="cls-2" d="M64.65,53.3v3c3.65,0,7.67,1.37,11.94,4.06C84.35,65.26,88,70.47,88,76.77,88,82,85.6,88.25,80.14,96.9c-8.2,13-15,18.52-22.88,18.52-3.88,0-8.15-1.46-12.69-4.33C29.1,101.34,31.2,92,41.33,75.94,47.77,65.74,55.05,56.3,64.65,56.3v-3m0,0c-10.89,0-18.77,9.81-25.86,21C29.06,89.75,24.51,102,43,113.64c5.29,3.34,10,4.79,14.29,4.79,10.62,0,18.48-8.93,25.42-19.92,9.73-15.41,14-29-4.48-40.67-5-3.16-9.48-4.53-13.54-4.53Z"/><rect class="cls-2" x="107.5" y="68.5" width="12" height="88" transform="translate(-40.68 154.55) rotate(-60)"/><path class="cls-2" d="M78.94,87.35l73.61,42.5-4.5,7.79L74.44,95.15l4.5-7.79m-1.1-4.1-7.5,13,78.81,45.5,7.5-13L77.85,83.25Z"/></g></g></svg>