<svg xmlns="http://www.w3.org/2000/svg" viewBox="0 0 163 163"><defs><style>.cls-1,.cls-4{fill:#e6e6e6;}.cls-2,.cls-5{fill:#4d4d4d;}.cls-3{fill:none;}.cls-3,.cls-4,.cls-5{stroke:#4d4d4d;stroke-miterlimit:10;}.cls-4{stroke-width:0.92px;}.cls-5{stroke-width:0.48px;}</style></defs><title>hemera_1</title><g id="Camada_2" data-name="Camada 2"><g id="Camada_1-2" data-name="Camada 1"><path class="cls-1" d="M81.5,162.5a81,81,0,1,1,81-81A81.09,81.09,0,0,1,81.5,162.5Z"/><path class="cls-2" d="M81.5,1A80.5,80.5,0,1,1,1,81.5,80.59,80.59,0,0,1,81.5,1m0-1A81.5,81.5,0,1,0,163,81.5,81.5,81.5,0,0,0,81.5,0Z"/><line class="cls-3" x1="0.5" y1="87.5" x2="162.5" y2="87.5"/><path class="cls-4" d="M82,87l-48.5.59q0-.29,0-.59a48.5,48.5,0,0,1,97,0Z"/><path class="cls-2" d="M33.2,87.27a3.28,3.28,0,0,0-1.36-3.35,9.64,9.64,0,0,0-3.53-1.43L22.49,81c-2.66-.69-5.73-1.74-6.55-4.37-.19-.61-.29-1.34-.83-1.68A2.25,2.25,0,0,0,14,74.73,10.86,10.86,0,0,1,8.4,72.95a47,47,0,0,1,6.06-1.38,9.09,9.09,0,0,1,2.71-.13,12.07,12.07,0,0,1,4.36,2.05c4.17,2.55,9.29,4.08,14,2.7a.74.74,0,0,0-.75-.67"/><path class="cls-2" d="M33.58,87.27c.08-3.31-2.33-4.31-5.17-5.14S22,80.92,19.24,79.49c-2.15-1.11-2.13-3.74-3.91-4.83-1-.6-5.51-.2-5.34-1.76.05-.46,6.13-1.09,5.82-1.11a16.36,16.36,0,0,1,6.24,2.44c4.27,2.37,8.74,3.42,13.55,2.34a.38.38,0,0,0,.22-.55c-.31-.62-.31-.6-1-.85-.45-.17-.65.55-.2.72-.77-.29-2.93.46-3.93.41a16.92,16.92,0,0,1-6.12-1.67c-2-.87-3.78-2.36-5.8-3.1-3.35-1.22-7.24.15-10.51,1.06a.38.38,0,0,0-.09.69c2.31,1.3,5.44,1.5,7.36,3.45.94,1,.92,1.87,2.22,2.8,3.39,2.43,15.18,2.21,15,7.75a.38.38,0,0,0,.75,0Z"/><path class="cls-2" d="M32.85,75.73C31.65,71.56,27.6,68.94,23.7,67S15.53,63.45,13,60a37.67,37.67,0,0,0,14.39,3.66c4,.2,8.49-.09,11.51,2.55"/><path class="cls-2" d="M33.21,75.63c-3.12-8.26-12.33-8.36-18.05-13.85-1.57-1.51-.83-.66.74-.15a49.5,49.5,0,0,0,7.21,1.91c5.19.85,11.06-.26,15.54,3,.39.28.77-.37.38-.65-2.89-2.07-5.92-2.37-9.4-2.52a43.16,43.16,0,0,1-16.5-3.69.38.38,0,0,0-.45.59c5.53,6.61,16.53,6.94,19.8,15.59.17.45.89.25.72-.2Z"/><path class="cls-2" d="M39.12,64.79A6.78,6.78,0,0,1,34.68,62a15.88,15.88,0,0,1-1.81-4.52c-.94-3.07-2.28-6.12-4.65-8.29-2.14-2-5.14-3.25-6.26-5.93l5.78,2.25A18.35,18.35,0,0,1,32,47.6c1.81,1.32,3.22,3.35,5.4,3.88,1.33.32,2.83,0,4,.7,1.44.8,2.17,2.85,3.82,3"/><path class="cls-2" d="M39.22,64.43c-5.91-1.6-5.68-8.41-8.51-12.8-.74-1.15-7.65-7.08-7.4-7.45.36-.53,7.86,3.42,8.32,3.74,1.5,1,2.72,2.62,4.36,3.42,2.35,1.14,4.13.63,6.67,2.48,1,.74,1.28,1.34,2.49,1.74.46.15.66-.57.2-.72-1.72-.56-2.25-2.17-3.73-3a11.26,11.26,0,0,0-1.47-.46c-2.14-.78-4.31-1.2-6.33-2.74-3.61-2.76-7.52-4.12-11.76-5.77-.32-.13-.57.29-.42.55A12.12,12.12,0,0,0,25,47.19c3.57,2.91,5.73,5.18,7.27,9.73,1.35,4,2.3,7,6.72,8.23a.38.38,0,0,0,.2-.72Z"/><path class="cls-2" d="M44.63,54.14a10.94,10.94,0,0,1-2-5.18,20.21,20.21,0,0,0-.34-3,11.83,11.83,0,0,0-1.54-3.07A46.54,46.54,0,0,1,35.89,32a5.64,5.64,0,0,1,4.17,1.92,20.12,20.12,0,0,0,3.49,3.19c1.45.85,3.28,1.11,4.47,2.3a24,24,0,0,1,1.71,2.39,11.15,11.15,0,0,0,1.93,1.78l3.91,3.08"/><path class="cls-2" d="M44.95,53.95c-2-3.27-1.54-7-3.26-10.27-.86-1.67-1.93-3.22-2.76-4.92-.91-1.88-4.7-8.15.86-4.59,1,.63,1.66,1.85,2.61,2.57,1.4,1.06,3,1.27,4.43,2.24s2.28,2.75,3.54,4a52.92,52.92,0,0,0,4.93,3.92c.38.3.91-.23.53-.53a70.4,70.4,0,0,1-7-6.6,9.71,9.71,0,0,0-2.81-2c-3.45-1.75-6-5.84-10.09-6.15a.38.38,0,0,0-.36.47,60.13,60.13,0,0,0,4.92,11c2,3.62,1.62,7.68,3.85,11.25.26.41.9,0,.65-.38Z"/><path class="cls-2" d="M54.64,46.43c1.31-1.54.54-3.85,0-5.81a36.78,36.78,0,0,1-.87-5.87l-.31-3.36c-.27-2.92-.52-6,.64-8.67a7.91,7.91,0,0,0,2,4.24c1.46,1.55,3.51,2.49,4.81,4.18A12.6,12.6,0,0,1,62,32.89l2.59,4.86c.61,1.14,1.37,2.4,2.64,2.67"/><path class="cls-2" d="M55,46.62c1.4-2.55.27-4.86-.25-7.55a74.63,74.63,0,0,1-1-9.15,26.17,26.17,0,0,1-.09-3L54,24.19q0-.6.23.35c.57.44,1.1,2.08,1.66,2.69,1.41,1.54,3.31,2.45,4.63,4.1,2.34,2.94,3,7.65,6.53,9.41.43.21.81-.43.38-.65-3.41-1.7-4-6.44-6.21-9.22-2.42-3-5.78-3.94-6.75-8.26a.38.38,0,0,0-.72,0c-1.19,3.47-.83,6.84-.5,10.45.3,3.24,2.55,10.42,1,13.18-.23.42.41.8.65.38Z"/><path class="cls-2" d="M82.37,38.2a3.22,3.22,0,0,1,.51-3.62,37.39,37.39,0,0,1,2.83-2.68c3.23-3.33,3.36-8.91,6.82-12a14.68,14.68,0,0,0,.38,6,7.87,7.87,0,0,1,.56,1.81c.1,1-.43,2.08-.16,3.08s1.21,1.65,1.52,2.62a25.55,25.55,0,0,1,.22,2.6c.35,1.59,2.12,2.95,1.58,4.49"/><path class="cls-2" d="M82.74,38.1c-1-2.58,4.63-7.46,5.76-10,.72-1.59,1.25-3.26,2-4.82.2-.4.65-1.66,1.19-1.7s.32,1.93.46,2.8c.3,1.81.51,3.39.72,5.23a6.49,6.49,0,0,0,.09,1.3c.22.67.78,1.11,1,1.73.64,1.46.25,2.11.66,3.34.46,1.42,1.7,2.93,1.58,4.44,0,.48.71.48.75,0,.11-1.28-.34-1.7-.77-2.85-.65-1.73-1-3.58-1.56-5.31a37.7,37.7,0,0,1-1.78-12.4.38.38,0,0,0-.64-.27c-3.1,3.18-3.51,7.68-6.16,11.12-1.84,2.39-5.44,4-4.1,7.54.17.45.9.25.72-.2Z"/><path class="cls-2" d="M96.64,39.67l1.48-1.38a10.36,10.36,0,0,1,2.4-1.83c1-.51,2.22-.66,3.26-1.17,2.25-1.09,3.53-3.66,5.81-4.68a22.81,22.81,0,0,1,3.25-.87,3.88,3.88,0,0,0,2.63-1.92c-.26,2.36-2.26,4.15-3,6.4-.73,2.08-.35,4.36-.41,6.57s-.8,4.69-2.81,5.61"/><path class="cls-2" d="M96.9,39.94a19.72,19.72,0,0,1,5.9-3.87,10.84,10.84,0,0,0,2.57-1.4c1.86-1.47,3.06-3.14,5.38-4.06,1.25-.5,2.58-.69,3.83-1.23.85-.37.91-1.39-.09.2A24,24,0,0,0,112.1,34c-1.39,3.91,1.19,9.41-3.09,12-.41.25,0,.9.38.65,2.17-1.33,2.84-3.47,3-5.93.18-3-.27-5.39,1.26-8.22a16.82,16.82,0,0,0,2.18-4.65.38.38,0,0,0-.69-.29c-1.44,2.2-3.75,1.71-5.75,2.65-1.54.73-2.49,2.07-3.76,3.14-1.75,1.48-3.85,1.85-5.74,3a21.57,21.57,0,0,0-3.53,3c-.35.33.18.86.53.53Z"/><path class="cls-2" d="M109.28,46.08a13.12,13.12,0,0,0,7.12-3.6,16.61,16.61,0,0,1,1.76-1.68,12.69,12.69,0,0,1,2.11-1.13,25.27,25.27,0,0,0,6.25-4.22c-1.56,3.43-3.13,6.94-3.48,10.69-.1,1.13-.17,2.42-1.05,3.13-.44.35-1,.5-1.39.94-.52.65-.28,1.59-.34,2.42a3.27,3.27,0,0,1-1.83,2.68"/><path class="cls-2" d="M109.38,46.44a15.41,15.41,0,0,0,7.29-3.7,41,41,0,0,1,6-3.94c.41-.25,3.15-1.95,3-2.25.07.2-1.71,3.87-1.76,4-.56,1.61-.76,3.25-1.2,4.87-.08.28-4.24,9.34-4.51,9.54s0,.93.38.65a4.59,4.59,0,0,0,2-2.9c.3-.94-.09-.83.42-1.82s.72-.64,1.24-1.41a7,7,0,0,0,1.13-3.36,43.1,43.1,0,0,1,3.42-10.51.38.38,0,0,0-.59-.45c-2.6,2.28-5.6,3.35-8.32,5.32-3,2.2-4.86,4.42-8.75,5.22-.47.1-.27.82.2.72Z"/><path class="cls-2" d="M119.44,55.05c-.18-.87,1.09-1.2,2-1.19a19.55,19.55,0,0,0,11.16-3.43c2.19-1.51,4.33-3.57,7-3.52q-4,4.2-7.62,8.67a6.27,6.27,0,0,0-1.09,1.68,9.31,9.31,0,0,0-.37,2,10.32,10.32,0,0,1-4.67,7.17"/><path class="cls-2" d="M119.8,55.15c.39-1.15,8.07-1.9,9.46-2.49a23.54,23.54,0,0,0,4.44-2.58c.63-.45,1.23-1,1.9-1.36l1-.6q2.7-1.17,1.25.1c-.43,1.36-2.87,3.2-3.83,4.32a24.63,24.63,0,0,0-3,3.64,7.41,7.41,0,0,0-.77,2.06c-.88,3.46-1.53,5.69-4.61,7.87-.39.28,0,.93.38.65a11.61,11.61,0,0,0,4.73-6.86,15.52,15.52,0,0,1,3.79-6.84c1.72-2,3.5-4,5.3-5.9.2-.22.08-.67-.27-.64-4.52.41-7.57,4.44-11.79,5.9-2.34.81-5.25.27-7.41,1.18-1,.44-1,.35-1.29,1.34-.15.46.57.66.72.2Z"/><path class="cls-2" d="M125.68,66.36c3.77-2.33,8.74-1.19,12.9-2.73,1.17-.43,2.25-1.07,3.43-1.49a5,5,0,0,1,3.65-.1c-2.39,1.1-4.86,2.25-6.57,4.26a30.07,30.07,0,0,0-1.77,2.5,23.24,23.24,0,0,1-8.56,7.47"/><path class="cls-2" d="M125.87,66.68c3.34-1.75,6.9-1.39,10.47-2.08a18.48,18.48,0,0,0,3.57-1.14c1.3-.53,6.47-2.48,2.59-.28a15.33,15.33,0,0,0-4.94,4.57,26.45,26.45,0,0,1-9,8.18c-.42.23,0,.88.38.65a24.88,24.88,0,0,0,7.88-6.5c.89-1.13,1.58-2.44,2.52-3.52,1.74-2,4.15-3.11,6.5-4.2a.38.38,0,0,0-.09-.69c-3.51-.86-6.25,1.52-9.61,2.2-3.69.75-7.22.35-10.65,2.15-.43.22,0,.87.38.65Z"/><path class="cls-2" d="M129.46,76.06c2.72,1.59,6.19.52,9.28,1.13,2.22.44,4.15,1.73,6.15,2.8s4.27,1.94,6.48,1.45l-3.52.27a26.44,26.44,0,0,0-8.26,1.52,13.29,13.29,0,0,1-3.31,1.21,17.7,17.7,0,0,0-2.31.2c-1.13.3-2,1.23-3,1.83-.21.13-.64-.05-.44-.19"/><path class="cls-2" d="M129.27,76.38c3.83,1.69,8,.4,11.86,2.07,3.52,1.52,6.21,3.79,10.24,3.36.47,0,.49-.79,0-.75-3.74.28-7.64.31-11.21,1.57-2,.71-4.21.94-6.17,1.63-.25.09-3.2,1.43-3.05,1.91-.14-.46-.87-.26-.72.2l.06.2a.38.38,0,0,0,.36.28c.71,0,.86-.41,1.54-.72a19.08,19.08,0,0,1,4.23-1.32c1.62-.38,3-1.2,4.62-1.69A34.2,34.2,0,0,1,148.44,82c4-.31-.63-1.21-2.15-1.83-1.69-.69-3.18-1.76-4.85-2.49-3.82-1.68-8-.31-11.78-2-.44-.19-.82.45-.38.65Z"/><path class="cls-2" d="M67.2,40.19c1.29-2.19,2.61-4.49,2.75-7,.1-1.78-.39-3.59-.05-5.34a19.24,19.24,0,0,1,1-2.88,29,29,0,0,0,1.29-8c2.45,2,1.64,6.15,3.54,8.7a22.06,22.06,0,0,0,1.66,1.75c2.7,2.91,3.11,7.36,5.64,10.42.12.15.33.31.49.2s-.22-.33-.17-.15"/><path class="cls-2" d="M67.52,40.38a20.44,20.44,0,0,0,2.57-5.62c.42-1.91-.05-3.7.06-5.61.16-2.74,1.6-5.31,2-8a23.92,23.92,0,0,1,.28-2.52c.66-.26,1.39,3,1.48,3.24.46,1.4.61,2.79,1.47,4,1.22,1.75,2.76,3.08,3.76,5.06S81,37.44,83.4,38.4c.28.11.52-.21.46-.46l0-.19a.38.38,0,0,0-.46-.26l-.12,0c-.46.15-.26.87.2.72-.12,0-4.91-9.91-5.8-11.09a18.13,18.13,0,0,1-3.26-6.72,7.93,7.93,0,0,0-1.93-3.73.38.38,0,0,0-.64.27c-.28,3.91-1.66,7.13-2.27,10.84a22.56,22.56,0,0,0,0,4c0,3.13-1.17,5.55-2.69,8.17a.38.38,0,0,0,.65.38Z"/><path class="cls-5" d="M82,85.5l-26.49.29q0-.15,0-.29c0-13.17,12-24,26.49-24s26.49,10.83,26.49,24Z"/></g></g></svg>