<svg xmlns="http://www.w3.org/2000/svg" viewBox="0 0 189 189"><defs><style>.cls-1{fill:#e6e6e6;}.cls-2{fill:#4d4d4d;}</style></defs><title>Hera</title><g id="Camada_2" data-name="Camada 2"><g id="Camada_1-2" data-name="Camada 1"><path class="cls-1" d="M94.5,188.86A94.36,94.36,0,1,1,188.85,94.5,94.46,94.46,0,0,1,94.5,188.86Z"/><path class="cls-2" d="M94.5.29A94.21,94.21,0,1,1,.29,94.5,94.32,94.32,0,0,1,94.5.29m0-.29A94.5,94.5,0,1,0,189,94.5,94.5,94.5,0,0,0,94.5,0Z"/><path class="cls-2" d="M91.5,40A59.5,59.5,0,1,1,32,99.5,59.57,59.57,0,0,1,91.5,40m0-5A64.5,64.5,0,1,0,156,99.5,64.5,64.5,0,0,0,91.5,35Z"/><path class="cls-2" d="M72.51,51.18C80,48.08,85,42.33,90.29,36.37c6.91-7.75,15.14-14.29,26.06-10.3,5.75,2.1,9.8,5.23,11.62,11.2,1.27,4.18,2.37,8.42,3.55,12.63,2.18,7.76,3.41,17.47,8.42,24,5.17,6.79,14.3,9,18.77,16.56,2.52,4.23,3.35,9.54,1,14-2.11,4-6.26,5.4-10,7.49-6.23,3.51-7.57,8.45-7.11,15.38a24,24,0,0,0,1.94,8.74,13.07,13.07,0,0,0,2.36,3.52c.94,1,1.79,1.95,2.33,1.21l1.69-.69-.45-.18c-1.79-.72-2.57,2.18-.8,2.89l.45.18a1.52,1.52,0,0,0,1.69-.69l.36-.48a1.47,1.47,0,0,0,0-1.51c-1.28-2.21-3.73-3.16-4.93-5.62-1.5-3.07-1.77-6.74-1.74-10.11.1-9.68,7.53-9.55,13.44-14.56,9.34-7.9,4.45-21.3-3.71-27.86C149.6,77.7,143,75,140,67.92c-3.25-7.63-4.87-16.25-7.11-24.23-1.53-5.46-2.33-11.79-6.9-15.63s-11.26-6.54-17.33-6.33c-16.82.58-22.78,20.72-36.95,26.55-1.76.72-1,3.63.8,2.89Z"/><path class="cls-2" d="M85.42,39.65c1,5.62,3.22,7.65,7.77,10.73,5.22,3.53,10.93,15.6,6.15,21.49l2.51,1.46c2.78-7.31,6.19-16.89,3-24.64a13.69,13.69,0,0,0-5.38-6.33,22.33,22.33,0,0,0-5-2.24c-1.7-.57-5.8-.83-6.84-2.37s-3.68-.09-2.59,1.51c1.34,2,2.82,2.19,5.08,2.76,3.91,1,7.95,2.12,10.52,5.46,5.3,6.91,1,17.86-1.71,25A1.51,1.51,0,0,0,101.46,74c4-4.9,2.31-12,.22-17.48a17.47,17.47,0,0,0-4.85-7.22,45.07,45.07,0,0,0-4-2.66c-2.9-2-3.91-4.46-4.51-7.77-.34-1.9-3.23-1.09-2.89.8Z"/><path class="cls-2" d="M94.76,28.24C86.47,27.72,89,19.4,89,14.11c0-3.46-2.51-5.52-5.15-7.38L82.65,9.48c3.93,1.4,8,3.35,10.24,7,2.51,4.09,1.27,8.25-.46,12.37l2.89.8.14-.76c.34-1.89-2.55-2.7-2.89-.8l-.14.76a1.5,1.5,0,0,0,2.89.8c2.07-4.92,3.09-9.86.16-14.68-2.68-4.4-7.34-6.75-12-8.42C81.74,6,81,8.41,82.29,9.32c3.5,2.47,3.34,5.5,3.07,9.43a15,15,0,0,0,.8,6.5,9.33,9.33,0,0,0,8.6,6c1.93.12,1.92-2.88,0-3Z"/><path class="cls-2" d="M131,38.56c1.11-.52.8-1.19,1.29-2.09,2.16-4,4.2-5.77,9.14-4.23a27.56,27.56,0,0,1,4.28,2.08c3.65,1.86,7.39,2.27,10.34-1l-2.36-1.82c-2.8,4.26-3.9,10.1-9.81,11.2-5.39,1-8-3.75-12.73-4.9l1,1.85.45-1.08c.74-1.78-2.16-2.56-2.89-.8l-.45,1.08a1.51,1.51,0,0,0,1,1.85c3.13.77,5.07,3.47,8.06,4.53a11.72,11.72,0,0,0,7.59,0c6-2.07,7.12-7.42,10.27-12.2a1.51,1.51,0,0,0-2.36-1.82c-3.56,3.89-8.18-.79-11.49-1.92a11.88,11.88,0,0,0-6.46-.49,8.77,8.77,0,0,0-4.85,2.84A24.78,24.78,0,0,0,129.47,36c-1.75.82-.22,3.41,1.51,2.59Z"/><path class="cls-2" d="M136.28,66.22c-3.9-.52-8.79,1.81-11.42,4.75-3.14,3.52-3.52,15.73-11.09,13.12l.36,2.74c2.92-1.33,6.93-.61,10.11-1.22a22.83,22.83,0,0,0,8-3.09,12.73,12.73,0,0,0,4.68-4.71c1.28-2.59.18-6.22,2-8.41,1.21-1.48-.9-3.62-2.12-2.12A8.05,8.05,0,0,0,135,71.7c-.31,2-.18,3.3-1.23,5.11a10.92,10.92,0,0,1-5.49,4.41c-5.09,2.27-10.76.79-15.66,3-1.27.58-.74,2.36.36,2.74,4,1.38,7.54-1.06,9.83-4.34,1.49-2.13,1.94-4.32,2.77-6.72,1.38-4,6.45-7.27,10.71-6.71,1.91.25,1.89-2.75,0-3Z"/><path class="cls-2" d="M163.38,96.31a5.13,5.13,0,0,1,4-2.46c1.88-.11,2.77,1.18,4.07,2.27a15,15,0,0,0,4.42,3c2.39.92,4.62.92,6.61-.73l-2.12-2.12c-1.34,1.42-2.43,3.16-3.9,4.44A5.34,5.34,0,0,1,168,99.1c-1-2.23-1.46-3.28-3.79-4.61l.54,2.05.5-.78c1.05-1.63-1.55-3.13-2.59-1.51l-.5.78a1.52,1.52,0,0,0,.54,2.05c2,1.15,2.09,3.74,3.7,5.31a10.91,10.91,0,0,0,5.4,2.93c5,.84,7.69-3.84,10.64-6.94,1.35-1.42-.65-3.33-2.12-2.12-3.53,2.92-8.42-5.23-12.28-5.53-3.08-.23-5.64,1.63-7.3,4.06-1.09,1.6,1.51,3.1,2.59,1.51Z"/><path class="cls-2" d="M157.41,112c3.49-2.12,8,1.2,7.46,5.08-.3,2-1.28,3.43-.83,5.52.84,3.91,4.83,5.4,8.24,6.38l.4-2.95a19.55,19.55,0,0,1-11.62-3c-2-1.32-2.56-3-3-5.25-.34-1.57-1.62-4.71-.26-6.05a1.52,1.52,0,0,0,0-2.12l-.41-.42c-1.35-1.38-3.47.74-2.12,2.12l.41.42v-2.12c-1.45,1.43-1.6,3.1-1.33,5.06.36,2.62.78,6.08,2.28,8.31,3.19,4.75,10.82,6.25,16.09,6.07a1.51,1.51,0,0,0,.4-2.95c-2-.58-4.77-1.17-5.8-3.26s.41-4,.74-6a5.7,5.7,0,0,0-1.26-4.82c-2.61-3.27-7.15-4.86-10.86-2.61-1.65,1-.14,3.6,1.51,2.59Z"/></g></g></svg>