<svg xmlns="http://www.w3.org/2000/svg" viewBox="0 0 163 163"><defs><style>.cls-1{fill:#e6e6e6;}.cls-2{fill:#4d4d4d;}.cls-3{fill:#b3b3b3;stroke:#4d4d4d;stroke-miterlimit:10;stroke-width:0.29px;}.cls-4{fill:#ccc;}.cls-5{fill:#f2f2f2;}</style></defs><title>Ativo 9</title><g id="Camada_2" data-name="Camada 2"><g id="Camada_1-2" data-name="Camada 1"><path class="cls-1" d="M81.5,162.88A81.38,81.38,0,1,1,162.88,81.5,81.47,81.47,0,0,1,81.5,162.88Z"/><path class="cls-2" d="M81.5.25A81.25,81.25,0,1,1,.25,81.5,81.34,81.34,0,0,1,81.5.25m0-.25A81.5,81.5,0,1,0,163,81.5,81.5,81.5,0,0,0,81.5,0Z"/><circle class="cls-3" cx="80" cy="78" r="23"/><path class="cls-4" d="M66.8,58.49a25,25,0,0,1,1-18.41c3-6.47,8.58-11.28,13.15-16.75A62.83,62.83,0,0,0,89,10.94c1.57,2,.21,4.78-.32,7.25C87.52,23.6,90.82,28.81,92.78,34a33.8,33.8,0,0,1,.07,23.45"/><path class="cls-2" d="M67.16,58.39C64,47.89,67.61,38.91,74.57,31c2.54-2.9,5.26-5.63,7.66-8.66C84.09,20,85.65,16,87.78,14Q89,10.7,89.1,15l-.41,1.54c-.17,1.7-.7,3.09-.6,4.83.16,2.83,1.33,5.5,2.39,8.09,3.87,9.38,5.36,18,2,27.84-.16.46.57.65.72.2a35.13,35.13,0,0,0-.07-23.65c-1.88-5.14-5-9.87-4.1-15.59.46-2.91,1.61-4.8.28-7.53a.38.38,0,0,0-.65,0C84,19.83,76.82,26.27,70.84,34.32a26.67,26.67,0,0,0-4.41,24.27.38.38,0,0,0,.72-.2Z"/><path class="cls-4" d="M92.64,58c-.29,0-.27-.43-.12-.68a19.31,19.31,0,0,1,15.31-9c3.39-.15,6.82.61,10.18.09a27,27,0,0,0,5.31-1.59,69.78,69.78,0,0,0,10.14-4.45c-1.69.45-2.8,2-3.76,3.47a37,37,0,0,0-4.37,8.1c-.71,2.08-1.07,4.26-1.84,6.32A16.9,16.9,0,0,1,118,67.75a31.84,31.84,0,0,1-5.15,3A20.71,20.71,0,0,1,106.91,73c-1.66.27-3.61,0-4.6-1.34"/><path class="cls-2" d="M92.9,57.77c-1.85-1.92,9.37-7.9,10.16-8.15,3.93-1.28,7.58-.64,11.57-.62,6.58,0,13.31-3.19,19-6.27.43-.23.05-.84-.38-.65-4.65,2.11-7.37,8.76-8.78,13.37-1.61,5.25-3.08,9.59-7.93,12.83-3.48,2.33-10.2,6.55-14,3.11-.36-.32-.89.2-.53.53,4.41,4,12.46-1,16.19-3.91a18.22,18.22,0,0,0,6.13-9.18c1-3.08,1.65-6,3.22-8.85.57-1,4.31-6,4-6.5-.41-.73-6.63,2.35-8.39,3a24.14,24.14,0,0,1-9.43,1.71c-4.31-.15-8.17-.47-12.25,1.18-1.67.68-11.49,6.5-9.16,8.92.34.35.87-.18.53-.53Z"/><path class="cls-4" d="M102.42,71.81a72,72,0,0,1,13.88,8.29c2.66,2,5.28,4.39,6.37,7.55s.51,6.34.69,9.53a21.29,21.29,0,0,0,8.24,15.47c-4.69-1.14-9.83-2.59-12.44-6.64-1.45-2.26-2-5.18-4.1-6.85-1.64-1.3-3.84-1.54-5.88-2-4.16-.93-8.37-3.35-9.79-7.37"/><path class="cls-2" d="M102.23,72.14c8.48,4,20.24,9.66,20.73,20.22.28,6,.49,11.21,4.19,16.26a34.41,34.41,0,0,0,3.08,3.33,32.36,32.36,0,0,1-4.18-1.32c-5.36-2.13-6.27-5.4-9-9.64a8.12,8.12,0,0,0-4.69-3.51c-5.24-1.78-10.08-2.1-12.66-7.88-.2-.44-.84-.06-.65.38a12.08,12.08,0,0,0,5.85,6.07c4.49,2.28,9.09,1.44,12.12,6.5,1.57,2.63,2.29,4.93,4.9,6.78,2.81,2,6.29,2.85,9.57,3.67.34.08.67-.38.36-.63a21.45,21.45,0,0,1-7.94-13.76c-.53-3.92.37-8.08-1.22-11.81-3.13-7.39-13.38-12.17-20.11-15.32-.43-.2-.82.44-.38.65Z"/><path class="cls-4" d="M99.8,90.37c.84,4,3.44,7.27,5.41,10.81a36.71,36.71,0,0,1,4.5,20.58c-.22,2.85-.78,5.68-.75,8.54a11.74,11.74,0,0,0,2.69,7.94c-3.48-6.7-7.09-13.58-12.81-18.5-3.4-2.92-7.48-5.09-10.35-8.53s-4.18-8.87-1.3-12.29"/><path class="cls-2" d="M99.44,90.47c1,3.79,3.14,6.87,5.07,10.24a37,37,0,0,1,4.87,16.12c.45,7.3-3,15.33,2,21.67.27.35.78-.1.59-.45-3.23-6.21-6.55-12.61-11.67-17.49-5.57-5.3-19.42-11.76-12.79-21.45.27-.4-.38-.77-.65-.38-3.18,4.65-1.19,10.22,2.49,14,3.13,3.19,7.18,5.3,10.42,8.38a49.93,49.93,0,0,1,8.89,12.32,17.39,17.39,0,0,0,1.54,2.87c1.24,1.44-.25-1.65-.42-2.51a25.26,25.26,0,0,1-.16-7.73,48.83,48.83,0,0,0,.17-12.51,37.14,37.14,0,0,0-3.13-10.33c-2.07-4.4-5.21-8.15-6.49-12.92a.38.38,0,0,0-.72.2Z"/><path class="cls-4" d="M65.07,96a15.25,15.25,0,0,0-.1,17.15c1.68,2.4,4,4.25,5.83,6.55,4.75,6,5.28,14.28,5.27,21.95a26.46,26.46,0,0,1,8.55-18.76c2.93-2.66,6.82-5.39,6.56-9.34A1.42,1.42,0,0,0,90,112.18a3,3,0,0,1-1.72-.89,8.39,8.39,0,0,1-2.37-3.7,12.8,12.8,0,0,1-.39-1.78,9.18,9.18,0,0,1,0-3.56,9.56,9.56,0,0,0,.42-1.87l-.43.62"/><path class="cls-2" d="M64.75,95.82a15.82,15.82,0,0,0,.79,18.69c2.84,3.54,6.12,6.26,7.85,10.61,2.09,5.25,2.29,11,2.32,16.54a.38.38,0,0,0,.75,0,26.72,26.72,0,0,1,5.43-15.17c2.33-3,5.69-5.06,8-8.1,1.26-1.69,2.23-3.8,1.34-5.85-.18-.43-.79-.38-1.07-.7-1.78-2.11-3.61-3.34-4.16-6.08a13.34,13.34,0,0,1,.29-5.27.38.38,0,0,0-.69-.29l-.43.62c-.28.4.37.77.65.38-4.42,6.39,7.69,12.09,2.6,17.76-2.44,2.72-5.43,4.72-7.59,7.72a26.92,26.92,0,0,0-4.7,11.14c-.17,1-.18,3.74.34,1.54.47-2-.2-5-.47-7a29.38,29.38,0,0,0-2.81-9.64c-2-3.83-5.51-6.21-7.86-9.74a15.21,15.21,0,0,1,.1-16.78c.26-.41-.39-.78-.65-.38Z"/><path class="cls-4" d="M64.5,97A4.9,4.9,0,0,0,61,96.65a10.65,10.65,0,0,0-3.22,1.81c-3.32,2.36-7,4.38-11,5s-8.46-.54-11.13-3.61a21.5,21.5,0,0,0-2.09-2.43,10.25,10.25,0,0,0-3.68-1.72l-8.15-2.56A15.53,15.53,0,0,0,32.9,89.5c1.76-1.5,3.16-3.37,4.86-4.93a19,19,0,0,1,20.37-3.18"/><path class="cls-2" d="M64.6,96.68c-5.73-2.14-10.93,4.79-16.28,6-5.85,1.37-9.42-.68-13.48-4.44-2.29-2.13-4.38-2.82-7.38-3.76-.54-.17-4.42-1.23-4.29-1S26.77,93,27,93a16.2,16.2,0,0,0,6.8-3.79c3.56-3.25,6.13-6.63,11-8.16A19.14,19.14,0,0,1,58,81.75c.45.18.64-.54.2-.72a19.81,19.81,0,0,0-15.81.06c-3,1.37-5,3.39-7.33,5.71-3.93,3.89-7.74,6.12-13.44,5.92a.38.38,0,0,0-.1.74c2.17.68,4.36,1.33,6.52,2,3.28,1.08,4.76,2.27,7.24,4.57a13.08,13.08,0,0,0,7.21,3.71,17.27,17.27,0,0,0,9.27-1.44c3.92-1.65,8.06-6.63,12.6-4.93.45.17.65-.56.2-.72Z"/><path class="cls-4" d="M55.65,81.4a65.54,65.54,0,0,0-14.53-9.34c-2.44-1.15-5-2.18-7-4-5.54-5.11-4.75-14.6-10-20a23.89,23.89,0,0,0,23.26,7.79c3-.7,5.88-2,8.95-2,4.35,0,8.26,2.49,11.88,4.91"/><path class="cls-2" d="M55.92,81.14a70.88,70.88,0,0,0-10-7c-4-2.3-9.32-3.7-12.43-7.28-2.92-3.37-3.68-7.95-5.15-12a26.47,26.47,0,0,0-1.61-3.77s-2-3-1.7-2c1.32,4.55,10.8,7.24,15.24,7.62,3.87.33,7.06-.59,10.77-1.5,6.84-1.67,11.38.16,17,3.87.4.27.78-.38.38-.65-3.15-2.09-6.51-4.35-10.36-4.85-3.17-.41-5.95.67-9,1.43-9.2,2.31-18.25,0-24.68-7.22-.32-.36-.85.17-.53.53,4.81,5.5,4.32,13.61,9.11,19.05,2.53,2.87,6.21,4.09,9.53,5.76a69.07,69.07,0,0,1,12.89,8.53c.37.31.9-.22.53-.53Z"/><path class="cls-4" d="M64.33,27.81c2,.25,9.27,2.33,7.2,5.42l-2.78,4.15a19,19,0,0,0-1.11,1.8,19,19,0,0,0-1.22,3.3A27.92,27.92,0,0,0,65,48.93a27.94,27.94,0,0,0,1.05,7.83c.09-.11-.06-.25-.18-.31l-4.59-2.19a7.93,7.93,0,0,0-2.53-.87c-1.09-.11-2.22.22-3.27-.07-1.8-.49-3.11-3.15-3.84-4.72a15.16,15.16,0,0,1-1.39-6,45.13,45.13,0,0,1,.34-4.81,45.73,45.73,0,0,0-1.32-15.67c.88,2.72,3.71,4.38,6.51,5S61.49,27.46,64.33,27.81Z"/><path class="cls-2" d="M64.23,28.18c4.14.69,8.62,2.41,5.58,6.95a29.42,29.42,0,0,0-4.66,10.45,19.71,19.71,0,0,0-.53,4.94c0,1.62,1.26,4,1.14,5.27-.3,3.32.66.06.33.37A23.29,23.29,0,0,1,63.77,55a30.85,30.85,0,0,0-4.91-2c-.54-.15-1.22.2-1.75,0a9.39,9.39,0,0,1-4.63-3.58c-1.58-2.43-1.86-5.71-1.8-8.5.11-4.68.68-9.07,0-13.77-.16-1.13-.26-3.42-1.08-3.58.6.11,2.37,2.35,3.25,2.81,3.45,1.79,7.71,1.41,11.47,1.75.48,0,.48-.71,0-.75-5.31-.48-12,.28-14.73-5.54-.19-.4-.78-.11-.69.29a49.88,49.88,0,0,1,1.31,15.57C50,41.4,49.65,44.53,51,48c.68,1.75,1.61,4.09,3.28,5.14s.64.14,2.83.68c1.54.38,7.44,1.16,8.62,3.14a.38.38,0,0,0,.69-.29c-1.34-5.87-1.3-11.78,1.54-17.28,1-2,4.16-4.65,4.28-6.89.17-3.37-5.34-4.63-7.8-5C64,27.37,63.76,28.1,64.23,28.18Z"/><path class="cls-5" d="M94.77,53.42l-.2.5.77-6.71c.05-.45.1-.91.13-1.36a26.79,26.79,0,0,0-.41-5.51,17.53,17.53,0,0,0-.64-3.11c-.41-1.23-1.37-2.62-.35-3.72a7.15,7.15,0,0,1,3.43-1.86c1.63-.43,3.33-.56,4.94-1.05a22.15,22.15,0,0,0,3.84-1.74l8.45-4.49c-1.57,3.31-2.16,7.5,0,10.48.92,1.28,2.26,2.21,3.16,3.51a6.79,6.79,0,0,1-2.57,9.58"/><path class="cls-2" d="M94.41,53.32A25.63,25.63,0,0,0,95,37.9a8.47,8.47,0,0,0-.7-2L97.61,32c1-.59,2.95-.54,4.12-.85a30.32,30.32,0,0,0,6.43-2.87c.87-.46,5.1-3.27,5.67-2.74a51.09,51.09,0,0,0-.84,5.55c.63,6,10.56,11.32,2.12,16.51-.41.25,0,.9.38.65a7.37,7.37,0,0,0,3.69-7.63,6.34,6.34,0,0,0-1-2.54c-1.47-2.27-3.31-2.69-4.18-5.77-.73-2.57.11-5.41,1.11-7.76.14-.33-.16-.7-.51-.51-4.46,2.37-8.92,5.3-13.83,6.59-2,.51-5.65.57-6.93,2.65-1.16,1.89.2,3.66.67,5.59,1.22,5,.32,10-.26,15.05-.05.45.59.46.74.1l.2-.5c.18-.45-.55-.64-.72-.2Z"/><path class="cls-5" d="M128.76,68.07a16.53,16.53,0,0,1,1.43,3,13,13,0,0,0,5.67,5.63,38.62,38.62,0,0,0,7.59,2.87l-5-.26a6.27,6.27,0,0,0-2.34.18,7.84,7.84,0,0,0-2.77,2.21A16.1,16.1,0,0,1,121,86.34a5.18,5.18,0,0,0-1.31-3.8,19.44,19.44,0,0,0-3.12-2.79l-1.52-1.18a23.82,23.82,0,0,0-5.35-3.41c-1.19-.49-2.57-.86-3.26-2a11.11,11.11,0,0,0,4.68-1.27l2.56-1.12a16,16,0,0,0,4.23-2.39c1-.9,1.86-2.54,3.29-2.84a10.84,10.84,0,0,1,3.86.37A5.93,5.93,0,0,1,128.76,68.07Z"/><path class="cls-2" d="M128.44,68.26c1.53,2.81,2.4,5.22,5,7.26,1.56,1.24,7,4.45,8.37,3.58-1.66,1.06-4.87-.67-7,.67-1.9,1.2-3.21,3.17-5.25,4.29-1.67.91-5.94,2.86-7.6,1.4s-2.19-3.58-3.95-5.1c-2.53-2.2-5.4-3.71-8.14-5.55-3.14-2.1-.9-1.57,1.42-2.5a44.24,44.24,0,0,0,4.13-1.83c4.52-2.39,7.7-7.44,13.12-2.15.35.34.88-.19.53-.53-1.82-1.78-5.32-3.37-7.94-2.55-1.56.49-2.46,2-3.66,3a23.47,23.47,0,0,1-11,4.61.38.38,0,0,0-.27.64c4.29,4.26,13.81,5.23,14.45,12.86a.38.38,0,0,0,.38.38,17.33,17.33,0,0,0,9.5-2.41c1.32-.81,2.22-1.92,3.45-2.79,3-2.13,6-1.76,9.47-1.59.43,0,.49-.62.1-.74a32.93,32.93,0,0,1-8.66-3.53c-3-1.94-4.18-4.8-5.8-7.78C128.86,67.45,128.21,67.83,128.44,68.26Z"/><path class="cls-4" d="M64.06,97.62a3.79,3.79,0,0,0-3.31-.35,13,13,0,0,0-3,1.62,53.92,53.92,0,0,1-9.31,4.73,5.46,5.46,0,0,0-3.32,3.27,12.25,12.25,0,0,0-.89,4.88c0,3,.7,5.93.5,8.89s-1.56,6.14-4.31,7.27c5.48-2.57,12-2.36,17.35-5.19a17,17,0,0,0,7.86-8.93"/><path class="cls-2" d="M64.25,97.29c-2.25-1-3.85-.39-6,.81-3.52,2-8,3.47-11.23,5.79-7.89,5.7,2.33,18.65-6.83,23.71-.36.2-.11.85.29.69,9.82-4.12,20.57-3,25.43-14.3.19-.44-.46-.82-.65-.38-3.09,7.17-9,9.89-16.26,11.45-2.43.52-5.23,1.66-7.27,2.22a2.52,2.52,0,0,0,.93-.51,8.33,8.33,0,0,0,1.43-2.18c1.91-4.11.36-8.53.47-12.83.11-4.51,1.59-6.52,5.55-8.45.81-.4,1.65-.74,2.46-1.13,2.93-1.43,7.91-5.77,11.28-4.24.44.2.82-.45.38-.65Z"/><path class="cls-5" d="M100.91,93.4a52.58,52.58,0,0,1,5.57,9.49,31.22,31.22,0,0,1,1.4,3.14c.31.85.55,1.73.78,2.61.31,1.16.62,2.32.86,3.49a26.9,26.9,0,0,1,.51,4.67,4.66,4.66,0,0,0,.08,1.75,3.19,3.19,0,0,0,1.29,1.21,10,10,0,0,0,3.38.85,16.65,16.65,0,0,1,9.44,5.09l-4.06-8.2a18.4,18.4,0,0,1-2.14-6c-.15-1.32,0-2.65-.12-4a16.55,16.55,0,0,0-3.18-7.93c-.66-.88-1.67-.8-2.67-1.06a26,26,0,0,1-4.33-1.68l-2.42-1.11a21.68,21.68,0,0,1-4.16-2.29.28.28,0,0,1,.4-.09"/><path class="cls-2" d="M100.59,93.59a50.72,50.72,0,0,1,6.94,12.53c1.39,3.82,1.14,7.84,2.1,11.62a3,3,0,0,0,1.68,2.37c1.44.84,3.33.75,4.91,1.18A17.35,17.35,0,0,1,124,126a.38.38,0,0,0,.59-.45c-2.37-4.78-5.83-9.92-6.22-15.32-.2-2.76-.29-5.09-1.48-7.68-1-2.1-1.69-3.31-3.71-4.13s-4.33-1.43-6.44-2.39c-1.15-.52-3.81-2.51-5.06-2.25.47-.1.27-.82-.2-.72l-.4.09a.38.38,0,0,0-.09.69A46,46,0,0,0,109,97.86c2.29.93,4.45,1,6.15,3.08a12.17,12.17,0,0,1,2.15,5.32c.57,3,.12,5.59,1.17,8.51a61.16,61.16,0,0,0,3,6.2l1.62,3.28q.78.3-.32-.4c-2.45-.86-4.41-2.78-7.13-3.44s-4,0-5.24-3.61c-.39-1.14-.18-2.75-.39-4a46.25,46.25,0,0,0-8.78-19.59c-.29-.38-.94,0-.65.38Z"/><path class="cls-5" d="M58.33,122.33c-.41,2.92,1.13,5.72,2.49,8.34s2.62,5.66,1.64,8.44c-.47-4.4,3.22-8,5.29-11.89a15.47,15.47,0,0,0,2-7.16c-.06-2-2.88-4.05-4.18-5.42a14.44,14.44,0,0,1-3.72,5.18c-.49.37-1,.67-1.53,1a13.2,13.2,0,0,0-2.17,1.82.68.68,0,0,1,.2-.64"/><path class="cls-2" d="M58,122.33c-.12,3.22,1.18,5.7,2.54,8.53.53,1.1.91,3.13,1.66,4.07,1.56,1.93.91,1,2-1.11s2.48-3.8,3.59-5.76c1.27-2.25,2.81-5.38,2.41-8-.36-2.44-2.64-4-4.28-5.63a.38.38,0,0,0-.59.08,16.4,16.4,0,0,1-3.92,5.15c-1,.87-2.23,1.21-2.63,2.51.14-.46-.58-.66-.72-.2l-.2.64a.38.38,0,0,0,.63.36c1.85-1.73,4-2.73,5.52-4.74.57-.74,1-2.47,2.12-2.53,2.67-.15,2.92,7.18,2.75,8-1.17,5.77-6.77,9.28-6.73,15.46a.38.38,0,0,0,.74.1c1.4-6.28-4.34-10.72-4.11-16.88,0-.48-.73-.48-.75,0Z"/><path class="cls-5" d="M45.33,40.57c1,.11,3.31-.26,4,.43s.2,2.33.29,3.13a15.9,15.9,0,0,0,3,7.32,5,5,0,0,0,2.14,2,8.41,8.41,0,0,0-3.29.58c-1.32.42-5,2.32-6,1.29a19,19,0,0,1-1.67-2.68c-.6-.87-1.23-1.71-1.79-2.6-2.72-4.3-3.85-9.38-4.94-14.35A11.84,11.84,0,0,0,45.33,40.57Z"/><path class="cls-2" d="M45.33,40.95c1.75.05,3.18.17,4,2,.15.33.12,2.3.19,2.61a16,16,0,0,0,2.85,6.1c1.36,1.81,2,1,.15,1.67s-4.31,2.09-6.2,1.37-3.58-4.11-4.61-6a36.58,36.58,0,0,1-3.25-8.82c-.13-.53-.5-3.18-1-3.12.07,0,1.73,1.64,1.65,1.58a12.74,12.74,0,0,0,6.08,2.56c.47.08.68-.64.2-.72a12.21,12.21,0,0,1-8.07-4.81c-.25-.32-.7,0-.63.36A53.34,53.34,0,0,0,44,53.7C44.87,55,45.11,55.88,46.7,56c2.69.14,5.34-2.09,8.13-2.16a.38.38,0,0,0,.19-.7c-2.43-1.4-4.28-5.15-4.78-7.75-.23-1.16.26-2.85-.23-3.91-.81-1.75-3.06-1.2-4.67-1.25C44.85,40.19,44.85,40.94,45.33,40.95Z"/><path class="cls-5" d="M36.3,86.07c-2.68.6-5.47-.38-7.86-1.74s-4.55-3.1-7-4.25a16.58,16.58,0,0,0-7.07-1.5c4.19-.4,8.52-.85,12.18-2.92,1.9-1.08,3.56-2.55,5.45-3.65a9.09,9.09,0,0,1,4.73-1.39c1.8.05,2.74.87,4.22,1.77a17.66,17.66,0,0,0,2,1,57,57,0,0,1,10,6.17"/><path class="cls-2" d="M36.3,85.69c-6.6.74-10.69-4.73-16.5-6.63a21,21,0,0,0-3.56-.76c.08,0-1.34.44.45.41A24.08,24.08,0,0,0,23,77.52c5.45-1.68,10.7-8.61,16.69-5.46a110.22,110.22,0,0,1,13.07,7.79c.39.28.77-.37.38-.65a89.06,89.06,0,0,0-11-6.63c-1.8-.93-3.31-2.21-5.42-2.34-2.91-.17-5.38,1.77-7.63,3.28-4.72,3.16-9.13,4.13-14.72,4.69a.38.38,0,0,0,0,.75c5.74.26,9.19,3.15,13.93,5.7a13.07,13.07,0,0,0,8,1.79c.47-.05.48-.8,0-.75Z"/><path class="cls-2" d="M36.18,86.63c1.91-2,3.47-4.06,6-5.36a15,15,0,0,1,10.68-1,.38.38,0,0,0,.2-.72,15.83,15.83,0,0,0-10.24.58c-3.14,1.33-4.92,3.55-7.18,6-.33.35.2.88.53.53Z"/><path class="cls-5" d="M97.17,125.48A11.91,11.91,0,0,0,98.53,121c.11-.81.29-1.28-.27-1.88a6,6,0,0,0-1.64-1,19.76,19.76,0,0,1-5.49-4.32,9.56,9.56,0,0,1-1.92,4,36.89,36.89,0,0,1-5.28,5.9c-1.13,1-1.68,1.3-.71,2.71a9.21,9.21,0,0,0,2.41,2.29,45.05,45.05,0,0,1,4.1,2.78c2.4,2.09,3.65,5.17,4.82,8.12-.83-4.13-.93-8.7,1.34-12.25C96.31,126.73,96.79,126.14,97.17,125.48Z"/><path class="cls-2" d="M97.49,125.67c.76-1.64,2.19-4.55,1.28-6.33-.38-.74-.85-.81-1.53-1.34-2-1.54-4.07-2.62-5.85-4.48a.38.38,0,0,0-.63.17c-1.18,4.21-4.4,6.63-7.1,9.76-.6.69-1.32.94-1.3,2,0,1.41,2.22,3,3.08,3.62,4.21,3.24,6.71,5.62,8.74,10.68a.38.38,0,0,0,.72-.2c-.93-5.3-.42-9.31,2.58-13.84.27-.4-.38-.78-.65-.38a17.29,17.29,0,0,0-2.77,5.56c-.58,2.39.29,4.95-.17,7.2.38-1.84-2.48-5.69-4.64-7.38-1.24-1-4-2.12-4.68-3.26-1.27-2.1,0-3.72,1.32-5.09a59.28,59.28,0,0,0,4.47-5.58c1.61-2.09,1.25-1.6,3.6.13.75.55,1.77,1,2.45,1.55,2.19,1.87,1.55,4.4.41,6.86C96.64,125.73,97.29,126.11,97.49,125.67Z"/><path class="cls-2" d="M65.78,114c-1.27-2.86-2.87-4.9-2.78-8.22.08-2.85.95-5.64,1.27-8.47.05-.48-.7-.47-.75,0-.39,3.48-1.68,7.06-1.17,10.6.35,2.43,1.81,4.27,2.78,6.46.2.44.84.06.65-.38Z"/><path class="cls-2" d="M94.18,54.07c3.17-1.67,6.24-4.21,9.68-5.19a23.52,23.52,0,0,1,7.14-.53q1.58.11,3.16.15a1.55,1.55,0,0,0,1.23-.93c-.47.08-.27.81.2.72l.22,0c.48-.08.27-.79-.2-.72-4.42.67-8.83-.59-13.16,1-3.06,1.12-5.76,3.37-8.65,4.89-.43.22,0,.87.38.65Z"/></g></g></svg>