<svg xmlns="http://www.w3.org/2000/svg" viewBox="0 0 163 163"><defs><style>.cls-1{fill:#e6e6e6;}.cls-2{fill:#4d4d4d;}</style></defs><title>heros</title><g id="Camada_2" data-name="Camada 2"><g id="Camada_1-2" data-name="Camada 1"><path class="cls-1" d="M81.5,162.88A81.38,81.38,0,1,1,162.88,81.5,81.47,81.47,0,0,1,81.5,162.88Z"/><path class="cls-2" d="M81.5.25A81.25,81.25,0,1,1,.25,81.5,81.34,81.34,0,0,1,81.5.25m0-.25A81.5,81.5,0,1,0,163,81.5,81.5,81.5,0,0,0,81.5,0Z"/><path class="cls-2" d="M76.3,134.81,53,103.37C46,94,38.9,84.2,36.31,72.78s.61-25,10.59-31.12c3.8-2.33,8.22-3.4,12.58-4.28C65.6,36.13,72,35.19,78,36.91s11.45,6.79,11.71,13c3.09-2.1,4.37-6,6.94-8.71,4.85-5.11,12.91-4.89,19.93-4.3,3,.25,6.14.56,8.56,2.34a14.08,14.08,0,0,1,3.79,4.86c11,20.41,4.9,48.38-13.53,62.42-7.15,5.45-15.64,8.83-23.16,13.75a66.79,66.79,0,0,0-17,16"/><path class="cls-2" d="M76.62,134.62q-12.14-16.39-24.29-32.79C45.1,92,37.35,81.25,36,68.76c-1.2-11.26,3.11-23.43,14-28.24,11.58-5.1,37.41-8.75,39.32,9.4a.38.38,0,0,0,.64.27c2.33-1.87,3.54-4.18,5.26-6.58a15,15,0,0,1,10-6.21c8.08-1.48,19.09-.9,23.39,6.91,6.18,11.22,6.82,25.13,3.2,37.26-4,13.5-13,23.26-25.08,30.09s-23.13,13.1-31.77,24.41c-.29.38.36.76.65.38,9-11.72,20.54-17.73,33-25,8.92-5.2,16.09-12.09,20.71-21.41a53,53,0,0,0,5.31-27.87c-.65-7.52-3.14-20.1-10.51-24-3.75-2-9.09-1.91-13.24-1.92-4.65,0-9.65.61-13.35,3.7-1.83,1.53-5.86,9.25-7.55,8.47-.08,0-2-4.88-2.28-5.3a17.12,17.12,0,0,0-5.44-4.83c-9.15-5.24-23.4-2.52-32.54,1.53-8.4,3.72-13.14,11.84-14.3,20.74-1.66,12.78,4.39,24.59,11.41,34.83C56,108.89,66.22,121.83,76,135c.28.38.94,0,.65-.38Z"/></g></g></svg>