<svg xmlns="http://www.w3.org/2000/svg" viewBox="0 0 189 189"><defs><style>.cls-1{fill:#e6e6e6;}.cls-2{fill:#4d4d4d;}</style></defs><title>Hestia</title><g id="Camada_2" data-name="Camada 2"><g id="Camada_1-2" data-name="Camada 1"><path class="cls-1" d="M94.5,188.86A94.36,94.36,0,1,1,188.85,94.5,94.46,94.46,0,0,1,94.5,188.86Z"/><path class="cls-2" d="M94.5.29A94.21,94.21,0,1,1,.29,94.5,94.32,94.32,0,0,1,94.5.29m0-.29A94.5,94.5,0,1,0,189,94.5,94.5,94.5,0,0,0,94.5,0Z"/><path class="cls-2" d="M94.13,163.5c-19.13,0-37.18-4.62-50.82-13-12.85-7.91-20.17-18.17-20.77-29,1.89,0,6.25-.05,16-.05,13.93,0,33,.05,44.89.08l10.67,0h71.58c-.62,10.85-7.94,21.09-20.76,29C131.3,158.88,113.25,163.5,94.13,163.5Z"/><path class="cls-2" d="M38.57,122.89c13.93,0,33.3.05,44.87.08l10.68,0h69.94c-1.19,9.76-8.15,19-19.91,26.2-13.41,8.25-31.18,12.8-50,12.8s-36.62-4.54-50-12.8c-11.79-7.25-18.76-16.49-19.92-26.28,2.4,0,6.71,0,14.4,0h0m0-3c-10.13,0-17.56,0-17.56.11,0,24.69,33,45,73.13,45s73.13-20.31,73.13-45H94.12c-4.2,0-35.29-.11-55.56-.11Z"/><path class="cls-2" d="M61.32,129.07c-5.43-3.81-11.16-8-13.5-14.2-2.09-5.57-1.07-11.74-1.07-17.69A50.36,50.36,0,0,0,36.33,66.69C40.78,72.34,48.89,74,53.63,79.37c4,4.58,4.92,11,5.65,17.09,1.39-4.56-1.23-9.42-.78-14.17s3.72-8.52,5.41-12.9a20.1,20.1,0,0,0-7-23c3.27,6.65,9.65,11.09,14.76,16.46s9.21,13.14,6.38,20a254,254,0,0,1,14.7-55.3,27,27,0,0,0,1.08,15.66c1.66,4.32,4.39,8.12,6.77,12.09,5.84,9.77,9.32,22.87,2.68,32.12a102.16,102.16,0,0,0,13-31.44l6.24,19.45c1.13,3.51,2.26,7.11,2.1,10.79s-1.92,7.52-5.22,9.14a31.17,31.17,0,0,0,18.31-21.6c-1.06,3,.85,6.2,2.43,9a46.82,46.82,0,0,1,5.83,28.65,43.35,43.35,0,0,1-6.41,17.7"/><path class="cls-2" d="M62.08,127.78c-4.7-3.31-9.83-6.9-12.36-12.26-3-6.43-1.19-14-1.54-20.79A52.66,52.66,0,0,0,37.63,65.94l-2.36,1.82C38.93,72,43.94,74,48.49,77c6.87,4.59,8.33,11.77,9.28,19.46.19,1.53,2.56,2.21,2.95.4,1.17-5.55-1.73-11-.33-16.44,1.33-5.16,5.14-9.17,6-14.55A22,22,0,0,0,57.7,45.14c-1.27-1-2.7.85-2.05,2.05,6.06,11.29,26.09,20.25,21,35.29l2.89.8A261.85,261.85,0,0,1,94.23,28l-2.89-.8c-2.17,11,2,19,7.55,28.17S108.52,76.83,102,86.7l2.59,1.51a108.3,108.3,0,0,0,13.11-31.8h-2.89q2.84,8.84,5.67,17.69c2,6.39,5.38,15.6-1.87,20-1.69,1-.21,3.35,1.51,2.59a33.23,33.23,0,0,0,19-22.5l-2.89-.8c-.65,3.31.24,5.77,1.78,8.72,2.51,4.84,4.77,9.56,5.85,14.95a43.15,43.15,0,0,1-5.64,31.31c-1,1.65,1.59,3.16,2.59,1.51a45.79,45.79,0,0,0,6.89-26.3,48.49,48.49,0,0,0-2.57-13.23c-1.63-4.72-7-11.14-6-16.17.37-1.87-2.41-2.69-2.89-.8a30.48,30.48,0,0,1-17.62,20.7l1.51,2.59c5.14-3.13,6.57-8.79,5.69-14.49-1.39-9-5.35-18-8.12-26.59a1.51,1.51,0,0,0-2.89,0A105.76,105.76,0,0,1,102,86.7c-1,1.66,1.53,3.12,2.59,1.51,5.17-7.84,4.42-17.32,1.15-25.79-1.81-4.66-4.45-8.76-7-13-4.09-6.75-6.05-13.55-4.5-21.43a1.5,1.5,0,0,0-2.89-.8,261.85,261.85,0,0,0-14.7,55.3,1.5,1.5,0,0,0,2.89.8c5.67-16.68-14.75-25.43-21.29-37.6l-2.05,2.05c8.28,6.34,8.9,16.44,4.36,25.16-1.56,3-3.26,5.95-3.56,9.4-.4,4.68,1.83,9.08.84,13.77l2.95.4C60,90.11,59.1,83.29,54.69,78.31c-4.84-5.47-12.49-7.15-17.29-12.68-1.1-1.27-3.38.44-2.36,1.82a50.92,50.92,0,0,1,8.52,17.17c1.88,6.93,1.52,13.58,1.46,20.66-.1,11.95,6.27,18.55,15.55,25.09,1.58,1.11,3.08-1.49,1.51-2.59Z"/></g></g></svg>