<svg xmlns="http://www.w3.org/2000/svg" viewBox="0 0 189 189"><defs><style>.cls-1{fill:#e6e6e6;}.cls-2{fill:#4d4d4d;}</style></defs><title>hiperion</title><g id="Camada_2" data-name="Camada 2"><g id="Camada_1-2" data-name="Camada 1"><path class="cls-1" d="M94.5,188.86A94.36,94.36,0,1,1,188.86,94.5,94.46,94.46,0,0,1,94.5,188.86Z"/><path class="cls-2" d="M94.5.29A94.21,94.21,0,1,1,.29,94.5,94.32,94.32,0,0,1,94.5.29m0-.29A94.5,94.5,0,1,0,189,94.5,94.5,94.5,0,0,0,94.5,0Z"/><path class="cls-2" d="M80.5,102.08A27.42,27.42,0,1,1,53.08,129.5,27.46,27.46,0,0,1,80.5,102.08m0-3.08A30.5,30.5,0,1,0,111,129.5,30.5,30.5,0,0,0,80.5,99Z"/><path class="cls-2" d="M73.92,90.84c-5.45-4.65-5.3-13.68-2.58-19.62S76.82,59.51,77.81,53c1.67-11.06-2.16-23.22-12.69-28.49-5.16-2.59-9.73,5.17-4.54,7.77,13.18,6.6,8.48,23.24,3.39,33.63-2.93,6-4,10.82-3,17.5.75,5.26,2.47,10.28,6.61,13.82,4.38,3.74,10.78-2.6,6.36-6.36Z"/><path class="cls-2" d="M90.4,89.65c-2.55-5.78,1.52-14.12,5.95-17.79,5.13-4.25,10.11-8.33,14-13.86,6.78-9.75,7.76-22.46.25-32-3.58-4.55-9.9,1.86-6.36,6.36,9,11.48-4,25-12.49,31.8-8.7,6.92-13.81,19.33-9.07,30,2.34,5.29,10.09.71,7.77-4.54Z"/><path class="cls-2" d="M113.43,99c-1.75-15.16,18.21-17.79,27.32-24.63s15.4-18.83,11.05-30.31c-2-5.37-10.73-3-8.68,2.39,5.24,13.85-9.19,22.92-20.11,27.2-9.93,3.9-19.95,13.6-18.59,25.34.66,5.69,9.67,5.75,9,0Z"/><path class="cls-2" d="M122.69,118.59c.28-7.19,8-12.44,14.23-13.88,6-1.38,11.92-3,17.34-6,10.28-5.72,17.12-16.6,14.62-28.51-1.19-5.66-9.87-3.27-8.68,2.39,3,14.41-13.94,20.81-24.87,23.23-10.67,2.36-21.18,11-21.64,22.73-.23,5.79,8.77,5.78,9,0Z"/><path class="cls-2" d="M55.51,97.1c-5.68-2.23-8.7-11-8.21-16.49.62-7,1.55-13.61.28-20.6C45.47,48.44,37.32,39,25.45,37.44c-5.72-.76-5.67,8.25,0,9,14.91,2,14.38,21.47,13.09,32.36-1.26,10.63,4.18,22.89,14.58,27,5.39,2.12,7.73-6.58,2.39-8.68Z"/><path class="cls-2" d="M119.38,141c2.93-6.54,11.54-9.06,18.06-8.13s12.77,2,19.37,1.11c11-1.45,21.72-8.56,23.81-20.09,1-5.66-7.65-8.09-8.68-2.39-2.63,14.51-19.76,14.83-31.24,12.85-6.51-1.12-11.42-.85-17.55,1.89-4.85,2.16-9.31,5.25-11.54,10.22-2.35,5.24,5.4,9.82,7.77,4.54Z"/></g></g></svg>