<svg xmlns="http://www.w3.org/2000/svg" viewBox="0 0 189 189"><defs><style>.cls-1{fill:#e6e6e6;}.cls-2,.cls-3{fill:#4d4d4d;}.cls-3{stroke:#4d4d4d;stroke-miterlimit:10;stroke-width:5.48px;}</style></defs><title>japeto</title><g id="Camada_2" data-name="Camada 2"><g id="Camada_1-2" data-name="Camada 1"><path class="cls-1" d="M94.5,188.86A94.36,94.36,0,1,1,188.86,94.5,94.46,94.46,0,0,1,94.5,188.86Z"/><path class="cls-2" d="M94.5.29A94.21,94.21,0,1,1,.29,94.5,94.32,94.32,0,0,1,94.5.29m0-.29A94.5,94.5,0,1,0,189,94.5,94.5,94.5,0,0,0,94.5,0Z"/><polygon class="cls-3" points="94.85 29.5 134 29.5 114.42 86.04 94.85 142.58 75.27 86.04 55.7 29.5 94.85 29.5"/><path class="cls-2" d="M94.88,176.84c-2,0,1.55-15.71,1.85-17.26H93.84a28.58,28.58,0,0,0,2.61,8c.64,1.26,1.63,2.39,2.22,3.66q1.8,2.18.09,5.13-1.42,1.38-2.2-.29a1.5,1.5,0,0,0-2.89.8c1.28,4.78,7.18,3.49,9-.37,1-2.15.06-4.39-1.06-6.27-2.24-3.74-4.07-7.11-4.84-11.48a1.51,1.51,0,0,0-2.89,0c-1,5.17-2.58,10.58-3,15.83-.23,2.85.93,5.22,4,5.23a1.5,1.5,0,0,0,0-3Z"/><path class="cls-2" d="M98.72,176.8a6.64,6.64,0,0,1-1.23-4.89c.3-1.89-2.59-2.7-2.89-.8a9.67,9.67,0,0,0,1.53,7.2c1.1,1.57,3.7.08,2.59-1.51Z"/><path class="cls-2" d="M97,174.59c-1-1.13,0-3,.46-4.2a7.31,7.31,0,0,0,.38-4.3c-.44-1.88-3.34-1.08-2.89.8s-1,3.8-1.26,5.68a4.84,4.84,0,0,0,1.2,4.14c1.3,1.43,3.42-.7,2.12-2.12Z"/><path class="cls-2" d="M98.91,175.89a12.09,12.09,0,0,0-.57-9.17c-.81-1.75-3.4-.23-2.59,1.51a9,9,0,0,1,.27,6.85c-.63,1.83,2.27,2.62,2.89.8Z"/><path class="cls-2" d="M98.91,174.81a9.44,9.44,0,0,0-2.41-11.36,1.51,1.51,0,0,0-2.36,1.82A26.74,26.74,0,0,1,96.46,176a1.5,1.5,0,0,0,3,0,30.45,30.45,0,0,0-2.73-12.24l-2.36,1.82a6.44,6.44,0,0,1,1.94,7.72c-.8,1.74,1.78,3.27,2.59,1.51Z"/><path class="cls-2" d="M93.42,178.94a6.47,6.47,0,0,0,6.29-.21,1.5,1.5,0,0,0-1.51-2.59,3.35,3.35,0,0,1-3.26.21c-1.73-.85-3.25,1.74-1.51,2.59Z"/><path class="cls-2" d="M98.22,177.76l-5.5-1.15c-1.88-.39-2.69,2.5-.8,2.89l5.5,1.15c1.88.39,2.69-2.5.8-2.89Z"/><path class="cls-2" d="M95.26,177.56a9.24,9.24,0,0,0-2-.78c-.13,0,.07,0-.14-.07s0,0,0,0l-.07-.11a.41.41,0,0,1,.09.26.75.75,0,0,1-.36.56,1.54,1.54,0,0,0,.54-2.05,1.51,1.51,0,0,0-2.05-.54,2.48,2.48,0,0,0-.53,3.67,3.66,3.66,0,0,0,1.67,1.1,7.21,7.21,0,0,1,1.35.5,1.5,1.5,0,1,0,1.51-2.59Z"/><path class="cls-2" d="M91.55,172.41c-2.65,1.34-1.57,6.06.68,7.23a10.16,10.16,0,0,0,5,1.15c1.62-.2,2.69-1.89,3.44-3.19a1.5,1.5,0,0,0-2.59-1.51c-.27.46-.72,1.5-1.23,1.67a5.27,5.27,0,0,1-2.1-.43c-.65-.18-1.3-.27-1.57-.95a3.42,3.42,0,0,1-.06-1.07c0-.42.19-.43,0-.31,1.72-.87.21-3.46-1.51-2.59Z"/><path class="cls-2" d="M93.83,175.82c-.24-3.27,2.09-5.2,3-8.11.6-1.84-2.29-2.63-2.89-.8-.5,1.53-1.62,2.75-2.31,4.2a9.32,9.32,0,0,0-.85,4.71c.14,1.91,3.14,1.93,3,0Z"/><path class="cls-2" d="M91.11,172.83c-.08,2-.56,4.43.53,6.21s3.25,2,5.14,1.77a5,5,0,0,0,4.58-3.19,5.4,5.4,0,0,0,.6-2.89c-.16-1.19-1.09-2-1.18-3.25-.15-1.91-3.15-1.93-3,0a8.19,8.19,0,0,0,1,3.1,2.39,2.39,0,0,1-1.89,3.21c-1.13.18-2.6.37-2.83-1a19.61,19.61,0,0,1,.09-4c.08-1.93-2.92-1.93-3,0Z"/><path class="cls-2" d="M98.55,179.89a4.48,4.48,0,0,0,3.06-5.12,1.51,1.51,0,0,0-1.85-1,1.54,1.54,0,0,0-1,1.85c0-.14,0,.1,0,.12,0,.47,0-.06,0,.21a1.17,1.17,0,0,1-.21.53,1.33,1.33,0,0,1-.72.57c-1.84.58-1.05,3.47.8,2.89Z"/><path class="cls-2" d="M95.77,177.71c-.41.07-.81-.45-1-.74a6.88,6.88,0,0,1-.65-2.22c-.26-1.34-2.09-1.37-2.74-.36a2.27,2.27,0,0,0,0,2.5c1.07,1.59,3.67.09,2.59-1.51v.53l-2.74-.36a7.44,7.44,0,0,0,1.62,3.83,4,4,0,0,0,3.71,1.22,1.51,1.51,0,0,0,1-1.85,1.53,1.53,0,0,0-1.85-1Z"/><path class="cls-2" d="M93.57,177.46c-1.38-3.7-.13-9,1.28-12.57,1.07-2.68,2.45-4.8,2.07-7.77l-2.95.4a48.51,48.51,0,0,0,3.89,12.4c.81,1.75,3.4.23,2.59-1.51a45.58,45.58,0,0,1-3.59-11.68c-.28-1.65-3.16-1.28-2.95.4.45,3.61-2.59,7.77-3.21,11.41-.53,3.15-1.17,6.67,0,9.72.67,1.79,3.57,1,2.89-.8Z"/><path class="cls-2" d="M91.43,180a10.2,10.2,0,0,0,4.74.69,1.54,1.54,0,0,0,1.5-1.5,1.51,1.51,0,0,0-1.5-1.5,8.22,8.22,0,0,1-3.94-.58,1.51,1.51,0,0,0-1.85,1,1.54,1.54,0,0,0,1,1.85Z"/><path class="cls-2" d="M96.71,178.77c-1.65.06-4.23.1-4.79-2a9,9,0,0,1,.42-3.65c.61-2.4,2.31-4.22,3.77-6.16.87-1.16-1.08-2.28-1.94-1.14-2.58,3.43-4.4,6.18-4.47,10.6-.07,3.89,3.72,4.73,7,4.61,1.44-.05,1.45-2.3,0-2.25Z"/><path class="cls-2" d="M99.55,177.78l.11.23-.11-.87-1.44.75a4.54,4.54,0,0,1-1.75.73,1.13,1.13,0,0,0,0,2.25,4.32,4.32,0,0,0,2.09-.29,1.13,1.13,0,0,0-.6-2.17,8.24,8.24,0,0,1-1.21.25q-.31,0-.06.12a2.82,2.82,0,0,1-.24-.44c-.64-1.3-2.58-.16-1.94,1.14a2.46,2.46,0,0,0,1.52,1.43,6.14,6.14,0,0,0,2.54-.33l-.6-2.17a2.88,2.88,0,0,1-1.49.21v2.25a9.25,9.25,0,0,0,3.71-1.49c1.12-.63,2.11-1.35,1.43-2.74s-2.58-.16-1.94,1.14Z"/></g></g></svg>