<svg xmlns="http://www.w3.org/2000/svg" viewBox="0 0 189 189"><defs><style>.cls-1{fill:#e6e6e6;}.cls-2{fill:#4d4d4d;}</style></defs><title>Leto</title><g id="Camada_2" data-name="Camada 2"><g id="Camada_1-2" data-name="Camada 1"><path class="cls-1" d="M94.5,188.85A94.35,94.35,0,1,1,188.85,94.5,94.46,94.46,0,0,1,94.5,188.85Z"/><path class="cls-2" d="M94.5.29A94.21,94.21,0,1,1,.29,94.5,94.32,94.32,0,0,1,94.5.29m0-.29A94.5,94.5,0,1,0,189,94.5,94.5,94.5,0,0,0,94.5,0Z"/><path class="cls-2" d="M69,113.45a47.47,47.47,0,0,1-29.48-9.95C27,93.78,20.33,78.61,21.08,61.77A47.33,47.33,0,0,0,65.59,91.52h0c17.3,0,34.39-8.68,45.72-23.21a63.54,63.54,0,0,0,3.93-5.65,26.4,26.4,0,0,0,10.83,2.81,61.27,61.27,0,0,1-11.64,24.9C103.16,104.82,86.17,113.45,69,113.45Z"/><path class="cls-2" d="M21.22,62.53A47.49,47.49,0,0,0,65.59,91.68c17.35,0,34.49-8.7,45.85-23.28a63.56,63.56,0,0,0,3.86-5.54,26.54,26.54,0,0,0,10.56,2.75,61.12,61.12,0,0,1-11.57,24.64c-11.23,14.42-28.18,23-45.33,23a47.31,47.31,0,0,1-29.38-9.91C27.34,93.83,20.7,79,21.22,62.53M21,61C20,77.44,26.27,93.42,39.38,103.63a47.74,47.74,0,0,0,29.58,10c16.67,0,33.83-8.06,45.59-23.15A61,61,0,0,0,126.26,65.3a26.37,26.37,0,0,1-11.09-2.87,63,63,0,0,1-4,5.77C99.42,83.29,82.25,91.35,65.59,91.35A47.73,47.73,0,0,1,36,81.37,47.21,47.21,0,0,1,21,61Z"/><rect class="cls-2" x="130.73" y="68.5" width="10.15" height="76.15" transform="translate(-34.34 135.77) rotate(-47.86)"/><path class="cls-2" d="M111,77.43l56.3,50.93-6.65,7.36-56.3-50.93L111,77.43m0-.32-7,7.69L160.65,136l7-7.69L111,77.11Z"/></g></g></svg>