<svg xmlns="http://www.w3.org/2000/svg" viewBox="0 0 189 189"><defs><style>.cls-1{fill:none;stroke:#4d4d4d;stroke-miterlimit:10;stroke-width:3px;}.cls-2{fill:#e6e6e6;}.cls-3{fill:#4d4d4d;}</style></defs><title>Maia</title><g id="Camada_2" data-name="Camada 2"><g id="Camada_1-2" data-name="Camada 1"><circle class="cls-1" cx="49.5" cy="26.5"/><path class="cls-2" d="M94.5,188.85A94.35,94.35,0,1,1,188.85,94.5,94.46,94.46,0,0,1,94.5,188.85Z"/><path class="cls-3" d="M94.5.29A94.21,94.21,0,1,1,.29,94.5,94.32,94.32,0,0,1,94.5.29m0-.29A94.5,94.5,0,1,0,189,94.5,94.5,94.5,0,0,0,94.5,0Z"/><path class="cls-3" d="M74.87,168.89c9.76-17.33,23.63-32.32,32.13-50.37,3.81-8.1.92-14.93-.75-23.19-1.87-9.25-2.16-19.06,3.84-26.9,2.35-3.07-2.86-6.06-5.18-3-4.92,6.43-6.31,14.4-5.75,22.34a76.86,76.86,0,0,0,2,12.18c1.28,5.4,3.15,10.18.7,15.56-8.25,18.12-22.39,33.08-32.13,50.37-1.9,3.37,3.28,6.4,5.18,3Z"/><path class="cls-3" d="M96.48,70.27a25.89,25.89,0,0,1-12-19.13c-.92-7-.75-13.7-3.86-20.22L76.5,35c3.08,2.09,6.42,2.83,10.07,3.27,4.46.55,10.64.67,11.48,6.26.57,3.81,6.35,2.19,5.79-1.6-1.87-12.42-16.77-8-24.31-13.11-2.7-1.83-5.28,1.63-4.1,4.1,3.8,8,1.84,17.26,4.84,25.49a31.76,31.76,0,0,0,13.19,16c3.28,2.06,6.29-3.13,3-5.18Z"/><path class="cls-3" d="M101.12,31.55a81.16,81.16,0,0,1,8.81-14.36l-5.48-2.31c-1.11,8.1,4.7,10.79,9.63,15.81,7.21,7.33,2.92,17.56-2.14,24.74-2.23,3.16,3,6.16,5.18,3,4.44-6.3,7.81-13.72,6.52-21.6a18.5,18.5,0,0,0-4.28-9.32c-2.7-3.06-9.8-6.13-9.13-11.05.47-3.42-3.35-5.09-5.48-2.31a81.16,81.16,0,0,0-8.81,14.36c-1.66,3.47,3.51,6.51,5.18,3Z"/><path class="cls-3" d="M125.68,35.84,136,29.15l-4.51-2.59c.13,4.3,1.4,8.16,2.61,12.25a28.33,28.33,0,0,1,0,16.3c-2.58,9.41-6.5,18.54-17.15,20.19-3.8.59-2.19,6.37,1.6,5.79,10.76-1.66,16.29-9.71,19.72-19.33,1.94-5.45,3.49-11.24,3.08-17.07-.44-6.24-3.72-11.85-3.91-18.11C137.47,24.39,135,22.69,133,24l-10.36,6.69c-3.23,2.09-.23,7.28,3,5.18Z"/><path class="cls-3" d="M115.12,125.74c2.61.14,4.36-1.5,6.88-1.72,4.06-.36,6.06,1.5,7,5.3,1.05,4.42,2,8.77,6.3,11.08,3.41,1.81,6.44-3.37,3-5.18-4.7-2.5-3-11-7.29-14.69-2.06-1.77-4.53-2.22-7.17-2.43a14.47,14.47,0,0,0-3.8.07c-1.59.3-3.3,1.65-4.92,1.56-3.86-.21-3.85,5.79,0,6Z"/><path class="cls-3" d="M105.36,129.82A12.92,12.92,0,0,0,110,141.88a16.07,16.07,0,0,0,6,3c3,.6,5.12-.16,7.93,1.77,3.42,2.35,6.63-3.22,3.24-5.55s-6.22-2-9.9-2.72c-4.35-.84-6.06-4.43-5.55-8.54s-5.92-4.06-6.42,0Z"/></g></g></svg>