<svg xmlns="http://www.w3.org/2000/svg" viewBox="0 0 189 189"><defs><style>.cls-1{fill:#e6e6e6;}.cls-2{fill:#4d4d4d;}.cls-3{fill:none;stroke:#4d4d4d;stroke-miterlimit:10;stroke-width:7.39px;}</style></defs><title>mnemonozine</title><g id="Camada_2" data-name="Camada 2"><g id="Camada_1-2" data-name="Camada 1"><path class="cls-1" d="M94.5,188.86A94.36,94.36,0,1,1,188.86,94.5,94.46,94.46,0,0,1,94.5,188.86Z"/><path class="cls-2" d="M94.5.29A94.21,94.21,0,1,1,.29,94.5,94.32,94.32,0,0,1,94.5.29m0-.29A94.5,94.5,0,1,0,189,94.5,94.5,94.5,0,0,0,94.5,0Z"/><rect class="cls-3" x="30" y="42.41" width="130" height="106.59"/><line class="cls-3" x1="33.08" y1="71.37" x2="84.22" y2="71.37"/><line class="cls-3" x1="80.52" y1="70.75" x2="80.52" y2="99.71"/><line class="cls-3" x1="84.22" y1="96.63" x2="50.33" y2="96.63"/><line class="cls-3" x1="54.03" y1="120.04" x2="135.36" y2="120.04"/><line class="cls-3" x1="105.17" y1="120.04" x2="105.17" y2="46.11"/><line class="cls-3" x1="126.73" y1="70.75" x2="156.92" y2="70.75"/></g></g></svg>