<svg xmlns="http://www.w3.org/2000/svg" viewBox="0 0 163 163"><defs><style>.cls-1{fill:#e6e6e6;}.cls-2{fill:#666;}</style></defs><title>Ativo 11</title><g id="Camada_2" data-name="Camada 2"><g id="Camada_1-2" data-name="Camada 1"><path class="cls-1" d="M81.5,162.88A81.38,81.38,0,1,1,162.88,81.5,81.47,81.47,0,0,1,81.5,162.88Z"/><path class="cls-2" d="M81.5.25A81.25,81.25,0,1,1,.25,81.5,81.34,81.34,0,0,1,81.5.25m0-.25A81.5,81.5,0,1,0,163,81.5,81.5,81.5,0,0,0,81.5,0Z"/><path class="cls-2" d="M86.79,150.89c-40.08,0-72.68-29.78-72.68-66.39s32.6-66.39,72.68-66.39a78.26,78.26,0,0,1,34.78,8.09c-24.59.63-47,12.35-59.94,31.42a61.51,61.51,0,0,0-9.38,49c4.17,17.9,15.83,33.08,32.84,42.73.91.51,1.85,1,2.81,1.52h-.16Z"/><path class="cls-2" d="M86.79,18.21a78.19,78.19,0,0,1,34.35,7.89c-24.46.75-46.69,12.47-59.6,31.46a61.62,61.62,0,0,0-9.4,49.08C56.32,124.58,68,139.78,85,149.45c.79.45,1.61.9,2.45,1.33h-.69c-40,0-72.58-29.74-72.58-66.29S46.77,18.21,86.79,18.21m0-.21C46.59,18,14,47.77,14,84.5S46.59,151,86.79,151c.51,0,1,0,1.53,0q-1.6-.81-3.18-1.71C51,129.88,40.5,88.88,61.72,57.68,75.2,37.86,98.23,26.78,122,26.3A77.87,77.87,0,0,0,86.79,18Z"/><polygon class="cls-2" points="123.86 79.58 114.59 72.3 103.33 75.8 107.4 64.74 100.59 55.12 112.37 55.56 119.41 46.11 122.63 57.45 133.79 61.23 124 67.79 123.86 79.58"/></g></g></svg>