<svg xmlns="http://www.w3.org/2000/svg" viewBox="0 0 189 189"><defs><style>.cls-1{fill:#e6e6e6;}.cls-2{fill:#4d4d4d;}</style></defs><title>oceanos</title><g id="Camada_2" data-name="Camada 2"><g id="Camada_1-2" data-name="Camada 1"><path class="cls-1" d="M94.5,188.86A94.36,94.36,0,1,1,188.85,94.5,94.46,94.46,0,0,1,94.5,188.86Z"/><path class="cls-2" d="M94.5.29A94.21,94.21,0,1,1,.29,94.5,94.32,94.32,0,0,1,94.5.29m0-.29A94.5,94.5,0,1,0,189,94.5,94.5,94.5,0,0,0,94.5,0Z"/><path class="cls-2" d="M23.05,93c14.78-1.94,27.46-8.93,40.16-16.34C77.62,68.26,92,61.24,108.8,59.46l-1.2-8.84C92.22,56.15,93,76.54,105.82,84.47c7.19,4.44,15.45,4.39,23.44,2.66,5.2-1.13,10.28-2.79,15.68-2.32a27.85,27.85,0,0,1,13.85,5.42c4.72,3.37,9.22-4.43,4.54-7.77a35.92,35.92,0,0,0-18.39-6.65c-7.46-.54-14.27,2.34-21.54,3.32-6.12.83-13.6-.72-17.09-6.36-2.69-4.35-1.59-11.57,3.68-13.47,4.42-1.59,4.2-9.41-1.2-8.84-16.11,1.71-30.53,7.2-44.53,15.19C51.27,73.06,38.24,82,23.05,84c-5.66.74-5.73,9.75,0,9Z"/><path class="cls-2" d="M63.05,53c10.19-1.34,19-5.67,27.9-10.62,10.31-5.74,20.42-10.63,32.33-11.89l-1.2-8.84C111.16,25.73,110,39.9,119.48,46.4c5.06,3.47,11.12,3.95,17,2.91,7.9-1.4,14-3.17,21.23,1.63,4.83,3.22,9.34-4.57,4.54-7.77-7.81-5.21-16-5.2-24.83-3.25-4.11.91-8.48,1.72-12.31-.58-3-1.82-5.13-7.33-.64-9s4.23-9.41-1.2-8.84A83.11,83.11,0,0,0,92,31.51c-9.21,5-18.37,11.09-29,12.49-5.66.75-5.73,9.76,0,9Z"/><path class="cls-2" d="M53.25,154.84c8.8-1.25,16.52-5.57,24.09-10,8.59-5,17.1-9.24,27.13-10.36l-1.2-8.84c-9.56,3.81-11.19,16.13-3.23,22.63,10.7,8.74,23.31-2.7,34.1,4.77,4.77,3.3,9.28-4.49,4.54-7.77-6.24-4.32-13.12-5-20.4-3.39-3.82.85-7.83,2.2-11.51.13-2.32-1.31-4.91-6.18-1.11-7.69,4.25-1.69,4.3-9.45-1.2-8.84a70.79,70.79,0,0,0-27.39,9.12c-8.43,4.76-16.43,10.16-26.22,11.55-5.71.81-3.28,9.48,2.39,8.68Z"/><path class="cls-2" d="M18.25,121.84c9.66-1.34,18.12-6.12,26.42-11,9.47-5.52,18.86-10.16,29.91-11.38l-1.2-8.84C63,94.72,61.63,108.23,70.31,115a20,20,0,0,0,15.34,3.6c8.1-1.17,14.28-3.78,21.73,1.37,4.77,3.3,9.28-4.49,4.54-7.77C104.43,107,96.61,107,88,108.92c-4.12.94-8.9,1.89-12.46-1.17-2.29-2-3.47-7,.19-8.41,4.29-1.67,4.28-9.44-1.2-8.84a77.53,77.53,0,0,0-30.28,10.19c-9.12,5.17-17.85,11-28.45,12.47-5.71.79-3.28,9.47,2.39,8.68Z"/></g></g></svg>