<svg xmlns="http://www.w3.org/2000/svg" viewBox="0 0 163 163"><defs><style>.cls-1{fill:#e6e6e6;}.cls-2{fill:#4d4d4d;}.cls-3{fill:#b3b3b3;}</style></defs><title>Ativo 3</title><g id="Camada_2" data-name="Camada 2"><g id="Camada_1-2" data-name="Camada 1"><path class="cls-1" d="M81.5,162.5a81,81,0,1,1,81-81A81.09,81.09,0,0,1,81.5,162.5Z"/><path class="cls-2" d="M81.5,1A80.5,80.5,0,1,1,1,81.5,80.59,80.59,0,0,1,81.5,1m0-1A81.5,81.5,0,1,0,163,81.5,81.5,81.5,0,0,0,81.5,0Z"/><path class="cls-3" d="M93,74.46c2.24-4.72,3.15-9.93,4.89-14.85a47.13,47.13,0,0,1,10.82-17.32c.72-.73,1.69-1.5,2.67-1.18a2.58,2.58,0,0,1,1.12.9c1.61,2,2.57,4.36,3.76,6.59,4.48,8.37,12.43,14.54,16.67,23,1.18,2.35,2.06,4.88,3.63,7,1,1.31,2.18,2.42,3.15,3.73,2.55,3.45,3.22,7.87,4.23,12a65.14,65.14,0,0,0,5.17,14"/><path class="cls-2" d="M94.3,75.22c3.85-8.73,5.09-18.09,10.66-26.09,1.3-1.87,3.59-6,6-5.47,2.05.42,2.78,3.28,3.68,5a61.39,61.39,0,0,0,7.47,10.63c3.12,3.75,6.42,7.41,8.81,11.69,2.06,3.69,3.5,7.25,6.18,10.56,3.66,4.51,4.36,9.42,5.83,14.85a71.58,71.58,0,0,0,4.91,12.78c.85,1.74,3.44.22,2.59-1.52-4.68-9.55-5-20.47-11.76-28.84-3.54-4.42-5.24-10-8.67-14.58s-7.27-8.41-10.38-13c-2.08-3.08-3.73-9.59-7.33-11.28-3.05-1.44-5.64,2.25-7.29,4.24a49,49,0,0,0-7.33,11.92c-2.46,5.72-3.46,11.92-6,17.62-.77,1.75,1.82,3.28,2.59,1.52Z"/><path class="cls-3" d="M41.59,102.46A92.55,92.55,0,0,1,46,90.69c1.35-3,2.86-5.84,4.37-8.73l6.48-12.4c1.83-3.49,3.65-7,5.72-10.34,2.7-4.37,5.84-8.55,7.54-13.4.75-2.15,1.21-4.4,2-6.54a24.51,24.51,0,0,1,10.7-12.9,2.15,2.15,0,0,1,.77-.32c1.25-.17,1.75,1.53,1.94,2.77C87,38.55,97.8,44,101.78,53c2,4.47,2.15,9.57,4.14,14,2.44,5.47,7.44,9.59,9.38,15.25,1.59,4.63,1.05,10.1,4,14,1.34,1.76,3.29,3,4.39,4.94,1.36,2.37,1.19,5.28,1.12,8-.13,5,.53,10.7,4.38,14"/><path class="cls-2" d="M43,102.86c3.2-10.25,8.34-19.53,13.29-29,4-7.74,8.9-15,13-22.63,2-3.72,2.77-7.65,4.23-11.56C74.2,38,81.06,25.76,83.87,28.24c.55.48.56,2.71.83,3.54a20,20,0,0,0,1.79,3.87,46.75,46.75,0,0,0,6.09,7.63c2.66,2.91,5.5,5.78,7.32,9.32,1.91,3.72,2.27,7.87,3.48,11.82,2.4,7.86,9.48,13.07,11.22,21.17.64,3,.77,6.14,2,9,1.95,4.43,6.2,6.13,6.74,11.38.7,6.8-.63,13.07,4.79,18.33,1.39,1.35,3.51-.77,2.12-2.12-6-5.81-2.16-13.16-4.55-20-.9-2.58-2.77-3.9-4.48-5.9-2.66-3.08-2.9-6.93-3.62-10.74-1.27-6.71-5.62-10.9-9-16.57-3.64-6.1-3.32-13.57-7.16-19.6-3.18-5-7.93-8.73-11.31-13.57-1.9-2.72-2.31-5.36-3.4-8.34-.5-1.37-1.17-2.66-2.78-2.84-4-.44-8.95,6.16-10.77,9a29.58,29.58,0,0,0-3.3,7.68,46.86,46.86,0,0,1-5.36,12.07c-9.5,15.1-19.07,31.57-24.4,48.67-.58,1.85,2.32,2.64,2.89.8Z"/><path class="cls-3" d="M17.62,105.76c.46-7.23,4.13-13.79,7-20.43a103.68,103.68,0,0,0,7.06-23.16,24.7,24.7,0,0,1,1.41-5.6,22.06,22.06,0,0,1,2.5-4,25.72,25.72,0,0,1,4.55-5.2c1.46,3.45,4.91,5.54,7.4,8.34,3.65,4.1,5.18,9.65,8.25,14.19s7.82,8.34,8.71,13.76c.3,1.87.11,3.79.27,5.68a21.64,21.64,0,0,0,3.4,9.2c2.4,3.94,5.46,7.43,8,11.29,1.5,2.3,2.81,4.72,4.11,7.14l5.56,10.31"/><path class="cls-2" d="M19.12,105.76c1-10.18,7.14-19.16,10.34-28.74a111.58,111.58,0,0,0,3.71-14.45,24.5,24.5,0,0,1,8.08-14.15l-2.36-.3c1.4,2.71,3.46,4.56,5.63,6.65,3.07,3,4.95,6.35,6.84,10.11C55,72.13,62.67,78.18,63.23,86.48c.53,7.8,3.52,12.91,8.16,19.17,5.19,7,9.06,14.72,13.19,22.38.92,1.7,3.51.19,2.59-1.51-4-7.38-7.69-14.91-12.67-21.68-2.34-3.19-4.91-6.34-6.56-10-2.05-4.49-1-9.22-2.53-13.73-2.21-6.34-8.09-11-11.09-17a45.09,45.09,0,0,0-5.15-8.82c-2.5-3-5.84-5.11-7.68-8.67a1.52,1.52,0,0,0-2.36-.3c-3.28,3-6.54,7-7.93,11.23-1.8,5.47-2.3,11.38-4,16.92-3.31,10.52-9.94,20.18-11,31.31-.19,1.92,2.81,1.91,3,0Z"/></g></g></svg>