<svg xmlns="http://www.w3.org/2000/svg" viewBox="0 0 163 163"><defs><style>.cls-1{fill:#e6e6e6;}.cls-2{fill:#4d4d4d;}.cls-3{fill:#b3b3b3;}</style></defs><title>orea</title><g id="Camada_2" data-name="Camada 2"><g id="Camada_1-2" data-name="Camada 1"><path class="cls-1" d="M81.5,162.5a81,81,0,1,1,81-81A81.09,81.09,0,0,1,81.5,162.5Z"/><path class="cls-2" d="M81.5,1A80.5,80.5,0,1,1,1,81.5,80.59,80.59,0,0,1,81.5,1m0-1A81.5,81.5,0,1,0,163,81.5,81.5,81.5,0,0,0,81.5,0Z"/><path class="cls-3" d="M95,74.46c2.24-4.72,3.15-9.93,4.89-14.85a47.13,47.13,0,0,1,10.82-17.32c.72-.73,1.69-1.5,2.67-1.18a2.58,2.58,0,0,1,1.12.9c1.61,2,2.57,4.36,3.76,6.59,4.48,8.37,12.43,14.54,16.67,23,1.18,2.35,2.06,4.88,3.63,7,1,1.31,2.18,2.42,3.15,3.73,2.55,3.45,3.22,7.87,4.23,12a65.14,65.14,0,0,0,5.17,14"/><path class="cls-2" d="M97.59,76c2.44-5.53,3.53-11.46,5.74-17.05a43.51,43.51,0,0,1,4-7.72c1.4-2.15,4-6.82,6.81-7.2l-2.92-.77c2.58,2.06,3.56,5.5,5.19,8.26a61.15,61.15,0,0,0,5.06,7c4.18,5.19,8.6,10,11.51,16.05A36,36,0,0,0,137.48,82a23.42,23.42,0,0,1,4.85,10,86.59,86.59,0,0,0,6.21,17.9c1.7,3.47,6.88.43,5.18-3a79,79,0,0,1-5.6-16.47,30.17,30.17,0,0,0-6.39-12.68c-3.44-4.32-5.08-9.81-8.44-14.28s-7.27-8.42-10.38-13c-2.32-3.45-3.86-9.6-7.71-11.7s-7,1.63-9.26,4.36a50.8,50.8,0,0,0-7.64,12.4C95.87,61.17,94.89,67.31,92.41,73c-1.54,3.5,3.63,6.56,5.18,3Z"/><path class="cls-3" d="M43.59,102.46A92.55,92.55,0,0,1,48,90.69c1.35-3,2.86-5.84,4.37-8.73l6.48-12.4c1.83-3.49,3.65-7,5.72-10.34,2.7-4.37,5.84-8.55,7.54-13.4.75-2.15,1.21-4.4,2-6.54a24.51,24.51,0,0,1,10.7-12.9,2.15,2.15,0,0,1,.77-.32c1.25-.17,1.75,1.53,1.94,2.77C89,38.55,99.8,44,103.78,53c2,4.47,2.15,9.57,4.14,14,2.44,5.47,7.44,9.59,9.38,15.25,1.59,4.63,1.05,10.1,4,14,1.34,1.76,3.29,3,4.39,4.94,1.36,2.37,1.19,5.28,1.12,8-.13,5,.53,10.7,4.38,14"/><path class="cls-2" d="M46.48,103.26C49.64,93.14,54.73,84,59.62,74.61c4-7.74,8.9-15,13-22.63,2.06-3.84,2.86-7.89,4.38-11.92A21.81,21.81,0,0,1,81,33.41c1.15-1.32,4.9-3.09,3.47-4.77.58.68.52,2.6.83,3.54A22,22,0,0,0,87.2,36.4a48.65,48.65,0,0,0,6.33,7.93c2.57,2.81,5.34,5.58,7.09,9,1.83,3.59,2.16,7.65,3.33,11.46,2.4,7.86,9.49,13.12,11.22,21.17.68,3.14.84,6.38,2.18,9.34,1.82,4,6,6,6.53,10.62.81,7.23-.55,13.78,5.23,19.39,2.77,2.69,7-1.55,4.24-4.24-5.57-5.41-2-13-4.24-19.52-1-2.77-3-4.24-4.79-6.38-2.42-2.84-2.58-6.58-3.24-10.08-1.29-6.85-5.7-11.15-9.15-16.93-3.63-6.09-3.31-13.56-7.16-19.6-3.19-5-7.92-8.74-11.31-13.57-1.84-2.62-2.28-5.06-3.25-8-.62-1.87-1.74-3.57-3.83-3.88-4.8-.73-10.23,6.21-12.47,9.72C70,39,69.18,46.4,65.25,52.63c-9.56,15.21-19.18,31.81-24.56,49-1.15,3.69,4.64,5.27,5.79,1.6Z"/><path class="cls-3" d="M19.62,105.76c.46-7.23,4.13-13.79,7-20.43a103.68,103.68,0,0,0,7.06-23.16,24.7,24.7,0,0,1,1.41-5.6,22.06,22.06,0,0,1,2.5-4,25.72,25.72,0,0,1,4.55-5.2c1.46,3.45,4.91,5.54,7.4,8.34,3.65,4.1,5.18,9.65,8.25,14.19s7.82,8.34,8.71,13.76c.3,1.87.11,3.79.27,5.68a21.64,21.64,0,0,0,3.4,9.2c2.4,3.94,5.46,7.43,8,11.29,1.5,2.3,2.81,4.72,4.11,7.14l5.56,10.31"/><path class="cls-2" d="M22.62,105.76c1-10,7.14-18.93,10.29-28.34A111.58,111.58,0,0,0,36.62,63a23.18,23.18,0,0,1,7.69-13.49l-4.71-.61c1.45,2.82,3.61,4.78,5.87,6.95,3,2.86,4.77,6.16,6.6,9.8,3.47,6.91,11.12,13,11.66,20.85.56,8.1,3.55,13.43,8.37,19.92,5.19,7,9.06,14.72,13.19,22.38,1.83,3.4,7,.37,5.18-3-4-7.38-7.69-14.91-12.67-21.68-2.34-3.18-4.93-6.33-6.56-10-2-4.35-.87-9-2.38-13.38-2.22-6.5-8.17-11.26-11.24-17.38a45.78,45.78,0,0,0-5.39-9.12c-2.42-2.91-5.68-4.94-7.44-8.37a3,3,0,0,0-4.71-.61c-3.45,3.11-6.9,7.42-8.32,11.89-1.75,5.5-2.3,11.38-4,16.92-3.36,10.69-10,20.39-11.08,31.71-.38,3.84,5.63,3.81,6,0Z"/></g></g></svg>