<svg xmlns="http://www.w3.org/2000/svg" viewBox="0 0 189 189"><defs><style>.cls-1{fill:#e6e6e6;}.cls-2{fill:#4d4d4d;}.cls-3{fill:none;stroke:#4d4d4d;stroke-miterlimit:10;stroke-width:7px;}</style></defs><title>Pleione_1</title><g id="Camada_2" data-name="Camada 2"><g id="Camada_1-2" data-name="Camada 1"><path class="cls-1" d="M94.5,188.85A94.35,94.35,0,1,1,188.85,94.5,94.46,94.46,0,0,1,94.5,188.85Z"/><path class="cls-2" d="M94.5.29A94.21,94.21,0,1,1,.29,94.5,94.32,94.32,0,0,1,94.5.29m0-.29A94.5,94.5,0,1,0,189,94.5,94.5,94.5,0,0,0,94.5,0Z"/><path class="cls-3" d="M144.26,149.77a134.61,134.61,0,0,0,8.12-24c2-8.31,2.89-17.8-2.15-24.69-4.9-6.69-14-8.92-19.66-15-6.4-6.94-6.94-17.91-3.28-26.61,1.21-2.88,2.85-5.69,3-8.81.27-4.85-3.21-9.28-7.48-11.61s-9.22-3-14-3.56"/><path class="cls-3" d="M77.26,170.77a134.61,134.61,0,0,0,8.12-24c2-8.31,2.89-17.8-2.15-24.69-4.9-6.69-14-8.92-19.66-15-6.4-6.94-6.94-17.91-3.28-26.61,1.21-2.88,2.85-5.69,3-8.81.27-4.85-3.21-9.28-7.48-11.61s-9.22-3-14-3.56"/><path class="cls-3" d="M111.26,166.77a134.61,134.61,0,0,0,8.12-24c2-8.31,2.89-17.8-2.15-24.69-4.9-6.69-14-8.92-19.66-15-6.4-6.94-6.94-17.91-3.28-26.61,1.21-2.88,2.85-5.69,3-8.81.27-4.85-3.21-9.28-7.48-11.61s-9.22-3-14-3.56"/><circle class="cls-3" cx="94.5" cy="67.5" r="47"/></g></g></svg>