<svg xmlns="http://www.w3.org/2000/svg" viewBox="0 0 189 189"><defs><style>.cls-1{fill:#e6e6e6;}.cls-2{fill:#4d4d4d;}</style></defs><title>Pontos</title><g id="Camada_2" data-name="Camada 2"><g id="Camada_1-2" data-name="Camada 1"><path class="cls-1" d="M94.5,188.85A94.35,94.35,0,1,1,188.85,94.5,94.46,94.46,0,0,1,94.5,188.85Z"/><path class="cls-2" d="M94.5.29A94.21,94.21,0,1,1,.29,94.5,94.32,94.32,0,0,1,94.5.29m0-.29A94.5,94.5,0,1,0,189,94.5,94.5,94.5,0,0,0,94.5,0Z"/><path class="cls-2" d="M54.7,136.92c4.59-8.66,14.4-12.28,23.85-10.94,11.4,1.61,18.92,9.36,28.54,14.66,8.13,4.48,17,4.69,24.74-.64,6.09-4.17,10.86-11.71,18.47-13,7.87-1.38,4.53-13.37-3.31-12-8.95,1.57-14.14,8.79-21,14-9,6.8-16.8-2.08-24.37-6.93-18.19-11.64-46.2-13.07-57.7,8.64-3.74,7.07,7,13.36,10.74,6.28Z"/><path class="cls-2" d="M50.56,63.68C55.15,55,65,51.41,74.41,52.74c11.4,1.61,18.92,9.36,28.54,14.66,8.13,4.48,17,4.69,24.74-.64,6.09-4.17,10.86-11.71,18.47-13,7.87-1.38,4.53-13.37-3.31-12-8.95,1.57-14.14,8.79-21,14-9,6.8-16.8-2.08-24.37-6.93-18.19-11.64-46.2-13.07-57.7,8.64-3.74,7.07,7,13.36,10.74,6.28Z"/><path class="cls-2" d="M50.56,102.38C55.15,93.71,65,90.1,74.41,91.44c11.4,1.61,18.92,9.36,28.54,14.66,8.13,4.48,17,4.69,24.74-.64,6.09-4.17,10.86-11.71,18.47-13,7.87-1.38,4.53-13.37-3.31-12-8.95,1.57-14.14,8.79-21,14-9,6.8-16.8-2.08-24.37-6.93-18.19-11.64-46.2-13.07-57.7,8.64-3.74,7.07,7,13.36,10.74,6.28Z"/></g></g></svg>