<svg xmlns="http://www.w3.org/2000/svg" viewBox="0 0 189 189"><defs><style>.cls-1{fill:#e6e6e6;}.cls-2,.cls-3{fill:#4d4d4d;}.cls-3{stroke:#4d4d4d;stroke-miterlimit:10;stroke-width:1.13px;}</style></defs><title>poseidon</title><g id="Camada_2" data-name="Camada 2"><g id="Camada_1-2" data-name="Camada 1"><path class="cls-1" d="M94.5,188.86A94.36,94.36,0,1,1,188.86,94.5,94.46,94.46,0,0,1,94.5,188.86Z"/><path class="cls-2" d="M94.5.29A94.21,94.21,0,1,1,.29,94.5,94.32,94.32,0,0,1,94.5.29m0-.29A94.5,94.5,0,1,0,189,94.5,94.5,94.5,0,0,0,94.5,0Z"/><path class="cls-2" d="M27.87,148.06c30.94-9.72,57.3-32.87,91.45-30.48l-1.2-8.84c-6.61,2.34-18.76,6.76-19.05,15.18-.27,7.67,6.53,13.22,13.32,15.08,8.94,2.45,17.24-1.12,25.9-3,10.79-2.3,20.89,3,31.67,2.14,5.73-.48,5.78-9.49,0-9-7.13.6-13.8-1.77-20.8-2.6-7.27-.86-13.86.92-20.83,2.77-5.48,1.45-12,2.86-17.09-.52a6.17,6.17,0,0,1-2.56-2.57c-.81-2.14-.2-2.39,1.7-3.79a39.33,39.33,0,0,1,10.13-5,4.52,4.52,0,0,0-1.2-8.84c-16.47-1.15-32.41,3.39-47.43,9.79-15.54,6.62-30.25,15.93-46.41,21-5.51,1.73-3.16,10.42,2.39,8.68Z"/><path class="cls-2" d="M99.9,161.4c1-13.46,1.43-26.94,1.25-40.43C101,111.76,103,98.53,95,92,87.9,86.25,77.56,85.83,73,77.06c-3.14-6-2.85-13.12-2.88-19.73a117,117,0,0,0-1.59-18.79c-.32-1.9-3.21-1.09-2.89.8a131.45,131.45,0,0,1,1.48,20.77c0,5.17.18,10.47,2,15.39C72.17,84,79,87.11,86.67,90.65c5,2.29,9.31,4.95,10.6,10.69,1.39,6.18.8,13.32.88,19.63.17,13.49-.27,27-1.25,40.43-.14,1.93,2.86,1.92,3,0Z"/><path class="cls-2" d="M102.27,103.23c-2.85-11.39-2.15-23-1.16-34.58.76-9,2.86-19.15-1.74-27.44-.94-1.69-3.53-.18-2.59,1.51,5,9,1.58,21.77.88,31.51-.72,10-.73,20,1.72,29.79.47,1.87,3.36,1.08,2.89-.8Z"/><path class="cls-2" d="M100.2,105c.2-9.06,7-15.27,14.25-19.63,5.19-3.11,11.71-5.29,15.79-9.92,3.82-4.35,3.63-10.36,3.56-15.81A137.81,137.81,0,0,0,131.34,36c-.36-1.9-3.25-1.09-2.89.8a131.49,131.49,0,0,1,2.36,24.83c0,4.31,0,9-3.18,12.29-2.54,2.68-6.33,4.29-9.52,6-10,5.4-20.63,12.53-20.91,25.11,0,1.93,3,1.93,3,0Z"/><polygon class="cls-3" points="132.03 47.11 125.37 47.14 128.64 34.59 131.91 22.04 135.3 34.56 138.69 47.08 132.03 47.11"/><polygon class="cls-3" points="67.03 45.11 60.37 45.14 63.64 32.59 66.92 20.04 70.3 32.56 73.69 45.08 67.03 45.11"/><polygon class="cls-3" points="100.03 45.11 93.37 45.14 96.64 32.59 99.92 20.04 103.3 32.56 106.69 45.08 100.03 45.11"/></g></g></svg>