<svg xmlns="http://www.w3.org/2000/svg" viewBox="0 0 189 189"><defs><style>.cls-1{fill:#e6e6e6;}.cls-2{fill:#4d4d4d;}</style></defs><title>reia</title><g id="Camada_2" data-name="Camada 2"><g id="Camada_1-2" data-name="Camada 1"><path class="cls-1" d="M94.5,188.86A94.36,94.36,0,1,1,188.86,94.5,94.46,94.46,0,0,1,94.5,188.86Z"/><path class="cls-2" d="M94.5.29A94.21,94.21,0,1,1,.29,94.5,94.32,94.32,0,0,1,94.5.29m0-.29A94.5,94.5,0,1,0,189,94.5,94.5,94.5,0,0,0,94.5,0Z"/><path class="cls-2" d="M89.15,166.86c-6-6.22-8.78-14.34-12.45-22-3.57-7.4-8.49-13.2-14-19.23-6.74-7.4-10.8-14.58-10.47-24.87.3-9.32,2.68-18.41,2.07-27.78-.25-3.83-6.25-3.86-6,0C49,83.24,46,93.17,46.23,103.36c.16,9,3.51,16.33,9.2,23.11,5.91,7.05,12,13,16.09,21.46,3.93,8.15,7,16.53,13.39,23.18,2.68,2.79,6.92-1.45,4.24-4.24Z"/><path class="cls-2" d="M49.32,92.14c-3.51-3.12-9.06-6.87-9.73-11.88C39,75.88,41,70.81,42.22,66.65c2.26-8,4.07-16.33.88-24.38-1.41-3.55-7.21-2-5.79,1.6,4.29,10.81-1.91,21.19-3.42,31.88-1.36,9.64,4.48,14.66,11.19,20.64,2.87,2.56,7.13-1.67,4.24-4.24Z"/><path class="cls-2" d="M40.47,45.79a7.37,7.37,0,0,1,5,7.75c-.26,3.41,5,4,5.89.8l.23-.88c1-3.74-4.8-5.33-5.79-1.6l-.23.88,5.89.8A13.38,13.38,0,0,0,42.06,40c-3.69-1.18-5.27,4.61-1.6,5.79Z"/><path class="cls-2" d="M52.18,51.93a14,14,0,0,0,7.17-12.83c-.1-3.86-5.87-3.86-6,0-.23,6.91,2.8,13.12,3.82,19.85.91,6,2.76,16.53-1.69,21.44l3.64-.47-.5-.28,1.49,2.59L60,81.66c-.48-3.78-6.49-3.83-6,0,.21,1.62.56,2.61,2.06,3.43a3.06,3.06,0,0,0,3.64-.47c5-5.47,4.5-12.6,4-19.51a70.77,70.77,0,0,0-1.46-11.2c-1.15-5-3.12-9.59-2.95-14.82h-6a8,8,0,0,1-4.2,7.65c-3.33,2-.31,7.14,3,5.18Z"/><path class="cls-2" d="M64.8,65.13A31.26,31.26,0,0,0,75,43.68c.23-3.37-5.15-4.09-5.89-.8-1.82,8.07-.57,16-.73,24.17-.08,4.11-.55,8.42-2.49,12.12-1,2-5.94,9.89-8.92,8.54-3.49-1.58-6.54,3.59-3,5.18,3.34,1.51,7,1.59,9.87-1A36.2,36.2,0,0,0,72,80.1c4.72-11.44.2-23.87,2.85-35.62L69,43.68a25,25,0,0,1-8.45,17.21c-2.86,2.61,1.39,6.84,4.24,4.24Z"/><path class="cls-2" d="M51.67,96.34a12.52,12.52,0,0,0,7.53-2.4,3.09,3.09,0,0,0,1.08-4.1c-.75-1.28-2.8-2.05-4.1-1.08a7.15,7.15,0,0,1-4.5,1.58c-3.86,0-3.87,6,0,6Z"/><path class="cls-2" d="M90.64,167.66c-3-9.55-1.16-19.32-1.56-29.11-.37-9.06-3.84-17.17-5.63-25.94-3.69-18,11.24-29.86,17.54-45.22,1.46-3.57-4.34-5.13-5.79-1.6C88.84,81.3,74.45,92.6,77.08,110.89c1.4,9.71,5.76,18.62,6,28.55s-1.31,20,1.75,29.82c1.15,3.67,6.94,2.11,5.79-1.6Z"/><path class="cls-2" d="M87.91,83c-2-4.83-5.56-11.14-3-16.28,2-4.12,5.7-7.47,8.72-10.88,5.47-6.17,10.06-12.62,10.73-21.07.31-3.85-5.69-3.83-6,0-.84,10.51-10.12,17.2-16,25-2.13,2.82-4.13,6-4.4,9.59-.4,5.19,2.3,10.5,4.2,15.19,1.43,3.53,7.24,2,5.79-1.6Z"/><path class="cls-2" d="M100.26,37.24a7.33,7.33,0,0,1,1.26,9.08c-1.67,2.86,2.42,6.27,4.71,3.64l.6-.69c2.52-2.9-1.71-7.17-4.24-4.24l-.6.69,4.71,3.64A13.44,13.44,0,0,0,104.5,33c-2.77-2.7-7,1.54-4.24,4.24Z"/><path class="cls-2" d="M108,48c5.43-.4,9.91-3.14,12.22-8.16,1.59-3.44-3.31-6.48-5.18-3-3.3,6.09-3.35,12.95-5.39,19.45-1.75,5.58-4.74,16.3-10.87,18.67l3.39,1.38.16,1.3c1.26-3.66-4.54-5.23-5.79-1.6A3.37,3.37,0,0,0,97,79.39a3.07,3.07,0,0,0,3.39,1.38c6.94-2.68,9.61-9.12,12.31-15.59a66.35,66.35,0,0,0,4-12.22c.92-4.49,1.3-9,3.52-13.08l-5.18-3c-1.39,3-3.65,4.94-7,5.19-3.83.28-3.86,6.28,0,6Z"/><path class="cls-2" d="M113.51,65.52a31.14,31.14,0,0,0,18.7-14.6c1.64-2.85-2.5-6.36-4.71-3.64-5.33,6.56-7.71,14.38-11.59,21.75-1.89,3.58-4.17,7.13-7.48,9.55-2.65,1.95-9.63,6.24-12.12,3.21S89.63,83.08,92.06,86a8.59,8.59,0,0,0,10,2.61c4.42-1.75,9.26-4.29,12.66-7.68,8.25-8.25,9.73-20.55,17-29.46L127,47.88a25,25,0,0,1-15.12,11.85c-3.7,1.06-2.13,6.85,1.6,5.79Z"/><path class="cls-2" d="M91.08,167.92c1-9.46,6.49-17.55,10-26.18s3.63-17.76,5.65-26.8c4-17.87,22.2-22.44,34.08-33.89,2.79-2.68-1.46-6.92-4.24-4.24-12.39,11.94-30.47,16.56-35.25,35-2.53,9.75-2.26,19.73-6.35,29.12-3.89,8.94-8.81,17.13-9.91,27-.43,3.83,5.58,3.8,6,0Z"/><path class="cls-2" d="M124,88.74c.14-4.67-.56-11.45,3-15,3.34-3.31,8.6-5.06,12.8-7,7.42-3.35,14.54-7.35,18.51-14.77,1.82-3.4-3.36-6.44-5.18-3C148,58.67,136.63,60.9,127.79,66c-3.43,2-6.54,4.39-8.06,8.15-1.8,4.45-1.54,9.92-1.69,14.62-.12,3.86,5.88,3.86,6,0Z"/><path class="cls-2" d="M153.71,52A7.43,7.43,0,0,1,151.54,61a3,3,0,0,0,3,5.18l.82-.39c3.49-1.64.45-6.82-3-5.18l-.82.39,3,5.18c4.9-3.54,7.26-10,4.93-15.72-1.43-3.53-7.23-2-5.79,1.6Z"/><path class="cls-2" d="M156.92,65.45a14,14,0,0,0,14.42-3c2.51-2.22-.91-6.8-3.64-4.71-5.32,4.08-8,9.83-12.26,14.88s-11.5,13.83-18.7,13.54l2.89,2.2-.11-.56-.77,2.92.39-.42c2.62-2.83-1.61-7.08-4.24-4.24a3.83,3.83,0,0,0-1,3.9,3,3,0,0,0,2.89,2.2c7.56.3,13.05-5.34,18.11-10.23a64.31,64.31,0,0,0,7.8-8.9c2.51-3.53,4.58-7.42,8.08-10.11l-3.64-4.71a8.07,8.07,0,0,1-8.58,1.44c-3.64-1.3-5.21,4.5-1.6,5.79Z"/><path class="cls-2" d="M152.89,84.1A31.17,31.17,0,0,0,176,78.53c3.08-2.25.47-7-3-5.18-7.1,3.63-12.24,9.5-18.32,14.5-3.19,2.63-6.79,5.07-10.85,6.08-2.93.72-11.76,2.18-12.79-1.53s-6.83-2.14-5.79,1.6a8.73,8.73,0,0,0,7.89,6.75c4.87.25,10.63-.2,15.19-2,10.9-4.34,17.38-14.93,27.68-20.2l-3-5.18a25.15,25.15,0,0,1-18.5,5c-3.78-.51-5.41,5.27-1.6,5.79Z"/></g></g></svg>