<svg xmlns="http://www.w3.org/2000/svg" viewBox="0 0 189 189"><defs><style>.cls-1{fill:#e6e6e6;}.cls-2{fill:#4d4d4d;}.cls-3{fill:#333;}.cls-4{fill:gray;}</style></defs><title>Ativo 19</title><g id="Camada_2" data-name="Camada 2"><g id="Camada_1-2" data-name="Camada 1"><path class="cls-1" d="M94.5,188.86A94.36,94.36,0,1,1,188.86,94.5,94.46,94.46,0,0,1,94.5,188.86Z"/><path class="cls-2" d="M94.5.29A94.21,94.21,0,1,1,.29,94.5,94.32,94.32,0,0,1,94.5.29m0-.29A94.5,94.5,0,1,0,189,94.5,94.5,94.5,0,0,0,94.5,0Z"/><path class="cls-3" d="M36.79,154.71a6,6,0,0,1-4.24-10.24L145,32a6,6,0,0,1,8.49,8.49L41,153A6,6,0,0,1,36.79,154.71Z"/><path class="cls-4" d="M149.22,31.79a4.5,4.5,0,0,1,3.18,7.68L40,151.9a4.5,4.5,0,0,1-6.36-6.36L146,33.1a4.47,4.47,0,0,1,3.18-1.32m0-3a7.48,7.48,0,0,0-5.3,2.2L31.48,143.41A7.5,7.5,0,0,0,42.09,154L154.52,41.59a7.5,7.5,0,0,0-5.3-12.8Z"/><path class="cls-3" d="M153.21,154.71A6,6,0,0,1,149,153L36.54,40.53A6,6,0,0,1,45,32L157.46,144.47a6,6,0,0,1-4.24,10.24Z"/><path class="cls-4" d="M40.78,31.79A4.47,4.47,0,0,1,44,33.1L156.4,145.53A4.5,4.5,0,0,1,150,151.9L37.6,39.47a4.5,4.5,0,0,1,3.18-7.68m0-3a7.5,7.5,0,0,0-5.3,12.8L147.91,154a7.5,7.5,0,0,0,10.61-10.61L46.09,31a7.48,7.48,0,0,0-5.3-2.2Z"/></g></g></svg>