<svg xmlns="http://www.w3.org/2000/svg" viewBox="0 0 189 189"><defs><style>.cls-1{fill:#e6e6e6;}.cls-2,.cls-3{fill:#4d4d4d;}.cls-3{stroke:#4d4d4d;stroke-miterlimit:10;stroke-width:1.7px;}</style></defs><title>Uniao</title><g id="Camada_2" data-name="Camada 2"><g id="Camada_1-2" data-name="Camada 1"><path class="cls-1" d="M94.5,188.85A94.35,94.35,0,1,1,188.86,94.5,94.46,94.46,0,0,1,94.5,188.85Z"/><path class="cls-2" d="M94.5.29A94.21,94.21,0,1,1,.29,94.5,94.32,94.32,0,0,1,94.5.29m0-.29A94.5,94.5,0,1,0,189,94.5,94.5,94.5,0,0,0,94.5,0Z"/><path class="cls-2" d="M67,37.13A57.87,57.87,0,1,1,9.13,95,57.93,57.93,0,0,1,67,37.13M67,33a62,62,0,1,0,62,62A62,62,0,0,0,67,33Z"/><path class="cls-2" d="M67.5,48.37A47.13,47.13,0,1,1,20.37,95.5,47.19,47.19,0,0,1,67.5,48.37m0-3.37A50.5,50.5,0,1,0,118,95.5,50.5,50.5,0,0,0,67.5,45Z"/><path class="cls-2" d="M68,58.67A37.33,37.33,0,1,1,30.67,96,37.38,37.38,0,0,1,68,58.67M68,56a40,40,0,1,0,40,40A40,40,0,0,0,68,56Z"/><path class="cls-2" d="M121,37.13A57.87,57.87,0,1,1,63.13,95,57.93,57.93,0,0,1,121,37.13M121,33a62,62,0,1,0,62,62,62,62,0,0,0-62-62Z"/><path class="cls-2" d="M121.5,48.37A47.13,47.13,0,1,1,74.37,95.5,47.19,47.19,0,0,1,121.5,48.37m0-3.37A50.5,50.5,0,1,0,172,95.5,50.5,50.5,0,0,0,121.5,45Z"/><path class="cls-2" d="M122,58.67A37.33,37.33,0,1,1,84.67,96,37.38,37.38,0,0,1,122,58.67M122,56a40,40,0,1,0,40,40,40,40,0,0,0-40-40Z"/><circle class="cls-3" cx="95" cy="96" r="7"/></g></g></svg>