<svg xmlns="http://www.w3.org/2000/svg" viewBox="0 0 189 189"><defs><style>.cls-1{fill:#e6e6e6;}.cls-2{fill:#4d4d4d;}</style></defs><title>tetis</title><g id="Camada_2" data-name="Camada 2"><g id="Camada_1-2" data-name="Camada 1"><path class="cls-1" d="M94.5,188.86A94.36,94.36,0,1,1,188.85,94.5,94.46,94.46,0,0,1,94.5,188.86Z"/><path class="cls-2" d="M94.5.29A94.21,94.21,0,1,1,.29,94.5,94.32,94.32,0,0,1,94.5.29m0-.29A94.5,94.5,0,1,0,189,94.5,94.5,94.5,0,0,0,94.5,0Z"/><path class="cls-2" d="M71,99.24c3.13-5.88,9.7-7.34,15.82-5.6,5.44,1.55,9.25,5.89,14.48,7.74a11.72,11.72,0,0,0,10.61-1.22c3.55-2.3,6-6.6,10.23-7.62s2.41-7.44-1.78-6.44c-4.58,1.1-7.18,4.43-10.63,7.33-5.86,4.93-11.62-2.2-17.05-4.69-9.7-4.44-22.06-3-27.45,7.12-2,3.79,3.74,7.17,5.77,3.37Z"/><path class="cls-2" d="M70.86,81.32c3.17-5.49,9.57-6.84,15.38-5.13,5.56,1.64,9.27,6.1,14.48,8.28a11.73,11.73,0,0,0,11-.78c3.66-2.21,6.14-6.35,10.49-7.23s2.43-7.29-1.78-6.44c-5,1-7.53,5-11.59,7.59-5.62,3.65-11.51-3.77-16.39-6.09-9.6-4.58-21.69-3.45-27.4,6.43-2.15,3.73,3.62,7.1,5.77,3.37Z"/><path class="cls-2" d="M71,116.24c3.13-5.88,9.7-7.34,15.82-5.6,5.44,1.55,9.25,5.89,14.48,7.74a11.72,11.72,0,0,0,10.61-1.22c3.55-2.3,6-6.6,10.23-7.62s2.41-7.44-1.78-6.44c-4.58,1.1-7.18,4.43-10.63,7.33-5.86,4.93-11.62-2.2-17.05-4.69-9.7-4.44-22.06-3-27.45,7.12-2,3.79,3.74,7.17,5.77,3.37Z"/><path class="cls-2" d="M95,33.76A60.24,60.24,0,1,1,34.76,94,60.31,60.31,0,0,1,95,33.76M95,27a67,67,0,1,0,67,67A67,67,0,0,0,95,27Z"/></g></g></svg>