<svg xmlns="http://www.w3.org/2000/svg" viewBox="0 0 189 189"><defs><style>.cls-1{fill:#e6e6e6;}.cls-2{fill:#4d4d4d;}</style></defs><title>theia</title><g id="Camada_2" data-name="Camada 2"><g id="Camada_1-2" data-name="Camada 1"><path class="cls-1" d="M94.5,188.85A94.35,94.35,0,1,1,188.86,94.5,94.46,94.46,0,0,1,94.5,188.85Z"/><path class="cls-2" d="M94.5.29A94.21,94.21,0,1,1,.29,94.5,94.32,94.32,0,0,1,94.5.29m0-.29A94.5,94.5,0,1,0,189,94.5,94.5,94.5,0,0,0,94.5,0Z"/><path class="cls-2" d="M94.5,115.84A25.34,25.34,0,1,1,119.84,90.5,25.36,25.36,0,0,1,94.5,115.84Z"/><path class="cls-2" d="M94.5,65.33A25.17,25.17,0,1,1,69.33,90.5,25.2,25.2,0,0,1,94.5,65.33m0-.33A25.5,25.5,0,1,0,120,90.5,25.5,25.5,0,0,0,94.5,65Z"/><path class="cls-2" d="M81.3,52.8C84.85,39.62,91.05,27.37,96.74,15H89a110.78,110.78,0,0,1,18.09,38.17l6.61-5.08c-5.92-4-13.44-4.82-20.42-5.39s-14.06.76-19.16,6l7.52,2-.42-1.39c-1.66-5.53-10.35-3.18-8.68,2.39l.42,1.39a4.54,4.54,0,0,0,7.52,2c3.9-4,9.41-3.78,14.61-3.21,4.93.54,9.88,1.14,14.06,4,3.37,2.29,7.53-1.49,6.61-5.08a117.49,117.49,0,0,0-19-40.32C95,8,90.52,7.09,89,10.47c-6,13-12.6,26-16.35,39.95-1.51,5.6,7.17,8,8.68,2.39Z"/><path class="cls-2" d="M51.63,107.13c-13.2-3.51-25.47-9.67-37.84-15.32v7.77A110.79,110.79,0,0,1,51.9,81.37l-5.08-6.61c-4,5.94-4.79,13.45-5.33,20.43s.79,14.06,6.08,19.14l2-7.52-1.39.42c-5.53,1.68-3.17,10.37,2.39,8.68l1.39-.42a4.54,4.54,0,0,0,2-7.52c-4.05-3.89-3.82-9.39-3.27-14.6.52-4.93,1.1-9.88,3.93-14.07,2.28-3.37-1.48-7.55-5.08-6.61A117.48,117.48,0,0,0,9.24,91.81c-2.42,1.78-3.39,6.22,0,7.77,13.06,6,26.06,12.53,40,16.23,5.6,1.49,8-7.19,2.39-8.68Z"/><path class="cls-2" d="M133.9,77.29C147,81,159.21,87.37,171.5,93.22V85.45a110.75,110.75,0,0,1-38.4,17.6l5.08,6.61c4.11-5.88,5-13.38,5.62-20.36s-.62-14-5.83-19.22l-2,7.52,1.4-.4c5.56-1.59,3.19-10.28-2.39-8.68l-1.4.4a4.54,4.54,0,0,0-2,7.52c4,4,3.62,9.72,2.94,15-.62,4.83-1.29,9.62-4.14,13.69-2.37,3.39,1.53,7.47,5.08,6.61A117.52,117.52,0,0,0,176,93.22c2.49-1.78,3.32-6.19,0-7.77-13-6.17-25.87-12.92-39.74-16.84-5.58-1.58-8,7.1-2.39,8.68Z"/><path class="cls-2" d="M107.59,129.78c-2.71,13.78-8.22,26.8-13.18,39.87l7.52-2a108.19,108.19,0,0,1-20-35.89l-6.61,5.08c6.22,3.63,13.65,4,20.7,4.13s14.09-1.53,18.79-7.12l-7.52-2,.51,1.36c2,5.37,10.73,3,8.68-2.39l-.51-1.36c-1.08-2.87-5.14-4.81-7.52-2-3.67,4.37-8.88,4.64-14.26,4.43-4.91-.19-10-.31-14.33-2.84-3.26-1.9-7.87,1.28-6.61,5.08A119.76,119.76,0,0,0,95.57,174c2.39,2.83,6.43.88,7.52-2,5-13.08,10.47-26.1,13.18-39.87,1.11-5.66-7.56-8.08-8.68-2.39Z"/></g></g></svg>