<svg xmlns="http://www.w3.org/2000/svg" viewBox="0 0 189 189"><defs><style>.cls-1{fill:#e6e6e6;}.cls-2{fill:#4d4d4d;}</style></defs><title>themis</title><g id="Camada_2" data-name="Camada 2"><g id="Camada_1-2" data-name="Camada 1"><path class="cls-1" d="M94.5,188.85A94.35,94.35,0,1,1,188.86,94.5,94.46,94.46,0,0,1,94.5,188.85Z"/><path class="cls-2" d="M94.5.29A94.21,94.21,0,1,1,.29,94.5,94.32,94.32,0,0,1,94.5.29m0-.29A94.5,94.5,0,1,0,189,94.5,94.5,94.5,0,0,0,94.5,0Z"/><path class="cls-2" d="M30,151.33c5.11.47,9.92,2.69,15,3.56a52.6,52.6,0,0,0,15.7.45c9-1.12,21.63-3.8,23-14.26.53-4-3.82-7.5-7.5-7.5-4.49,0-7,3.46-7.5,7.5l-.13,1,2.2-5.3c-1.61,1.84-5.76,2.51-8,3a37.28,37.28,0,0,1-10.67.87c-7.51-.4-14.51-3.7-22-4.4-9.61-.88-9.55,14.12,0,15Z"/><path class="cls-2" d="M32.91,144.16,47.77,68.11l2.14-10.94c.61-3.14-4.2-4.49-4.82-1.33L30.23,131.89l-2.14,10.94c-.61,3.14,4.2,4.49,4.82,1.33Z"/><path class="cls-2" d="M78.91,140.84,53.57,66.56,49.91,55.84c-1-3-5.86-1.73-4.82,1.33l25.34,74.27,3.66,10.73c1,3,5.86,1.73,4.82-1.33Z"/><path class="cls-2" d="M28.8,79.89,142.47,48.42l16.33-4.52c3.72-1,2.14-6.82-1.6-5.79L43.53,69.58,27.2,74.11c-3.72,1-2.14,6.82,1.6,5.79Z"/><path class="cls-2" d="M120,126.33c5.11.47,9.92,2.69,15,3.56a52.6,52.6,0,0,0,15.7.45c9-1.12,21.63-3.8,23-14.26.53-4-3.82-7.5-7.5-7.5-4.49,0-7,3.46-7.5,7.5l-.13,1,2.2-5.3c-1.61,1.84-5.76,2.51-8,3a37.28,37.28,0,0,1-10.67.87c-7.51-.4-14.51-3.7-22-4.4-9.61-.88-9.55,14.12,0,15Z"/><path class="cls-2" d="M122.91,120.16l14.86-76.06,2.14-10.94c.61-3.14-4.2-4.49-4.82-1.33l-14.86,76.06-2.14,10.94c-.61,3.14,4.2,4.49,4.82,1.33Z"/><path class="cls-2" d="M168.91,116.84,143.57,42.56l-3.66-10.73c-1-3-5.86-1.73-4.82,1.33l25.34,74.27,3.66,10.73c1,3,5.86,1.73,4.82-1.33Z"/></g></g></svg>