<svg xmlns="http://www.w3.org/2000/svg" viewBox="0 0 163 163"><defs><style>.cls-1{fill:#e6e6e6;}.cls-2{fill:#4d4d4d;}.cls-3{fill:#666;}</style></defs><title>Ativo 14</title><g id="Camada_2" data-name="Camada 2"><g id="Camada_1-2" data-name="Camada 1"><path class="cls-1" d="M81.5,162.88A81.38,81.38,0,1,1,162.88,81.5,81.47,81.47,0,0,1,81.5,162.88Z"/><path class="cls-2" d="M81.5.25A81.25,81.25,0,1,1,.25,81.5,81.34,81.34,0,0,1,81.5.25m0-.25A81.5,81.5,0,1,0,163,81.5,81.5,81.5,0,0,0,81.5,0Z"/><path class="cls-3" d="M72.37,128.2c-.92-5.43-5.56-8.2-10.22-10.31-6.7-3-13.37-6-18.13-11.92a22.36,22.36,0,0,1-5.18-13.05c-.16-4.4,1.63-8.19,3.08-12.22A62.69,62.69,0,0,0,45.45,56.9c-.06-1.41-1.94-2.44-3-1.24a12,12,0,0,1-5.32,3.73l2.15,2.15a48.53,48.53,0,0,0,1.08-27.15l-3.2,1.35A51.41,51.41,0,0,1,47.32,62c.81,9.51-2.61,18.28-3,27.65-.67,18,16.11,23.94,31.09,25.64,2.23.25,2.21-3.24,0-3.5-8.45-1-17.93-2.61-23.72-9.51-7-8.29-2.67-19-1.31-28.4A54.14,54.14,0,0,0,40.2,34,1.76,1.76,0,0,0,37,35.32a45,45,0,0,1-1.08,25.3,1.76,1.76,0,0,0,2.15,2.15,15.4,15.4,0,0,0,6.86-4.63L42,56.9c.37,9.32-1.6,17.58-4.71,26.27-2.36,6.58-2.54,12.92.49,19.34S46.07,113.58,52,117c5.43,3.09,15.74,5,17,12.16.38,2.21,3.75,1.27,3.37-.93Z"/><path class="cls-3" d="M75.79,113c-.09-16.67-.38-33.35,0-50,.09-3.92.47-7.88.4-11.8,0-1.94-.12-4.26-1.49-5.82-3.7-4.2-6.35,1.4-9.61,2.38l2,2.57L81.32,26.88h-3L90.45,51.23l2.75-2.12c-2.83-2.67-7.95-5.7-11-1.43-1.38,2-1,5.1-1.12,7.32q-.3,6.64-.59,13.28a101,101,0,0,0-.15,12.17c.3,3.88,1.34,7.68,1.57,11.56.43,7.5-1.81,13.68,3.11,20.2,1.34,1.77,4.38,0,3-1.76C84,105,85.53,99.89,85.49,93.68c0-5-1.52-9.91-1.72-14.93s.22-10.15.45-15.21L84.61,55c.1-2.3-.49-3.5,1.85-4.66S89,50,90.72,51.59a1.76,1.76,0,0,0,2.75-2.12L81.32,25.12a1.76,1.76,0,0,0-3,0L64,48.55a1.77,1.77,0,0,0,2,2.57c1.49-.45,2.15-1.47,3.45-2.11,1.5-.74,2.55-.71,3.23,1.58.37,1.25-.12,3.18-.17,4.54-.25,6.56-.35,13.12-.38,19.68-.05,12.73.09,25.47.16,38.21,0,2.25,3.51,2.25,3.5,0Z"/><path class="cls-3" d="M87.23,113.75c12.79-1.92,26.16-6.66,25.83-21.88-.19-8.66-4-16.82-3.87-25.53.21-10.35,5.79-19.56,11-28.16l-3.26-.88L117,63.58l3.43-.46a13,13,0,0,0-5.55-7,1.75,1.75,0,0,0-2.39.63c-3.29,7.65-.28,14.72,2.64,22,4.22,10.45,2.12,20.85-3.78,30.27-2.44,3.91-5.87,7.56-10.42,8.9-4.19,1.24-9,.58-12.82,3.13-4.19,2.82-5.1,8.72-.59,11.64l1.35-3.2a47.2,47.2,0,0,0-18.78-2.33l1.69,1.28v-1.57c.51-2.19-2.86-3.12-3.37-.93a5.53,5.53,0,0,0,0,3.43,1.76,1.76,0,0,0,1.69,1.28,44.91,44.91,0,0,1,17.85,2.2c1.95.65,3-2.15,1.35-3.2q-2.45-5.54,2.94-6.7a22.11,22.11,0,0,1,4.77-.82,35.07,35.07,0,0,0,4.2-.67,18.92,18.92,0,0,0,6.92-3.48c4.57-3.57,7.55-8.82,9.71-14.1,2.68-6.52,4.41-13.43,2.66-20.42-2-8.12-8.69-16.3-5-24.94l-2.39.63A9,9,0,0,1,117,64c.63,1.8,3.44,1.6,3.43-.46l-.06-26.29a1.76,1.76,0,0,0-3.26-.88c-4,6.61-8.05,13.41-10.11,20.92s-1.25,14.54.35,21.91c1.74,8,4.72,18-2.2,24.43-4.95,4.63-12.46,5.75-18.89,6.71-2.22.33-1.28,3.7.93,3.37Z"/></g></g></svg>