<svg xmlns="http://www.w3.org/2000/svg" viewBox="0 0 163 163"><defs><style>.cls-1{fill:#e6e6e6;}.cls-2{fill:#4d4d4d;}.cls-3{fill:gray;}</style></defs><title>Ativo 12</title><g id="Camada_2" data-name="Camada 2"><g id="Camada_1-2" data-name="Camada 1"><path class="cls-1" d="M81.5,162.88A81.38,81.38,0,1,1,162.88,81.5,81.47,81.47,0,0,1,81.5,162.88Z"/><path class="cls-2" d="M81.5.25A81.25,81.25,0,1,1,.25,81.5,81.34,81.34,0,0,1,81.5.25m0-.25A81.5,81.5,0,1,0,163,81.5,81.5,81.5,0,0,0,81.5,0Z"/><polygon class="cls-3" points="64.33 67.67 45.55 63.11 31.15 76.01 29.67 56.74 12.96 47.03 30.83 39.67 34.9 20.77 47.43 35.5 66.65 33.53 56.52 49.99 64.33 67.67"/><polygon class="cls-3" points="94.86 42.58 85.59 35.3 74.33 38.8 78.4 27.74 71.59 18.12 83.37 18.56 90.41 9.11 93.63 20.45 104.79 24.23 95 30.79 94.86 42.58"/><polygon class="cls-3" points="112.14 56.56 117.48 46.05 111.85 35.69 123.5 37.52 131.61 28.97 133.46 40.61 144.1 45.68 133.61 51.04 132.08 62.73 123.73 54.4 112.14 56.56"/><polygon class="cls-3" points="79.81 96.68 63.95 113.57 68.88 136.21 47.92 126.35 27.91 138.03 30.81 115.05 13.51 99.63 36.27 95.28 45.59 74.07 56.76 94.37 79.81 96.68"/></g></g></svg>