<svg xmlns="http://www.w3.org/2000/svg" viewBox="0 0 189 189"><defs><style>.cls-1{fill:#e6e6e6;}.cls-2{fill:#4d4d4d;}</style></defs><title>Zeus</title><g id="Camada_2" data-name="Camada 2"><g id="Camada_1-2" data-name="Camada 1"><path class="cls-1" d="M94.5,188.85A94.35,94.35,0,1,1,188.86,94.5,94.46,94.46,0,0,1,94.5,188.85Z"/><path class="cls-2" d="M94.5.29A94.21,94.21,0,1,1,.29,94.5,94.32,94.32,0,0,1,94.5.29m0-.29A94.5,94.5,0,1,0,189,94.5,94.5,94.5,0,0,0,94.5,0Z"/><path class="cls-2" d="M89.8,168.41l47.81-67.24c5.42-7.63-7.16-14.89-12.54-7.33L77.26,161.08c-5.42,7.63,7.16,14.89,12.54,7.33Z"/><path class="cls-2" d="M49,104.76l83-.55c9.34-.06,9.36-14.58,0-14.52l-83,.55c-9.34.06-9.36,14.58,0,14.52Z"/><path class="cls-2" d="M84.9,21.08,43.73,93.84c-4.61,8.14,7.93,15.47,12.54,7.33L97.44,28.41c4.61-8.14-7.93-15.47-12.54-7.33Z"/></g></g></svg>